<svg width="118" height="84" viewBox="0 0 118 84" fill="none" xmlns="http://www.w3.org/2000/svg">
<path d="M105.139 37.9629C104.689 34.9288 103.56 31.8531 102.242 29.1836C101.405 27.4905 100.276 25.9621 99.2056 24.4768C98.642 23.6943 97.9968 22.996 97.3173 22.3573C96.0314 21.1494 94.7308 19.91 93.3048 18.9382C91.8195 17.9257 90.1871 17.1629 88.6117 16.4283C86.2456 15.3251 83.6389 14.8975 81.1693 14.568C76.244 13.9112 71.4804 15.5376 66.8342 16.8848C64.5065 17.5597 62.1718 18.2111 59.8515 18.9158C58.1332 19.4373 56.4283 20.0123 54.6777 20.3823C54.3713 20.3883 54.0652 20.3829 53.7584 20.365C53.1481 20.177 52.5466 19.9504 51.9516 19.6915C49.4704 18.251 47.1125 16.5079 44.6261 15.077C40.6381 12.7823 36.4271 10.8749 32.0046 10.9291C27.928 10.9793 23.5857 12.0506 20.176 14.5734C16.4421 17.3365 13.5088 21.7524 12.7364 26.9411C12.4068 28.2618 12.2911 29.5892 12.2021 31.2207C12.0332 34.3086 13.1894 37.2091 14.3141 39.953C15.4105 42.6276 17.4068 44.5906 19.4197 46.2531C22.3304 48.6573 26.269 49.1739 29.6328 49.2266C31.52 49.2556 33.4128 49.0364 35.3041 49.1624C35.5756 49.2523 35.8447 49.3517 36.1124 49.4598C36.9084 49.9431 37.6874 50.4778 38.4367 51.0597C39.1713 51.8433 39.8518 52.6917 40.4979 53.5784C41.5313 55.2165 42.4852 56.9008 43.359 58.672C44.8562 61.708 46.5631 64.7529 48.7855 67.1415C49.6133 68.031 50.4659 68.8892 51.3427 69.7094C51.3231 69.7209 51.3042 69.7335 51.2861 69.7473C51.1734 69.7156 51.0426 69.7132 50.8949 69.752C49.9254 70.0071 48.9209 70.0613 47.9515 70.3164C47.698 70.3832 47.5479 70.5564 47.4861 70.7584C46.7005 71.0937 47.0658 72.401 47.9036 72.1005C48.3532 71.939 48.8149 71.8187 49.2777 71.7024H51.4298C51.397 71.789 51.3803 71.8818 51.3822 71.975C51.1319 72.2683 50.9706 72.6425 50.9412 73.1135C50.9231 73.4025 51.1661 73.7424 51.4557 73.7938C51.9035 73.8732 52.3374 73.8752 52.7617 73.8238C52.6427 73.9705 52.5339 74.1317 52.4384 74.3095C52.2364 74.6856 52.3966 75.0422 52.6678 75.2317C52.8667 75.4597 53.193 75.5839 53.5374 75.416C54.4051 74.9929 55.3321 74.7104 56.2004 74.2871C56.3917 74.1938 56.4952 74.0438 56.5312 73.8782C58.7208 75.3601 61.0274 76.581 63.4444 77.4576C69.2179 79.5511 75.5426 79.1276 81.0643 76.9851C85.4226 75.2948 89.7608 73.0393 93.4325 69.8379C97.314 66.4535 100.808 62.6805 103.068 57.5296C104.12 55.1344 105.022 52.4453 105.38 49.7213C105.622 47.8764 105.822 45.9856 105.815 44.0965C105.806 42.0582 105.435 39.9607 105.139 37.9629ZM52.613 71.1666C52.6251 71.1119 52.6297 71.055 52.623 70.9966C52.6169 70.9438 52.6073 70.8916 52.5967 70.8397C52.7134 70.9411 52.8295 71.043 52.947 71.143C52.8345 71.1474 52.7234 71.1557 52.613 71.1666ZM53.8377 72.1276C53.8602 72.0587 53.8719 71.9853 53.8728 71.9108C53.929 71.956 53.9856 72.0006 54.0419 72.0454C53.9741 72.0735 53.9061 72.101 53.8377 72.1276Z" fill="#F9B4AB"/>
<path d="M45.615 47.0869C48.658 46.8413 51.5546 47.9878 53.9873 49.7654C57.1199 52.0593 59.7725 55.3358 61.5706 58.7844C61.7579 58.9319 61.953 59.0874 62.1401 59.2348C63.1408 60.0541 64.1172 60.9224 64.9797 61.889C65.4596 62.4297 66.7289 63.7322 66.1839 64.5596C66.0576 64.7267 65.8806 64.8473 65.6796 64.9036C65.1423 65.1002 64.5808 65.1986 64.044 65.4197C63.385 65.6982 62.7096 66.0914 62.2865 66.6892C62.1645 66.8614 62.1318 67.058 61.9774 67.1318C61.8065 67.2136 61.4892 67.1809 61.3022 67.1972C60.9277 67.2382 60.5534 67.2709 60.1792 67.312C59.3004 67.4021 58.381 67.4103 57.5185 67.6233L53.5561 68.6064C52.7424 68.8111 51.8148 68.9175 51.0501 69.2453C49.9028 69.7367 48.8126 70.4656 47.714 71.0555L46.1275 71.9157C45.8671 72.0549 45.6881 72.0549 45.3871 72.0795L43.1983 72.2517C42.8483 72.2762 42.6776 72.4237 42.6288 72.0633L42.1163 68.1476L41.8477 66.0751C41.8314 65.9522 41.8394 65.3462 41.7338 65.2724C41.6687 65.2231 41.3025 65.3215 41.2373 65.3378L40.2447 65.4609C39.5287 65.5511 38.8128 65.6409 38.0967 65.7228C38.0398 65.7311 37.7142 65.7228 37.6817 65.772C37.6411 65.8293 37.7225 66.1488 37.7306 66.2225C37.8038 66.9517 37.8854 67.6724 37.9585 68.4015C37.9666 68.4833 38.0725 68.8766 38.0154 68.9419C37.9746 68.9913 37.7062 68.9994 37.6573 69.0077C36.9658 69.1224 36.2741 69.237 35.5825 69.3517C35.0862 69.4337 34.4436 69.4254 33.9715 69.6139C33.7029 69.7203 33.4344 69.9988 33.2065 70.1708L29.8381 72.6693C29.3256 73.046 28.642 72.9477 28.0155 72.9969L20.8391 73.5458C20.8472 73.3245 20.8472 73.0952 20.8555 72.8739C20.8879 71.6862 20.9205 70.4902 20.9531 69.3025L20.9937 67.746C20.9937 67.6478 20.9612 67.3609 21.0181 67.2873C21.0995 67.1891 21.482 67.1481 21.604 67.1153C22.0027 67.0005 22.3934 66.8776 22.792 66.7631C23.9556 66.419 25.1191 66.0667 26.2746 65.7226C27.4218 65.3786 28.569 65.0347 29.7162 64.6988C30.1068 64.584 30.5053 64.4611 30.8959 64.3464C30.9855 64.322 31.3028 64.2809 31.368 64.2073C31.4494 64.1089 31.4087 63.6912 31.4249 63.5685C31.4899 62.9704 31.5795 62.3642 31.6852 61.7744C32.4663 57.4821 34.289 53.116 37.6737 50.257C39.9112 48.3649 42.7103 47.3243 45.615 47.0869ZM46.1521 55.6962C45.851 55.344 45.3465 54.7627 44.8176 54.8525C44.3864 54.9345 44.1504 55.4669 43.9958 55.8273C43.3937 57.2692 43.2066 58.9237 43.0113 60.4638C42.8894 61.4305 42.7998 62.397 42.7346 63.3718C44.8909 63.2078 47.047 63.0359 49.2032 62.8721C49.0975 62.184 49.0161 61.4795 48.894 60.7914C48.829 60.4474 48.6663 60.136 48.5198 59.8166C47.8769 58.3996 47.1689 56.9005 46.1521 55.6962Z" fill="white"/>
<path d="M76.0861 27.6043H76.1348C77.5669 27.6453 78.828 28.5709 79.8044 29.5539C80.2845 30.0372 80.732 30.6105 80.9354 31.274C81.1714 32.0442 81.0981 32.8879 80.911 33.658C80.5042 35.3617 80.0159 37.0656 79.4627 38.7284C79.186 39.5476 78.7955 40.3423 78.592 41.1777C78.4212 41.8659 79.1372 42.3656 79.1615 43.0701C79.186 43.7827 78.7141 44.4545 78.0549 44.7084C77.7781 44.8148 77.4367 44.7248 77.1844 44.8395C76.9483 44.9378 76.8669 45.2408 76.8183 45.4703C76.7668 45.7814 76.7558 46.098 76.7858 46.4123C76.7939 46.6089 76.745 46.9202 76.8427 47.0922C76.9077 47.2069 77.0216 47.2478 77.1275 47.3297C77.2522 47.4475 77.3692 47.5732 77.4773 47.7066C77.6807 47.9196 77.8677 48.0344 77.9246 48.3373C77.9572 48.2637 77.9816 48.1982 78.0141 48.1244C78.1607 48.3947 78.2746 48.5339 78.1281 48.7879C78.5676 48.747 78.8279 49.5496 78.942 49.8528C79.1535 50.4098 79.3 50.9913 79.5115 51.5484C79.8044 52.3101 80.1788 53.0639 80.366 53.8666C80.5206 54.5384 80.6426 55.2266 80.7809 55.9064C80.8622 56.2915 80.9274 56.6765 81.0656 57.037C81.1225 57.176 81.2203 57.2745 81.2852 57.3974C81.3746 57.5696 81.3423 57.6594 81.3423 57.848C81.3504 58.1838 81.5619 58.4048 81.6269 58.7327C81.7001 59.0848 81.7571 59.4372 81.8303 59.7812C81.9768 60.4856 82.2372 61.1902 82.3022 61.9028C82.3754 62.7301 82.5383 63.5494 82.6194 64.3767C82.6927 65.0973 82.5706 65.8757 82.7171 66.5801C82.8474 67.2027 82.6847 67.7678 82.6278 68.3903C82.6114 68.5461 82.8554 69.4799 82.4648 69.2997C82.5381 69.5209 82.6358 69.6274 82.6439 69.865C82.64 70.0947 82.6071 70.3232 82.5462 70.5447C82.4567 70.9708 82.3918 71.4296 82.2127 71.8226C82.0093 72.2732 81.7001 72.3223 81.2851 72.4781C81.0004 72.5846 80.4958 72.9532 80.2681 72.5599C80.1379 72.9696 79.8774 72.683 79.5845 72.6666C79.5211 72.6931 79.456 72.7152 79.3893 72.7321C79.2836 72.7483 79.1695 72.6994 79.0637 72.691C78.8123 72.6758 78.5602 72.6979 78.3153 72.7566C77.7457 72.8795 77.1922 73.0432 76.6066 73.1254C75.4757 73.2892 74.361 73.2071 73.2219 73.281C71.0006 73.4201 68.7387 73.3056 66.5093 73.2399C66.2731 73.2319 66.013 73.2645 65.777 73.2319C65.5247 73.1908 65.4678 73.0678 65.2724 72.9532C64.9469 72.7483 64.5805 72.9449 64.2391 73.0187C63.2382 73.2319 62.1885 73.2481 61.1797 73.4609C59.1294 73.8871 57.2334 74.7226 55.2726 75.4272C54.4182 75.7301 53.4174 76.2298 52.4981 76.2543C51.3833 76.2789 51.6437 75.1731 51.8553 74.4605C51.2125 74.6326 50.2035 75.4188 49.5445 74.9602C48.7634 74.4195 49.756 73.5103 49.8048 72.8712C48.4134 73.166 46.8269 73.8052 45.4191 73.2809C45.1506 73.1825 44.9066 72.9696 44.6217 72.9368C44.3208 72.9041 43.9952 73.0104 43.686 73.0104C42.9863 73.0022 42.3111 72.912 41.6112 73.0022C40.049 73.1989 38.5111 73.3053 36.9408 73.3463C35.3624 73.3871 33.7757 73.4855 32.1892 73.4773C31.3835 73.4773 30.57 73.3789 29.7644 73.42C29.4471 73.4364 28.7718 73.6657 28.5522 73.3465C28.3324 73.6166 28.1453 73.4365 27.8523 73.4609C27.9011 73.4529 27.7059 73.5756 27.6733 73.584C27.5269 73.6413 27.3803 73.6249 27.2257 73.6249C26.8108 73.6166 26.4202 73.8133 26.0053 73.7971C25.9093 73.7899 25.8155 73.7649 25.7285 73.7232C25.7041 73.7151 25.7123 73.625 25.6797 73.6167C25.4762 73.5676 25.5332 73.6987 25.403 73.756C25.2565 73.8296 25.0532 73.7151 25.1265 73.928C24.7358 73.9118 24.3697 74.0427 24.0198 73.8133C24.1825 74.1819 23.6049 73.8789 23.4503 73.8706C23.198 73.8624 22.9784 73.9853 22.7261 74.0182C22.425 74.0508 22.1239 73.9116 21.823 74.0017C21.5953 74.0673 21.5138 74.2311 21.2697 74.1493C21.0827 74.076 20.9291 73.936 20.8384 73.756C20.7002 73.5267 20.6838 73.4201 20.3502 73.4201C20.106 73.4201 19.862 73.4694 19.6099 73.4694C19.3251 73.4694 19.0159 73.4366 18.7555 73.5758C18.4788 73.7232 18.3161 73.9444 18.0069 74.0592C16.6155 74.5753 15.0859 74.436 13.6376 74.4278C13.0274 74.4278 12.5718 74.4769 12.4008 73.7807C12.2544 73.1827 12.1975 72.5683 12.0591 71.9621C11.8881 71.2248 11.7012 70.5449 11.3268 69.8896C10.9607 69.2505 10.6515 68.5952 10.3342 67.9317C9.67499 66.5554 8.74754 65.3841 7.7224 64.2702C7.33177 63.8442 6.88438 63.369 6.86798 62.7628C6.85172 62.2386 7.08761 61.6898 7.38868 61.2638C7.65737 60.8869 8.10476 60.461 8.6092 60.5511C8.91027 60.6002 9.11364 60.854 9.3414 61.0344C9.58416 61.2314 9.85972 61.3842 10.155 61.4848C10.8267 61.7165 11.4604 62.0478 12.0346 62.4678C12.6449 62.9185 13.2164 63.42 13.7433 63.9669C14.7522 65.0155 15.7937 66.0968 16.3794 67.4564C16.5909 67.9766 16.7677 68.5102 16.9083 69.0538C17.0629 69.5945 17.4777 69.4471 17.9497 69.3651C18.5193 69.2669 19.097 69.2175 19.6746 69.1603C19.8943 69.1358 20.1953 69.1276 20.3255 68.9227C20.472 68.6934 20.3012 68.3985 20.293 68.161C20.2972 68.0448 20.3136 67.9294 20.3418 67.8168C20.3501 67.6778 20.3094 67.5466 20.3094 67.4074C20.3084 67.1128 20.4475 66.8358 20.6837 66.662C21.1149 66.3179 21.7496 66.1215 22.2621 65.933C22.9618 65.6791 23.7104 65.548 24.4346 65.3679C25.2483 65.163 26.062 64.9746 26.8838 64.7944C27.6893 64.6143 28.4867 64.4259 29.3003 64.2783C29.7724 64.1964 30.2929 64.2292 30.7567 64.0736C31.2449 63.9098 31.1636 63.4183 31.1636 62.9759C31.1758 62.2404 31.2411 61.5068 31.3589 60.7805C31.5866 59.2568 32.1156 57.7579 32.6038 56.2997C33.0757 54.8909 33.6535 53.5475 34.6136 52.4004C35.5724 51.2816 36.672 50.2931 37.8843 49.4597C39.1211 48.5996 40.5042 47.9771 41.7979 47.2152C41.5131 46.9941 41.1795 46.8139 41.0168 46.4779C40.8297 46.1012 40.9111 45.6506 40.9193 45.2409C40.9274 44.7822 40.9436 44.3807 41.1064 43.9467C41.1958 43.7091 41.5375 43.2586 41.4887 42.9965C41.3992 42.5624 40.4553 42.2429 40.1055 42.0626C39.5538 41.7938 39.0209 41.4873 38.5107 41.1452C38.0307 40.8094 37.5752 40.3998 37.2821 39.8755C37.1978 39.7276 37.1296 39.5712 37.0787 39.4086C37.0218 39.2284 37.0624 39.171 36.8833 39.1546C36.5987 39.13 36.1674 39.425 35.9313 39.5479C34.6946 40.2032 33.3276 41.0879 31.8712 41.0305C31.3423 41.0058 30.7402 40.8421 30.5531 40.285C30.3089 39.5477 30.8216 38.7942 31.2772 38.2617C30.3985 38.4009 28.7631 38.8351 28.0714 38.0487C27.6075 37.5245 27.9574 36.6807 28.3479 36.2221C28.8606 35.6159 29.5928 35.2471 30.2763 34.8622C29.4464 34.5427 28.5269 34.338 27.7946 33.8056C27.0949 33.2977 27.1843 32.5113 27.7377 31.9051C28.3315 31.258 29.3568 30.9304 30.1705 30.6928C31.1631 30.3979 32.1558 30.4226 33.181 30.4388C35.0199 30.4716 36.6064 31.1597 38.1118 32.1918C38.918 32.734 39.6849 33.3335 40.4063 33.9859C41.0734 34.6083 41.7812 35.1818 42.4322 35.8126C43.0668 36.4186 43.5631 37.1723 44.2385 37.7376C44.808 38.2209 45.4347 38.9009 46.1588 39.122C46.9236 39.3513 47.6152 39.7281 48.3882 39.9492C49.267 40.2032 50.0156 40.6292 50.8292 41.0307C54.2382 42.7264 57.8999 43.8322 61.4963 45.0527C63.3348 45.6753 65.1901 46.1177 67.0615 46.5928C68.0052 46.8304 68.884 46.9614 69.8523 46.9203C70.0719 46.9052 70.2927 46.9107 70.5112 46.9367C70.674 46.9614 70.7961 47.0186 70.9426 46.9203C71.1541 46.7812 71.2272 46.4124 71.3575 46.2077C70.6658 45.9946 69.9906 45.7571 69.6731 45.0445C69.4778 44.594 69.3722 44.0697 69.2827 43.5864C69.2339 43.3243 69.2339 43.0621 69.1931 42.8C69.1686 42.6526 69.1035 42.5051 69.1117 42.3576C69.0955 42.4396 68.583 42.1693 68.5014 42.12C68.2167 41.9233 68.1597 41.5385 68.1597 41.2109C68.1597 40.8421 68.2736 40.4326 68.5259 40.1541C68.6411 40.0228 68.7906 39.9265 68.9569 39.8755C69.0793 39.8428 69.2419 39.8837 69.3477 39.851C69.8277 39.6953 69.8764 38.5076 69.9416 38.0734C70.0879 37.1232 70.2426 36.214 70.5599 35.2965C71.149 33.627 71.8985 32.0194 72.7975 30.4962C73.5706 29.1938 74.3353 27.6046 76.0276 27.5883H76.0847V27.6043H76.0861ZM61.4402 67.6037C60.7568 67.7268 60.0979 67.9643 59.4389 68.1772C58.8213 68.3612 58.1937 68.5091 57.5593 68.6196C56.298 68.8736 55.0046 69.0946 53.7595 69.4222C53.4097 69.5124 53.2226 69.7253 52.9215 69.8647C52.6938 69.9711 52.4823 69.8647 52.2462 69.8564C51.7337 69.84 51.164 70.0037 50.6677 70.135C49.5043 70.4299 48.471 70.9459 47.4132 71.5194C47.3155 71.5686 46.6809 71.8634 46.7134 71.9865C46.7378 72.0847 47.5514 71.8225 47.6816 71.7981C48.3325 71.6997 48.9751 71.4868 49.6181 71.3638C50.1469 71.2574 50.6921 71.1835 51.2209 71.0688C51.8068 70.9379 53.068 70.4873 53.1168 71.4621C53.1737 72.5187 52.0101 72.8465 51.3104 73.3463C51.3918 73.4855 52.5065 73.0349 52.6448 72.994C53.1249 72.8382 53.5643 72.5599 54.0525 72.4451C54.8988 72.2403 54.7929 73.1742 54.3292 73.5919C53.8085 74.0589 52.954 74.1981 52.6692 74.9108C53.0436 75.0501 53.5398 74.7879 53.8816 74.665C54.3373 74.5013 54.7929 74.3293 55.2486 74.1737C56.2736 73.8133 57.2501 73.3216 58.2834 72.9778C60.3988 72.2732 62.6366 72.0765 64.8496 71.9537C64.6543 71.1835 64.4348 70.4218 64.2638 69.6436C64.1906 69.3161 64.1173 68.9803 64.0603 68.6441C64.0196 68.415 64.0521 67.8498 63.8977 67.6695C63.7023 67.4484 63.198 67.7597 62.9212 67.7515C62.6528 67.7432 62.4574 67.6039 62.2052 67.563C61.9528 67.4973 61.6761 67.5628 61.4402 67.6037ZM21.6773 72.0601C21.6773 72.4286 21.6122 72.8709 22.0921 72.9203C22.4826 72.9529 23.2393 73.002 23.5485 72.7235C23.2476 72.576 22.914 72.5515 22.5966 72.4695C22.2738 72.374 21.9646 72.2364 21.6773 72.0601ZM29.6104 65.3594C29.464 65.3594 29.2199 65.5232 29.0815 65.5723C28.8375 65.6544 28.5852 65.7281 28.3411 65.7934C27.5925 65.9901 26.6242 66.0229 26.2827 66.8338C26.1117 67.2352 25.9897 68.2756 25.3957 68.2756C24.8669 68.2756 24.5496 67.5055 24.1671 67.227C23.7764 66.9402 23.1581 67.1367 22.735 67.2599C22.3038 67.3826 21.6449 67.5463 21.6935 68.0952C21.726 68.4884 21.7993 68.8489 21.7912 69.2502C21.7829 69.7583 21.7423 70.2744 21.7423 70.7821C22.0434 70.3643 22.3038 69.5369 22.8409 69.3649C23.3778 69.1929 23.687 70.1432 23.8252 70.5035C23.9961 70.9541 24.2158 71.462 24.232 71.9534C24.2401 72.1092 24.1425 72.5268 24.2484 72.6497C24.3459 72.7644 24.704 72.6826 24.818 72.6662C25.5422 72.5924 26.2581 72.4939 26.9822 72.4366C27.3564 72.4041 27.454 72.3219 27.4215 71.9206C27.3849 71.6105 27.3849 71.297 27.4215 70.9868C27.6005 69.5697 28.463 68.2754 29.9274 68.0297C30.8143 67.8824 31.8396 67.9888 32.7264 68.1361C33.0681 68.1936 33.4342 68.3574 33.7842 68.3409C34.0364 68.3327 33.9551 68.3163 34.012 68.0707C34.0437 67.903 34.1294 67.7502 34.256 67.6365C34.3537 67.5463 34.4839 67.5956 34.5815 67.4728C34.6465 67.3826 34.6385 67.2679 34.6709 67.1615C34.7361 66.9649 34.85 66.7028 35.0778 66.6536C35.4439 66.5717 35.8344 67.0713 36.0216 67.3253C36.2169 67.5874 36.2738 68.3739 36.5748 68.4803C36.9329 68.6032 37.3561 68.1281 37.4292 67.8332C37.5268 67.44 37.4049 67.0059 37.3398 66.6127C37.3316 66.5882 37.3154 66.326 37.2992 66.3096C37.2503 66.2605 36.8598 66.277 36.7865 66.277C36.4448 66.2607 36.1032 66.2607 35.7613 66.2607C34.4269 66.2607 33.1169 66.1215 31.7906 65.982C31.986 66.3016 32.3114 66.8176 31.9778 67.1535C31.7255 67.3991 31.278 67.2765 30.9607 67.3256C30.5133 67.3991 29.7645 67.8253 29.3415 67.514C28.7477 67.0798 29.4228 66.3261 29.6426 65.9083C29.6914 65.8183 29.8704 65.507 29.7891 65.4006C29.7243 65.2939 29.7079 65.3512 29.6104 65.3594ZM19.6594 70.2251C19.3502 70.3152 19.0491 70.4053 18.7318 70.4791C18.3657 70.5608 17.7961 70.4791 17.6171 70.8885C17.4787 71.1998 17.552 71.6914 17.6579 72.0027C17.7799 72.3548 18.081 72.4449 18.4308 72.4695C18.8376 72.5024 19.2526 72.4368 19.6514 72.3793C19.812 72.345 19.9754 72.3232 20.1395 72.3138C20.2372 72.3138 20.4244 72.4042 20.5138 72.3302C20.6277 72.24 20.5544 71.7076 20.5463 71.5765C20.5218 71.2653 20.4649 70.9541 20.4486 70.6345C20.4405 70.4052 20.5218 70.1021 20.2615 70.0528C20.0988 70.0284 19.7977 70.1842 19.6594 70.2251ZM44.3048 63.9995C44.0795 64.0417 43.8506 64.0636 43.6214 64.0651C43.4749 64.0651 43.3041 64.0159 43.1739 64.0897C42.9299 64.237 42.9705 64.6221 42.9786 64.8596C42.9868 65.1465 43.0112 65.4414 43.0437 65.7363C43.0762 66.0147 43.2227 66.4653 43.0112 66.7029C42.8648 66.5391 42.7834 65.9983 42.4986 66.0147C42.1813 66.0392 42.3277 66.5471 42.3523 66.7355C42.5069 67.7513 42.6858 68.7587 42.8242 69.7829C42.8894 70.2661 42.9788 70.7496 43.0194 71.2328C43.0519 71.5603 43.0602 71.8552 43.4182 71.9207C43.7516 71.9865 44.1341 71.8799 44.4677 71.8716C44.8176 71.8633 45.0128 71.839 45.2163 71.5194C44.7363 71.413 43.9714 71.4785 43.7029 70.9624C43.3855 70.3644 44.0527 69.832 44.3782 69.4224C44.6304 69.1111 45.143 68.0708 45.6068 68.6851C45.7777 68.9062 45.802 69.2502 45.8916 69.5043C46.0298 69.9222 46.2008 70.3399 46.3635 70.7495C47.8768 69.9631 49.431 69.2504 51.0827 68.808C50.6595 68.0952 50.1388 67.4481 49.8216 66.67C49.4716 65.8016 49.1788 64.909 48.8127 64.0404C48.2432 64.3764 47.6247 63.5655 47.0551 63.5326C46.1761 63.4753 45.1835 63.8439 44.3048 63.9995ZM35.3303 69.8647C35.013 70.053 34.5574 70.4216 34.4759 70.7985C34.3457 71.4538 35.0862 71.0115 35.3141 70.872C35.7941 70.5692 36.2661 70.479 36.8111 70.659C37.5191 70.8968 38.17 71.298 38.9266 70.9949C39.301 70.8476 40.139 70.5198 39.9111 69.9383C39.7565 69.5368 39.3008 69.881 39.0567 70.0284C38.4303 70.4053 37.9013 70.1677 37.2748 69.8972C36.6647 69.6188 35.9569 69.4962 35.3303 69.8647ZM12.9793 66.5062C12.7271 66.8667 13.2397 66.7847 13.4675 66.8257C13.9395 66.8993 14.4194 67.2762 14.2892 67.8088C14.159 68.3329 13.6708 68.6525 13.5733 69.2012C13.4918 69.6683 13.5733 70.2661 14.0208 70.5201C14.273 70.6675 14.8263 70.7249 15.0785 70.561C15.469 70.3071 14.9808 69.9302 14.7285 69.7993C14.3868 69.6354 14.1102 69.5454 14.281 69.103C14.4845 68.5706 14.8831 68.161 14.8506 67.5466C14.8181 67.0387 14.5576 66.4654 14.0695 66.2523C13.7279 66.1128 13.2153 66.1703 12.9793 66.5062ZM47.3887 64.9579C47.8279 64.9416 47.8442 65.4658 47.8198 65.728C47.7873 66.0884 47.8523 66.4653 47.8606 66.8255C47.8687 67.3006 47.9663 68.8489 47.1365 68.6196C46.5994 68.4721 46.16 67.9561 45.7289 67.6201C45.3303 67.3173 44.3295 66.9486 44.2643 66.3668C44.1912 65.7116 44.9804 65.5885 45.4361 65.4902C46.0867 65.343 46.7132 64.9826 47.3887 64.9579ZM45.2648 47.731C44.5733 47.7823 43.8904 47.9171 43.2308 48.1324C42.7833 48.2882 42.0998 48.4029 41.7906 48.7879C41.5221 49.1155 41.636 49.5905 41.5465 49.9841C41.4244 50.5163 41.0664 50.4425 40.7083 50.1068C40.2853 49.7134 40.1632 49.427 39.5774 49.7955C38.3651 50.5654 37.3969 51.7041 36.4366 52.7526C37.1852 52.9819 38.6499 53.0312 38.8939 53.9731C39.0323 54.4891 38.6173 54.8579 38.2512 55.1363C37.7792 55.4969 37.2829 55.8325 36.8191 56.2094C36.388 56.5615 35.4198 57.9541 35.1431 56.7254C34.9722 55.9636 35.2896 55.1772 35.1595 54.4317C34.5736 55.3821 33.9796 56.3322 33.4425 57.3153C32.987 58.1507 32.7184 59.0437 32.4988 59.9693C32.8404 59.994 33.1985 59.8136 33.5321 59.9202C33.8575 60.0185 34.0121 60.3298 34.0365 60.6491C34.0773 61.1981 33.825 61.7468 33.7031 62.2711C33.6135 62.6316 33.5158 63.4426 33.0847 63.5655C32.5882 63.6965 32.279 62.9346 32.0595 62.6151C31.848 62.9429 31.8562 63.418 31.8236 63.7867C31.7993 64.0406 31.6608 64.524 31.9456 64.6631C32.2143 64.7944 32.7838 64.6304 33.0686 64.614C33.5974 64.5894 34.1426 64.5483 34.6796 64.5648C35.184 64.581 35.9245 64.8515 36.1197 64.229C36.2499 63.8029 36.372 62.2795 37.088 63.1067C37.4053 63.4753 37.6494 63.8931 37.9586 64.2699C38.2678 64.6466 38.5525 64.6713 39.0082 64.6548C39.9195 64.614 40.8144 64.7942 41.7095 64.9335C42.4906 65.0564 42.3929 64.3846 42.3767 63.7949C42.3603 62.8692 42.5394 61.9026 42.6369 60.9853C42.8706 58.7962 43.3623 56.6432 44.1015 54.5713C43.475 54.3582 42.3603 55.2183 41.8966 54.5629C41.5142 54.0223 42.0024 53.285 42.2058 52.7773C42.45 52.1464 42.58 51.4913 42.9788 50.934C43.109 50.762 43.288 50.5245 43.532 50.5818C43.7435 50.6309 43.8249 50.9013 43.9469 51.0568C44.3212 51.5402 44.8094 51.9088 45.143 52.4414C45.3531 52.7594 45.4994 53.1154 45.5741 53.4899C45.5905 53.5965 45.566 53.8094 45.6393 53.8996C45.8671 54.1698 46.583 54.1698 46.9005 54.3336C47.9827 54.907 48.365 56.5616 48.7882 57.6103C48.9163 57.9005 49.0171 58.202 49.0891 58.5113C49.1297 58.7244 49.1297 58.9866 49.2437 59.175C49.4879 59.5843 50.2527 59.2159 50.6269 59.1585C51.2535 59.0519 51.88 58.9537 52.5065 58.8635C52.889 58.8064 53.4503 58.667 53.7433 59.011C54.0443 59.3632 53.8735 59.9285 53.7189 60.3054C53.4666 60.9278 53.1494 61.526 52.8891 62.1402C52.6775 62.6317 52.5717 63.2625 52.1731 63.6476C51.8232 63.9751 51.2453 64.0736 50.8386 63.8034C50.6026 63.6476 50.0006 62.1731 49.8458 62.2387C50.1306 63.3774 50.5536 64.5407 50.9932 65.6299C51.1315 65.9659 51.3674 66.6457 51.7091 66.8259C51.9938 66.9734 52.6448 66.6949 52.9378 66.6377C53.2145 66.5883 53.7595 66.359 54.0281 66.523C54.3454 66.7277 54.3862 67.2604 54.4267 67.596C54.4511 67.8416 54.4023 68.0302 54.7032 68.0138C54.9149 68.0056 55.1265 67.8991 55.3299 67.8501C55.8017 67.7271 56.2819 67.6533 56.7618 67.5716C57.8685 67.3912 58.9668 67.2109 60.0734 67.0307C61.0171 66.875 61.9528 66.875 62.8153 66.4245C63.2465 66.1952 63.7511 66.1217 64.2067 65.9742C64.6583 65.8211 65.1246 65.7168 65.598 65.6629C66.6475 65.5399 67.6646 65.4171 68.706 65.2042C69.2756 65.0894 69.8371 64.9664 70.4067 64.8356C70.9112 64.7209 71.3914 64.5325 71.8957 64.4176C72.3107 64.3195 72.6523 64.3931 72.8314 63.9181C72.9616 63.5739 72.9291 63.1973 72.9616 62.8368C73.1082 61.2065 72.5467 59.5682 72.4329 57.9465C72.3921 57.4221 72.3841 56.8979 72.3434 56.3737C72.3272 56.136 72.3351 55.4317 72.0587 55.3007C72.0342 55.4892 72.0503 55.8167 71.8391 55.9151C71.9447 55.8658 71.8065 56.4393 71.7983 56.4964C71.7659 56.726 71.8391 56.9635 71.8065 57.1846C71.8423 57.2461 71.8245 57.325 71.7659 57.3648C71.7272 57.3985 71.6965 57.4404 71.6763 57.4876C71.6763 57.6434 71.7168 57.5532 71.7252 57.6106C71.7496 58.1594 71.6521 58.7247 71.6926 59.2818C71.7332 59.8715 71.8636 60.4531 71.9613 61.0347C72.0506 61.559 72.1483 62.0832 72.2216 62.6075C72.2705 62.976 72.311 63.4021 72.1157 63.7379C71.7414 64.3768 70.6592 64.3032 70.0328 64.4097C68.9833 64.5816 67.9335 64.7372 66.8839 64.8847C66.4771 64.942 66.0703 65.0731 65.6634 65.0731C65.224 65.0814 64.9961 64.9011 64.7197 64.5816C64.1664 63.9263 63.8084 63.189 63.3445 62.4764C63.0842 62.0752 62.8727 61.9685 62.4334 61.8538C62.0265 61.7391 61.7009 61.4443 61.3755 61.1985C60.6839 60.6743 59.789 60.109 59.3333 59.3471C58.8531 58.5445 59.5286 58.2741 60.1713 58.053C60.0166 57.6352 59.7074 57.291 59.4553 56.9308C59.1706 56.5213 58.9021 56.0951 58.5929 55.6936C57.9582 54.891 57.3237 54.0881 56.7133 53.2608C56.1845 52.5565 55.6556 51.8929 54.9885 51.3277C54.3132 50.7542 53.5646 50.2873 52.8241 49.8123C52.4418 49.5583 51.7582 48.9274 51.27 48.9931C50.7981 49.0587 50.611 49.9431 50.4889 50.32C50.3505 50.7459 50.3018 51.3441 49.9926 51.6798C49.5288 52.1714 49.0487 51.3932 48.8208 51.0328C48.4139 50.3772 47.9991 49.7222 47.5922 49.0587C47.4051 48.7556 47.1367 48.4687 47.0308 48.1328C47.0308 48.1247 46.9821 47.8379 47.0308 47.8789C46.9169 47.7641 46.4856 47.7399 46.3229 47.7233H46.3066C45.9601 47.6845 45.6106 47.6871 45.2648 47.731ZM40.7328 66.2113C40.3424 66.2113 39.96 66.2522 39.5694 66.2851C39.2277 66.3095 38.9185 66.2604 38.5767 66.244C38.1536 66.2193 37.9502 66.2604 38.0479 66.7028C38.1212 67.0224 38.2025 67.4401 38.528 67.5792C38.9672 67.7594 39.5532 67.735 40.0169 67.8086C40.3586 67.8577 40.7005 67.9068 41.042 67.9643C41.2699 68.0053 41.3838 68.0463 41.4896 67.7841C41.579 67.5713 41.5221 67.2762 41.4896 67.0551C41.4652 66.8829 41.4814 66.58 41.4 66.4325C41.2862 66.1867 40.9689 66.2113 40.7328 66.2113ZM58.8367 61.8614C59.4062 62.3858 59.7887 63.0575 60.2198 63.6964C60.4801 64.0814 61.001 64.7039 60.6267 65.179C60.3091 65.5805 59.5688 65.4902 59.1213 65.5067C58.4216 65.5393 57.8521 65.8589 57.1849 66.0227C55.5089 66.4406 56.9003 63.5981 57.1362 63.0082C57.2989 62.5905 57.4696 62.181 57.6649 61.7796C57.7544 61.5994 57.9334 61.075 58.153 61.0014C58.4705 60.8866 58.6331 61.6732 58.8367 61.8614ZM44.4268 55.8898C44.1582 56.4058 44.1176 57.1103 43.9875 57.6755C43.605 59.3876 43.3773 61.1324 43.1983 62.8771C44.0852 62.5249 45.0127 62.5004 45.9484 62.4102C46.6237 62.3446 47.2422 62.2792 47.9175 62.3035C48.0314 62.312 48.3649 62.3693 48.4626 62.2709C48.5928 62.1398 48.4382 61.7712 48.3975 61.6321C48.194 60.8786 48.1045 60.092 47.8686 59.3466C47.6327 58.5767 47.3398 57.815 47.0388 57.0693C46.8111 56.5287 46.5017 55.9963 45.9648 55.7341C45.4846 55.5048 44.7197 55.3246 44.4268 55.8898ZM40.7899 59.2239C41.156 59.7727 41.6117 60.256 41.9696 60.8212C42.2219 61.2144 42.5147 61.9516 41.9126 62.1973C41.7011 62.2876 41.4488 62.2464 41.2292 62.2545C40.8874 62.2629 40.5457 62.2874 40.1959 62.2794C39.8704 62.2709 39.5448 62.2301 39.2194 62.2136C39.016 62.2054 38.7557 62.2218 38.5766 62.0989C38.0884 61.7794 38.4465 61.1323 38.6011 60.7145C38.7769 60.2772 38.978 59.8506 39.2031 59.4366C39.3496 59.1498 39.5774 58.5518 39.9191 58.4372C40.318 58.2983 40.619 58.9699 40.7899 59.2239ZM58.4378 52.9654C59.2262 53.9102 59.9441 54.9123 60.5859 55.9636C60.9034 56.4717 61.2126 56.9876 61.5218 57.5035C61.725 57.8394 61.8796 58.2736 62.1239 58.5767C62.6853 59.273 62.8397 57.7493 62.9293 57.4215C63.2385 56.2011 63.6127 54.9969 63.9544 53.7847H63.6127C62.2376 53.7847 60.9114 53.7599 59.5771 53.3586C59.1866 53.2438 58.8447 52.99 58.4378 52.9654ZM55.5333 53.2029C55.9727 53.5307 58.7552 55.4312 57.5837 56.1602C57.3395 56.3158 56.9408 56.2421 56.6724 56.2667C56.3224 56.2913 55.9644 56.3322 55.6146 56.3895C55.167 56.4716 54.7276 56.6104 54.2801 56.6844C53.9223 56.7417 53.4421 56.8073 53.1248 56.5862C52.5959 56.2176 52.9133 55.4886 53.0922 55.0134C53.3445 54.3415 53.5723 53.4405 54.1907 53.0473C54.3372 52.9571 54.5081 52.6211 54.6626 52.5885C54.8985 52.5396 55.3542 53.072 55.5333 53.2029ZM70.911 37.426C70.6995 37.5898 70.6916 37.9257 70.6345 38.1632C70.4473 38.9578 70.1951 39.736 70.0405 40.5469C69.8903 41.3237 69.8492 42.1179 69.9186 42.9061C69.9673 43.4385 69.9755 44.0939 70.2928 44.5444C70.6753 45.085 71.44 45.0603 72.0179 45.2161C72.571 45.3719 73.1243 45.847 72.5141 46.3465C72.3024 46.5269 72.0179 46.5513 71.8063 46.7234C71.5458 46.9364 71.3911 47.3133 71.2854 47.6164C71.1959 47.8704 71.1959 47.9194 71.4727 48.0095C71.5952 48.0531 71.7251 48.0725 71.855 48.0667C72.156 48.0421 72.4247 47.8457 72.6687 47.6899C73.3116 47.305 74.0439 46.7971 74.8086 46.7398C75.0528 46.7234 75.3295 46.8218 75.5654 46.7398C75.785 46.6662 75.72 46.6169 75.7606 46.4122C75.9152 45.5929 75.9721 44.7902 76.3873 44.0449C76.5905 43.6762 77.1359 42.9307 77.5018 43.496C77.6566 43.7336 77.7052 43.8482 78.0472 43.7745C78.3237 43.7172 78.6248 43.496 78.5679 43.1767C78.519 42.8735 78.1205 42.6687 77.8843 42.5377C77.567 42.3657 77.3474 42.3819 76.9975 42.341C76.0456 42.2263 76.7129 40.8338 76.8509 40.3096C76.9406 39.9819 77.0382 39.5561 76.8104 39.2611C76.4687 38.8106 75.7201 38.958 75.2482 39.0235C74.5973 39.1137 73.8895 39.1628 73.2792 38.8597C72.6364 38.5483 72.3596 37.8358 71.7578 37.4916C71.5376 37.3768 71.1472 37.254 70.911 37.426ZM73.7426 43.1929C74.1903 43.1847 73.9705 43.8318 73.8484 44.0449C73.5881 44.5035 73.0346 44.6757 72.5466 44.5118C72.1641 44.3806 71.7494 43.791 72.3513 43.6927C72.6441 43.6434 72.9289 43.6681 73.1975 43.5289C73.3604 43.4467 73.5637 43.2011 73.7426 43.1929ZM72.6198 39.777C72.8966 39.949 72.4245 41.0384 72.3431 41.2515C72.2127 41.612 72.0989 41.8412 72.4245 42.1197C72.6521 42.3164 73.1079 42.4803 72.8964 42.8652C72.6931 43.2174 72.0093 43.07 71.7248 42.8978C71.3179 42.6438 71.4399 42.1607 71.5294 41.7675C71.5863 41.4973 72.1234 39.4739 72.6198 39.777ZM28.7641 32.6339C29.6192 33.0141 30.5036 33.3237 31.4085 33.5596C32.2059 33.7563 32.987 33.9611 33.8006 33.9201C34.5573 33.8791 34.6468 34.6246 34.2155 35.1488C33.9795 35.4275 33.7111 35.4275 33.3692 35.4355C32.9706 35.4519 32.6043 35.5584 32.2139 35.6566C31.628 35.8123 31.0259 35.9353 30.4564 36.1564C30.1606 36.2657 29.877 36.4058 29.6101 36.5741C29.4474 36.6888 29.073 36.8854 29.2684 37.0411C29.5532 37.2622 30.3832 36.9591 30.7248 36.9347C31.5059 36.8854 32.287 36.8199 33.0601 36.7217C33.4425 36.6725 33.8493 36.6234 34.2074 36.4842C34.4434 36.3941 34.7037 36.1646 34.9722 36.2221C35.5337 36.3448 35.257 37.1887 34.9966 37.4672C34.6141 37.8767 34.0446 38.0569 33.5483 38.2945C33.2065 38.4584 32.8648 38.6304 32.5312 38.8106C32.3766 38.9007 31.6444 39.2201 31.6689 39.466C31.6933 39.7199 32.2709 39.5971 32.4174 39.5724C33.3693 39.4168 34.2318 39.0483 35.1106 38.6633C35.4931 38.4994 35.8917 38.3356 36.2659 38.1553C36.5263 38.0242 36.7866 37.8276 37.0797 37.7702C37.7631 37.6309 37.7387 38.4009 38.0073 38.8188C38.8129 40.0556 40.3667 40.5881 41.571 41.3089C42.0269 41.5827 42.4647 41.8865 42.8811 42.2182C43.182 42.4475 43.3041 42.7751 43.6377 42.4639C43.9144 42.2099 44.0526 41.8331 44.2317 41.5055C44.4432 41.1287 44.7199 40.7929 44.9314 40.4161C45.2487 39.859 45.3381 39.3266 44.6466 39.1219C43.9223 38.9089 43.3447 38.5895 42.7265 38.1307C41.213 37.0083 39.9519 35.5749 38.4385 34.4444C37.039 33.3959 35.5501 32.4129 33.7926 32.1342C32.149 31.8639 30.3182 31.9295 28.7641 32.6339ZM74.1982 40.6945C74.1657 41.0058 74.0844 41.6611 73.6613 41.6855C73.1404 41.7184 73.4904 40.1292 73.7834 39.9572C74.2551 39.6705 74.231 40.4323 74.1982 40.6945ZM69.3815 40.5715C68.7387 40.6289 68.5514 41.3417 69.1944 41.5873L69.3815 40.5715ZM71.7819 39.9409C71.7003 40.2603 71.725 40.7846 71.4727 41.0304C71.1066 41.3827 70.9518 40.8665 70.9518 40.5716C70.9518 40.285 71.0983 39.5561 71.4805 39.5232C71.8063 39.4903 71.5376 39.8752 71.7819 39.9409ZM78.7547 32.7486C78.5187 33.2401 78.771 33.7316 78.9176 34.2149C78.6245 34.3049 78.2339 34.2395 78.0632 34.5424C77.9492 34.7391 77.9735 35.0339 78.0063 35.2388C78.0305 35.4108 78.177 35.6484 78.0551 35.8041C77.9005 36.017 77.5181 35.9188 77.3552 36.1481C77.0951 36.5003 77.2414 37.3114 77.5994 37.5818C78.104 37.9586 77.8028 37.0329 77.7704 36.869C77.689 36.4514 78.1282 36.5086 78.4213 36.3366C78.576 36.2465 78.6086 36.2302 78.6409 36.0337C78.6691 35.8618 78.6608 35.686 78.6164 35.5175C78.4699 34.8622 78.7224 34.9687 79.2431 34.8213C79.6906 34.6982 79.6499 34.338 79.5361 33.9612C79.4464 33.6663 79.1862 33.183 79.4708 32.9291C79.5848 32.8308 79.7556 32.8964 79.78 32.6833C79.7964 32.5442 79.609 32.3147 79.5115 32.2329C79.1696 31.9622 78.8931 32.4537 78.7547 32.7486Z" fill="black"/>
<path d="M54.5453 27.7282C54.5854 27.2176 54.6241 26.7067 54.6656 26.1962C54.9713 22.45 55.2969 18.7051 55.5737 14.9568C55.6893 13.3912 56.5692 12.3717 58.1039 12.4733C60.6409 12.6416 63.1776 12.8832 65.6958 13.2315C67.5204 13.4838 68.1924 14.4433 68.1032 16.336C67.9461 19.6766 67.6638 23.0142 67.613 26.3558C67.5771 28.7154 67.8393 31.0792 67.9634 33.4414C68.0786 35.6397 66.7974 36.5779 64.7567 36.5398C63.7385 36.5205 63.4455 36.8122 63.8215 37.7743C64.1281 38.56 64.6062 39.2772 64.9924 40.033C65.0846 40.2132 65.1137 40.4266 65.1718 40.6244C64.9504 40.681 64.689 40.8434 64.5151 40.7761C63.8257 40.5098 63.0796 40.2807 62.5107 39.8355C61.602 39.1246 60.9543 38.1536 60.6523 37.0103C60.4373 36.1977 59.9603 35.8363 59.1312 35.8605C58.5745 35.8768 58.016 35.8244 57.4583 35.8013C56.3219 35.7544 55.6997 35.3678 55.4767 34.2414C55.052 32.0935 54.7528 29.9209 54.4014 27.7583C54.4497 27.748 54.4972 27.738 54.5453 27.7282ZM63.4896 38.8834C63.2977 38.3624 63.0845 37.8277 63.0259 37.2829C62.8763 35.895 63.2897 35.5442 64.6188 35.7983C64.9242 35.8566 65.2483 35.9322 65.5473 35.8881C66.7051 35.7162 67.0558 35.3147 67.0802 34.0783C67.111 32.5151 67.1025 30.951 67.0894 29.3875C67.0674 26.7746 66.9863 24.1614 67.0107 21.549C67.0279 19.7207 67.1738 17.8933 67.2725 16.0661C67.3497 14.6361 66.7504 13.9208 65.3456 13.7736C63.1756 13.5464 61.0062 13.3089 58.8362 13.0823C58.5231 13.0494 58.2059 13.0312 57.8917 13.0405C57.0214 13.0664 56.6239 13.3469 56.4879 14.216C56.2244 15.9011 55.914 17.5923 55.8368 19.2909C55.6705 22.9439 54.9209 26.5716 55.2901 30.2444C55.4216 31.5501 55.6955 32.8439 55.9513 34.1338C56.085 34.8093 56.5648 35.1609 57.2532 35.2024C58.1006 35.2536 58.9481 35.3405 59.7955 35.341C60.3642 35.3413 60.7048 35.5555 60.9097 36.076C61.1597 36.7107 61.4299 37.3377 61.708 37.9604C62.1633 38.9782 62.922 39.6592 64.0314 39.9673C63.8478 39.6067 63.6282 39.2603 63.4896 38.8834Z" fill="black" stroke="black" stroke-width="3.34555" stroke-miterlimit="10"/>
<path d="M61.7078 37.9603C61.4297 37.3376 61.1595 36.7106 60.9096 36.0759C60.7046 35.5554 60.3641 35.3412 59.7953 35.3409C58.9479 35.3405 58.1004 35.2535 57.2532 35.2023C56.5646 35.1608 56.0848 34.8092 55.9511 34.1337C55.6953 32.8439 55.4214 31.5501 55.2899 30.2443C54.9208 26.5715 55.6703 22.9438 55.8366 19.2908C55.9139 17.5922 56.2244 15.901 56.4878 14.2159C56.6239 13.3468 57.0214 13.0663 57.8916 13.0405C58.2059 13.0311 58.523 13.0493 58.8362 13.0822C61.0061 13.3088 63.1755 13.5463 65.3455 13.7735C66.7504 13.9207 67.3497 14.636 67.2724 16.066C67.1738 17.8932 67.0279 19.7206 67.0106 21.549C66.9862 24.1612 67.0674 26.7745 67.0894 29.3875C67.1024 30.951 67.111 32.515 67.0801 34.0782C67.0558 35.3146 66.7051 35.7161 65.5472 35.888C65.2482 35.9321 64.9242 35.8565 64.6188 35.7982C63.2896 35.5441 62.8763 35.8949 63.0258 37.2828C63.0844 37.8277 63.2976 38.3623 63.4895 38.8833C63.6283 39.2601 63.848 39.6065 64.0315 39.9667C62.922 39.659 62.1633 38.978 61.7078 37.9603Z" fill="white"/>
<path d="M85.6249 69.7368C86.5923 70.1137 87.622 70.2603 88.5997 70.6059C89.4731 70.92 90.2846 71.3386 91.1476 71.653C91.1997 71.255 91.2206 70.5742 91.075 70.1868C90.867 69.653 90.3157 69.6318 89.775 69.4433C88.454 68.9826 87.0708 68.878 85.7603 68.3336C85.9995 68.7733 85.8955 69.3493 85.6249 69.7368ZM102.369 68.3338C100.279 68.3964 98.2715 68.8889 96.2123 69.1923C95.2036 69.3389 94.2051 69.4751 93.196 69.6112C92.8113 69.6634 92.104 69.6008 91.8233 69.9358C91.5944 70.2186 91.8439 71.1713 91.74 71.5794C92.1666 71.6112 92.9153 71.213 93.3726 71.1503C94.0903 71.0456 94.7974 70.9094 95.515 70.857C96.6591 70.7839 97.7823 70.7209 98.9262 70.5953C100.091 70.4695 101.214 70.2183 102.39 70.1345C102.962 70.0924 103.191 70.1973 103.222 69.5901C103.232 69.3493 103.263 68.9619 103.201 68.7211C103.305 68.4383 103.211 68.2919 102.92 68.3023C102.736 68.2817 102.55 68.2923 102.369 68.3338ZM98.3236 66.3968C98.8852 66.3445 99.4573 66.2709 100.029 66.2291C100.143 66.2187 100.726 66.2607 100.82 66.1453C100.955 65.9882 100.809 65.4333 100.778 65.266C100.695 64.6797 100.601 64.3342 99.9668 64.3342C99.4262 64.3342 98.8748 64.4492 98.3444 64.5018C95.9212 64.7425 93.5084 64.8472 91.1059 65.2977C91.2516 65.9259 91.4179 66.5751 91.2412 67.2139C92.3956 67.2764 93.6541 67.0463 94.7773 66.8264C95.9492 66.6088 97.1339 66.4655 98.3236 66.3968ZM94.4756 60.5018C93.6126 60.5018 92.6972 60.8891 91.8338 60.8054C91.8236 60.9623 92.0937 60.8368 92.1668 60.9834C92.3332 60.9834 92.3852 61.0357 92.3332 61.1406C92.3406 61.2021 92.2969 61.258 92.2356 61.2653C92.23 61.266 92.2244 61.2663 92.2188 61.2662C92.1773 61.2662 92.1459 61.2766 92.1046 61.2766C91.9381 61.2869 91.9071 61.3915 92.0215 61.6116C91.9693 61.8838 92.0421 62.2294 92.0527 62.5017C93.5918 62.2923 95.0791 62.0723 96.6287 61.9781C97.3564 61.9361 98.0951 61.9361 98.8229 61.8733C99.6238 61.8108 100.508 61.9469 101.288 61.8C101.704 61.7163 101.662 61.7266 101.631 61.1719C101.61 60.8368 101.621 60.439 101.35 60.1981C100.903 59.7897 99.8733 60.0306 99.3323 60.0413C97.7054 60.0911 96.0832 60.2449 94.4756 60.5018ZM95.3701 68.3547C97.6893 68.1452 99.9983 67.6741 102.338 67.6741C102.172 67.5064 101.818 67.4648 101.61 67.3706C101.371 67.2657 101.152 67.0459 100.924 66.9622C100.466 66.7841 99.9983 67.0356 99.5198 67.1401C98.3862 67.4017 97.211 67.4125 96.0773 67.6741C94.8969 67.9538 93.7029 68.1707 92.4999 68.3233C91.9277 68.3863 91.3142 68.5223 90.7525 68.3652C90.7108 68.3339 90.6587 68.3027 90.6172 68.2711C90.5651 68.0619 90.43 67.9988 90.2012 68.1035C89.9203 68.051 89.5562 68.1242 89.2651 68.1242C89.2547 68.2392 90.3156 68.6058 90.5129 68.6898C91.0018 68.9096 91.3346 69.0667 91.8547 68.9724C93.0299 68.7524 94.1845 68.5013 95.3701 68.3547ZM87.1955 61.5173C87.2891 61.8731 87.6636 61.7163 87.9962 61.7478C88.4331 61.8 88.8698 61.9572 89.3068 62.0723C90.0763 62.2817 90.8565 62.4911 91.6262 62.7111C91.5948 62.3967 91.6677 61.685 91.5011 61.4023C91.3242 61.1091 90.5131 60.9834 90.1283 60.8891C89.1716 60.6693 88.1418 60.7948 87.1645 60.8368C87.1748 61.0672 87.1851 61.287 87.1955 61.5173ZM96.4308 63.7476C97.3458 63.6743 98.2612 63.6114 99.1659 63.5801C100.216 63.538 99.4469 63.3705 99.4258 62.7319C98.053 62.9519 96.6597 62.9935 95.2971 63.182C94.1633 63.3389 92.8116 63.7473 91.6466 63.5274C91.0954 63.4227 90.5443 63.3808 89.9617 63.3285C89.4104 63.2761 88.9008 63.0141 88.3497 62.9516C87.7464 62.8781 87.1224 63.2239 86.519 63.3182C86.2592 63.3601 86.2069 63.5274 86.0824 63.2239C85.9574 62.8992 86.3112 62.6376 86.4569 62.4491C86.6233 62.2291 86.5506 62.5851 86.6439 62.2398C86.6645 62.1456 86.6023 61.8944 86.5922 61.7897C86.5608 61.5173 86.4777 61.2347 86.467 60.9626C86.4569 60.7216 86.4569 60.3447 86.7167 60.1981C86.8832 60.1143 86.9975 60.2403 87.1328 60.2085C88.296 60.0132 89.4827 60.006 90.6479 60.1879C91.8544 60.3866 92.9048 59.8528 94.0905 59.6434C95.4945 59.3922 96.9088 59.3502 98.313 59.2456C99.519 59.1513 101.724 58.6802 102.182 60.23C102.317 60.6698 102.504 61.8844 102.151 62.2507C101.693 62.7427 100.622 62.5857 100.029 62.7117C100.123 62.9627 100.382 63.1408 100.289 63.4443C101.121 63.4864 101.267 64.2715 101.402 65.015C101.537 65.7794 101.277 66.0828 101.994 66.481C103.003 67.036 104.075 67.6011 104.064 68.9206C104.054 69.5802 103.981 70.5853 103.305 70.9309C102.639 71.2659 101.558 71.2135 100.83 71.3285C99.4155 71.5694 97.9907 71.8416 96.5659 71.9884C95.0474 72.1348 93.5083 72.2607 91.9899 72.3338C91.1578 72.3759 90.451 72.5014 89.6501 72.2188C88.8594 71.9463 88.1002 71.7372 87.2891 71.5382C86.4882 71.3393 84.0338 71.0671 84.7516 69.6849C84.8658 69.4648 85.2612 69.287 85.3237 69.0776C85.4276 68.7426 85.0843 68.4808 85.0949 68.1769C85.1261 67.622 85.7397 67.5489 86.1763 67.5489C85.4378 67.0879 86.426 66.5334 86.4157 66.1351C86.4052 65.4443 85.5421 64.994 85.5005 64.4077C85.3861 62.994 89.8477 64.4703 90.5341 64.7741C90.0039 65.5593 87.5492 64.8787 86.8214 64.7638C86.9321 65.0105 87.009 65.2713 87.0501 65.5387C87.0709 65.7585 86.9879 66.0097 87.0708 66.2295C87.1957 66.575 87.1851 66.5122 87.6116 66.6064C87.9237 66.68 88.2354 66.7635 88.5581 66.8369C89.0467 66.9519 89.806 67.256 90.2843 67.2454C90.7002 67.235 90.6171 67.3604 90.7002 66.8895C90.742 66.6383 90.6691 66.366 90.6274 66.1251C90.5442 65.6016 90.4089 65.12 90.8562 64.743C91.2826 64.3872 92.1874 64.2194 92.7178 64.0937C93.8827 63.7999 95.2348 63.7268 96.4308 63.7476Z" fill="black"/>
<path d="M101.995 54.895C100.726 54.6928 99.4399 54.6264 98.1575 54.6962C98.2302 55.0209 98.2926 55.3347 98.3652 55.6594C99.5613 55.3452 100.778 55.1568 101.995 54.895ZM91.6781 57.3766C91.1685 57.3347 91.5221 57.565 91.6467 57.9001C91.8027 58.3086 91.7717 58.832 91.8027 59.2613C93.2899 58.6854 95.0267 58.3503 96.6074 58.1617C97.3563 58.0676 98.1154 58.047 98.8748 58.005C99.0935 57.9945 99.9044 58.0888 100.071 57.9314C100.196 57.8164 100.102 57.1985 99.9874 57.0625C99.3532 56.3191 96.909 56.9578 96.0249 57.031C94.5591 57.1463 93.1341 57.4079 91.6781 57.3766ZM93.7893 55.3871C95.1101 55.513 96.379 55.5022 97.6997 55.7013C97.5957 54.853 97.7202 54.6439 96.7637 54.602C95.9211 54.56 95.0682 54.5284 94.2261 54.5284C92.3332 54.5284 90.4403 54.4971 88.5371 54.4971V55.3558C90.3052 55.1672 92.0317 55.4918 93.7893 55.3871ZM87.4556 58.5388C88.2877 58.5388 89.0779 58.853 89.9102 58.9364C90.4095 58.9889 90.2532 59.0517 90.5965 59.303C91.1372 59.6904 91.2933 59.4812 91.2205 58.9577C90.9914 57.1565 88.7242 57.5548 87.4243 57.4606C87.5077 57.8898 87.3101 58.2561 87.0187 58.5494H87.4553L87.4556 58.5388ZM96.4415 56.2247C95.2452 56.2456 94.0493 56.3085 92.8637 56.2875C92.3333 56.2771 91.6467 56.1724 91.1267 56.2666C90.7419 56.3294 90.4298 56.5282 90.0036 56.6018C90.6171 56.9368 90.9292 56.7063 91.5738 56.6332C92.2187 56.5599 92.8738 56.5599 93.5289 56.5182C94.5897 56.4554 95.7335 56.1934 96.7843 56.2669C96.7951 56.1097 96.6804 56.099 96.4415 56.2247ZM86.9563 60.1198C86.4052 60.1198 87.1643 59.4917 87.258 59.4289C86.6547 59.4289 86.4988 59.0623 86.6756 58.4761C86.8421 57.9211 86.9667 58.0888 86.5508 57.6279C86.2386 57.2826 86.1867 57.0204 86.5611 56.6332C86.9354 56.2354 87.7049 56.3504 88.0378 56.0259C88.6098 55.4709 87.8713 54.3609 88.6618 53.9318C89.1922 53.6386 90.0553 53.6804 90.6379 53.6174C91.2118 53.5617 91.788 53.5373 92.3642 53.5439C93.6123 53.5232 94.9018 53.7326 96.1499 53.8582C96.6076 53.9001 97.1067 54.0886 97.5541 54.0886C98.0117 54.0886 98.4901 53.984 98.9582 53.9943C99.4988 54.0048 100.03 53.963 100.591 54.0571C101.017 54.1306 102.026 54.1618 102.359 54.4864C103.461 55.5652 100.851 56.0571 100.404 56.1721C100.861 56.6749 100.84 57.3448 100.768 57.9731C100.986 57.9731 101.36 57.8788 101.475 58.1197C101.61 58.4232 101.1 58.5072 100.976 58.5386C100.269 58.7478 99.4469 58.6851 98.7293 58.7586C97.2838 58.9052 95.8484 58.9891 94.4133 59.2717C93.7163 59.4079 93.0198 59.5752 92.3227 59.701C92.1979 59.722 92.0837 59.7429 91.9588 59.7533C91.7716 59.7324 91.7092 59.858 91.7819 60.1092C91.5845 60.2033 90.8668 59.9627 90.6379 59.9311C89.359 59.7323 88.2251 59.8164 86.9563 60.1198Z" fill="black"/>
<path d="M112.769 72.6158C111.948 73.2652 111.178 73.8828 110.284 74.4481C110.918 74.4377 113.019 73.4223 112.769 72.6158ZM112.447 71.5479C112 71.1604 111.552 71.2025 110.991 71.0767C110.481 70.972 109.982 70.7836 109.472 70.6578C109.067 70.5634 108.672 70.4273 108.276 70.3331C107.715 70.2073 107.652 70.3435 107.132 70.6475C105.291 71.7048 103.222 72.4379 101.287 73.2962C101.859 73.799 103.139 73.8198 103.856 73.9873C104.371 74.1088 104.879 74.2627 105.375 74.448C105.843 74.6259 106.581 75.0238 107.08 75.0343C107.496 75.0447 107.829 74.6365 108.183 74.4166C108.651 74.1233 109.119 73.8405 109.587 73.5579C110.564 72.9614 111.5 72.2285 112.447 71.5479ZM104.116 75.8407C103.908 75.6313 103.263 75.6419 102.993 75.5791C102.463 75.4534 101.953 75.3279 101.412 75.2338C100.549 75.0872 99.1866 75.0135 99.0931 73.883C99.0097 72.9406 100.143 72.7208 100.799 72.4067C101.787 71.9252 102.795 71.4852 103.815 71.0666C104.772 70.6686 105.728 70.3336 106.706 69.9986C106.893 69.9359 107.049 69.9462 107.205 69.7894C107.33 69.6742 107.289 69.4335 107.424 69.3076C107.725 69.025 108.131 69.1715 108.495 69.245C109.345 69.4063 110.181 69.6409 110.991 69.9464C111.813 70.2711 112.562 70.3339 112.759 71.2765C113.186 71.0776 113.498 71.046 113.445 71.6323C113.435 71.7999 113.31 71.9882 113.279 72.1661C113.237 72.4277 113.31 72.7 113.269 72.9619C113.113 73.9149 111.834 74.6268 111.043 75.0038C110.065 75.4647 108.807 76.1452 107.715 76.2394C106.539 76.3434 105.271 75.8826 104.116 75.8407Z" fill="black"/>
<path d="M100.341 66.1667C100.518 66.1565 100.684 66.1352 100.861 66.1248C100.695 66.2295 100.508 66.1564 100.341 66.1667Z" fill="black"/>
<path d="M101.381 61.7368C101.485 61.7368 101.589 61.7368 101.693 61.7262C101.601 61.7922 101.478 61.7962 101.381 61.7368Z" fill="black"/>
<path d="M101.173 70.1568C101.308 70.1462 101.454 70.1252 101.589 70.1147C101.443 70.1253 101.308 70.1358 101.173 70.1568Z" fill="black"/>
</svg>
