<svg width="87" height="71" viewBox="0 0 87 71" fill="none" xmlns="http://www.w3.org/2000/svg">
<path fill-rule="evenodd" clip-rule="evenodd" d="M80.6916 40.2707C80.5703 41.3131 80.4562 42.3566 80.3238 43.3979C80.2818 43.7269 80.2473 44.0664 80.0519 44.3555C79.876 44.6167 79.6398 44.7575 79.3076 44.6833C78.9777 44.6095 78.9119 44.3458 78.8981 44.0799C78.8871 43.8687 78.9317 43.6527 78.9676 43.4413C79.3479 41.1964 79.4193 38.9336 79.4067 36.6637C79.404 36.1933 79.3167 35.9984 78.7945 36.161C78.3207 36.3085 77.8355 36.2588 77.3527 36.1226C76.9745 36.016 76.7194 35.8015 76.7525 35.4241C76.7825 35.0794 77.0064 34.8367 77.3974 34.7637C78.6673 34.5271 79.9444 34.3073 81.1497 33.8277C82.1405 33.4331 83.1278 33.0274 84.1028 32.5968C85.4256 32.0125 85.5765 32.0765 85.8059 33.4298C85.6599 33.8439 85.7989 34.3149 85.5384 34.7059C85.1369 34.6508 84.693 34.7682 84.3615 34.4291C84.2682 34.3263 84.1549 34.3136 84.0318 34.3646C83.0423 34.7743 82.075 35.2336 81.0488 35.5607C80.7836 35.6451 80.6124 35.8741 80.6672 36.2323C80.8727 37.575 80.7417 38.9239 80.6916 40.2707Z" fill="black"/>
<path fill-rule="evenodd" clip-rule="evenodd" d="M85.0056 38.0693C85.0056 38.0693 85.0287 38.1177 85.0287 38.118C84.7195 38.3587 84.8407 38.6444 84.9403 38.9274C84.9544 38.9679 84.9612 39.0094 84.9603 39.0518C84.8139 39.3573 84.6967 39.6595 85.052 39.914C85.4202 41.2095 85.4592 41.2421 86.4961 41.1251C86.9845 41.2591 87.0432 41.6236 86.9793 42.031C86.9086 42.4832 86.6221 42.7525 86.1671 42.8456C85.2376 43.0358 84.6783 42.7334 84.0497 41.7043C83.7173 40.6547 83.5594 39.5898 83.7529 38.4939C84.0828 38.3548 84.0397 38.9205 84.3521 38.8185C84.4799 38.4561 84.1089 38.2605 84.0722 37.8758C84.402 37.9474 84.7619 37.5537 85.0056 38.0693Z" fill="black"/>
<path fill-rule="evenodd" clip-rule="evenodd" d="M85.0057 38.0696C84.762 37.5539 84.402 37.9477 84.0722 37.8759C84.1088 38.2607 84.48 38.4563 84.3521 38.8186C84.0397 38.9206 84.0828 38.355 83.7529 38.494C83.7378 37.1077 84.1123 35.7774 84.3615 34.429C84.6931 34.768 85.1369 34.6507 85.5383 34.7057C85.5368 35.8538 85.2124 36.9526 85.0057 38.0696Z" fill="black"/>
<path fill-rule="evenodd" clip-rule="evenodd" d="M85.0518 39.9132C84.6967 39.6587 84.8139 39.3565 84.9601 39.051C85.0966 39.3275 85.0642 39.6215 85.0518 39.9132Z" fill="black"/>
<path fill-rule="evenodd" clip-rule="evenodd" d="M84.9406 38.9269C84.841 38.6438 84.7199 38.3581 85.029 38.1174C85.0599 38.3933 85.1532 38.6762 84.9406 38.9269Z" fill="black"/>
<path fill-rule="evenodd" clip-rule="evenodd" d="M18.545 15.9272C17.7657 16.7432 17.2663 17.7609 16.5289 18.6071C16.4485 18.4842 16.3231 18.4028 16.1933 18.4739C15.8019 18.6878 15.6347 18.4065 15.438 18.176C16.1009 17.051 17.0252 16.0928 17.6092 14.917C17.9129 14.7816 17.9999 14.4637 18.2007 14.2416C18.4475 13.9689 18.7224 13.7097 19.0984 13.9586C19.5041 14.2271 19.3702 14.6004 19.1636 14.9347C18.9588 15.2663 18.6701 15.5475 18.545 15.9272Z" fill="black"/>
<path fill-rule="evenodd" clip-rule="evenodd" d="M14.2373 21.7386C14.1473 21.9028 14.0571 22.0668 13.9671 22.2308C13.7463 22.5011 13.5366 22.7815 13.3007 23.0388C13.0874 23.2713 12.8296 23.6875 12.529 23.5034C12.1583 23.2766 12.5023 22.8784 12.6175 22.5779C12.7486 22.2363 12.944 21.9181 13.1115 21.5898C13.3011 21.325 13.4907 21.06 13.6804 20.7949C14.2218 20.9086 13.9964 21.4554 14.2373 21.7386Z" fill="black"/>
<path fill-rule="evenodd" clip-rule="evenodd" d="M14.2377 21.7431C13.9968 21.46 14.2221 20.9131 13.681 20.7995C14.1687 19.8632 14.8172 19.0305 15.4381 18.1798C15.6348 18.4104 15.802 18.6916 16.1934 18.4777C16.3231 18.4066 16.4486 18.488 16.5289 18.6109C15.7985 19.6785 15.1488 20.8024 14.2377 21.7431Z" fill="black"/>
<path fill-rule="evenodd" clip-rule="evenodd" d="M14.2609 16.9094C14.2546 16.9957 14.2592 17.1277 14.2333 17.2536C14.1321 17.7456 13.5992 18.1525 13.1166 18.0713C12.567 17.9787 12.4541 17.5687 12.4677 17.0979C12.4714 16.9684 12.475 16.8365 12.5005 16.71C12.6194 16.1246 13.0558 15.721 13.5211 15.7999C14.1261 15.9024 14.2542 16.3493 14.2609 16.9094Z" fill="black"/>
<path fill-rule="evenodd" clip-rule="evenodd" d="M17.4316 19.6073C17.604 19.1009 17.7969 18.6174 18.451 18.5523C18.8895 18.5087 19.07 18.8304 19.1457 19.1251C19.2935 19.7004 19.1954 20.2535 18.6642 20.644C18.5792 20.7064 18.4657 20.7315 18.3656 20.7739C18.1684 20.5848 17.9244 20.684 17.6989 20.6706L17.7012 20.6715C17.6546 20.6261 17.6081 20.5809 17.5615 20.5354L17.5643 20.5378C17.5251 20.2269 17.696 19.8874 17.4316 19.6073Z" fill="black"/>
<path fill-rule="evenodd" clip-rule="evenodd" d="M17.4315 19.6107C17.6959 19.8908 17.5249 20.2303 17.564 20.5412C17.2978 20.2613 17.4107 19.9297 17.4315 19.6107Z" fill="#43403D"/>
<path fill-rule="evenodd" clip-rule="evenodd" d="M17.6989 20.6767C17.9245 20.6902 18.1684 20.5909 18.3655 20.78C18.1362 20.7888 17.8858 20.9286 17.6989 20.6767Z" fill="black"/>
<path fill-rule="evenodd" clip-rule="evenodd" d="M17.5612 20.5374C17.6076 20.583 17.6538 20.6283 17.7002 20.6738C17.6081 20.6737 17.562 20.6281 17.5612 20.5374Z" fill="#43403D"/>
<path fill-rule="evenodd" clip-rule="evenodd" d="M61.1852 44.1725C60.9443 45.1122 60.737 46.0612 60.452 46.9878C60.2617 47.6058 60.424 47.86 61.0762 47.9664C61.8468 48.0916 62.5997 48.3207 63.36 48.5059C63.8769 48.6313 64.511 48.6767 64.3392 49.4468C64.1934 50.1007 63.7739 50.5111 63.0416 50.5211C62.2445 50.5318 61.4861 50.3172 60.7466 50.0729C60.0359 49.8381 59.6575 50.0172 59.4982 50.7401C59.3307 51.4977 59.0124 52.2023 58.4867 52.7911C58.2401 53.0671 57.9135 53.299 57.5075 53.1202C57.1438 52.9598 57.1801 52.617 57.1795 52.2836C57.1782 51.7553 57.1687 51.2208 57.414 50.745C58.0203 49.5691 57.4434 49.1885 56.3328 49.075C55.7611 49.0161 55.1926 48.8916 54.636 48.7462C54.1486 48.6189 53.4561 48.6124 53.6263 47.8258C53.7645 47.1862 54.1529 46.6819 54.8949 46.7339C55.6723 46.7879 56.4725 46.8578 57.2069 47.0906C58.1461 47.3885 58.4567 47.03 58.6296 46.2034C58.8196 45.2962 59.1127 44.4102 59.5985 43.601C60.77 42.7668 60.8649 42.8013 61.1852 44.1725Z" fill="black"/>
<path fill-rule="evenodd" clip-rule="evenodd" d="M51.1814 54.1064C51.6116 53.2984 52.2287 53.0729 53.1324 53.3765C54.9318 53.9812 56.8069 54.2754 58.665 54.6545C59.955 54.9175 61.1876 55.5467 62.5273 55.7731C62.6975 55.8019 62.8176 56.1146 62.9606 56.2949C62.9314 56.8415 62.7408 57.2711 62.1253 57.3913C61.021 57.0511 59.9372 56.5773 58.8064 56.4121C57.8409 56.2705 56.8646 55.6556 55.8419 56.2221C55.6771 56.1855 55.5121 56.1484 55.347 56.112C55.1158 55.6683 54.8093 55.551 54.3946 55.9009C53.6812 56.0323 53.0702 55.6017 52.3898 55.5505C51.8244 55.1995 50.8944 55.1413 51.1814 54.1064Z" fill="black"/>
<path fill-rule="evenodd" clip-rule="evenodd" d="M60.6904 57.3173C59.1534 56.6165 57.4435 56.6491 55.8418 56.223C56.8645 55.6566 57.8408 56.2713 58.8063 56.4129C59.9371 56.5781 61.0209 57.0519 62.1252 57.3922C61.6253 57.7667 61.167 57.3784 60.6904 57.3173Z" fill="black"/>
<path fill-rule="evenodd" clip-rule="evenodd" d="M81.2622 70.642C80.9449 70.5713 80.6274 70.5012 80.3098 70.4309C80.7246 70.0808 81.0311 70.1983 81.2622 70.642Z" fill="black"/>
<path d="M60.3512 11.3095C60.3819 11.5396 60.6699 11.3615 60.7001 11.4877C60.7153 11.5694 60.4121 11.7625 60.3512 11.8144C60.5636 11.9407 60.8291 11.6511 60.9883 11.5323C61.0717 11.6216 61.0946 11.666 61.0263 11.7625C60.8974 11.9407 60.8974 11.7031 60.7455 11.8292C60.814 11.9332 60.867 11.8738 60.9504 11.844C60.9125 12.0518 60.9959 11.9183 61.0564 12.0518C61.1096 12.1558 61.1018 12.2375 61.117 12.3561C61.0413 12.527 60.9655 12.6902 60.8896 12.861C60.7987 13.0613 60.8291 13.1282 60.6088 13.0613C60.6318 13.0169 60.7987 12.8163 60.7836 12.7644C60.7684 12.705 60.5409 12.6308 60.4878 12.5788C60.3819 12.4969 60.3819 12.4229 60.3209 12.3264C60.3438 12.2447 60.3287 12.2003 60.2603 12.2076L60.1848 12.4081C60.1921 12.5491 60.3136 12.5343 60.382 12.6679C60.4879 12.8757 60.4274 12.7496 60.344 12.9128C60.2526 13.0762 60.2454 13.2766 60.1012 13.3583C60.1769 13.3881 60.2527 13.4252 60.3362 13.4548C60.1545 13.6479 60.5334 13.5513 60.594 13.5365C60.5334 13.6701 60.465 13.8037 60.4045 13.9298C60.215 13.8259 60.1238 13.6255 59.9949 13.4621L59.7069 13.9893C59.8054 13.9818 59.8963 13.9745 59.9949 13.9597C59.9798 13.9818 59.8586 14.1527 59.8661 14.1896C59.9115 14.3455 60.2375 14.2565 60.1998 14.4569C60.0932 14.5801 59.9764 14.6942 59.8509 14.7985C59.9949 14.8653 60.0633 14.8356 60.01 15.0064L59.8054 14.8875C59.7389 14.9844 59.6854 15.0891 59.6463 15.1993C59.6532 15.2707 59.6399 15.3424 59.6083 15.4072C59.5696 15.4664 59.5236 15.5212 59.472 15.5704C59.434 15.6744 59.419 16.2312 59.4642 16.3277C59.5703 16.1939 59.8129 16.4316 59.4037 16.4316C59.2294 16.4316 59.2367 16.3944 59.1689 16.5503C59.1157 16.6689 59.085 16.7729 59.2368 16.7878C59.1233 17.0032 59.146 17.1738 59.1386 17.4114C59.1215 17.6024 59.0857 17.7912 59.0323 17.9756C59.0703 17.9237 59.1006 17.8718 59.1386 17.8271C59.2367 18.0274 59.1611 18.1984 59.1157 18.4137C59.0172 18.2799 59.0019 18.5176 58.9185 18.4953C58.7441 18.4434 58.8731 18.4137 58.8047 18.295C58.7441 18.1985 58.7516 18.1686 58.6378 18.1094C58.4864 18.0276 58.2208 18.0276 58.0465 17.9979C57.7598 17.9583 57.4715 17.9336 57.1821 17.9237C56.0906 17.8792 55.006 17.8642 53.9145 17.9237C52.901 17.983 51.8926 18.1096 50.8968 18.3022C49.8505 18.5027 48.8271 18.6809 47.8109 19.0224C47.6137 19.0894 47.4166 19.2227 47.2194 19.2674C47.03 19.312 46.8479 19.312 46.651 19.3788C46.1885 19.5347 45.7032 19.6534 45.2407 19.8095C44.7403 19.9727 44.1944 20.1065 43.7092 20.3291C43.5044 20.4256 43.3148 20.5592 43.1027 20.6557C42.9055 20.7522 42.5796 20.8337 42.4735 21.0491C42.4407 21.1219 42.4379 21.2043 42.4659 21.2791C42.5189 21.4499 42.5567 21.4349 42.6933 21.4203C42.8827 21.4052 43.1329 21.2568 43.3148 21.2049C43.823 21.0491 44.3311 20.9227 44.8465 20.7966C45.7714 20.574 46.6963 20.1731 47.6063 20.0171C48.1447 19.928 48.6604 19.6755 49.2059 19.5793C49.3272 19.557 49.6684 19.3935 49.7669 19.4532C49.8106 19.532 49.8485 19.6139 49.8808 19.698C49.9624 19.8555 50.0564 20.0071 50.1614 20.1509C50.4876 20.5743 50.9196 20.9155 51.3138 21.2792C51.7611 21.6949 52.1478 22.1551 52.5573 22.6081C52.595 22.571 52.6256 22.5264 52.6633 22.4894C52.6256 22.7713 52.8452 22.9792 53.0195 23.1722C53.223 23.3908 53.4059 23.6267 53.5657 23.8775C53.7094 24.083 53.8636 24.2812 54.028 24.4714C54.1795 24.6643 54.278 24.8945 54.4221 25.1024C54.7408 25.5777 55.0517 26.0602 55.3778 26.5277C55.5268 26.7579 55.6588 26.9987 55.7717 27.248C55.8702 27.4483 56.1506 27.8565 56.1506 28.0423C56.1281 28.1388 56.3405 28.703 56.113 28.4356C56.075 28.4877 56.0447 28.5469 56.0069 28.5991C56.0675 28.5767 56.1281 28.5471 56.189 28.5247C56.0069 28.6883 56.3481 28.7104 56.3555 28.7994L56.2646 28.8887C56.2115 28.9926 56.1433 29.0075 56.0597 28.9332C55.9688 28.9405 55.946 28.8887 55.8477 28.9184C55.946 29.0666 56.0748 28.9776 56.1281 29.1855C56.1735 29.3711 56.0296 29.408 55.8854 29.5195L55.878 29.5269V29.5345C55.8476 29.631 55.7566 29.5866 55.6505 29.5714C55.4079 29.5195 55.1346 29.4304 54.8999 29.3562C54.3868 29.199 53.8651 29.0678 53.3379 28.9628C52.1324 28.7176 50.9269 28.7328 49.7139 28.6509C49.7443 28.5174 49.7443 28.5323 49.7063 28.4506C49.7518 28.5544 49.4637 28.4209 49.6834 28.6509C49.1147 28.7402 48.5083 28.6733 47.9321 28.703C47.9626 28.6436 48.0232 28.5768 47.9626 28.5323C47.6896 28.9184 46.7796 28.755 46.3324 28.807C46.067 28.8367 45.8093 28.9033 45.5436 28.9405L45.4299 28.9553C45.339 28.9701 45.2481 28.9853 45.1572 29.0075C45.0434 29.037 44.8463 29.1633 44.7401 29.1335C44.8994 28.8143 44.7174 29.0891 44.687 29.0963C44.5815 29.1147 44.4754 29.1271 44.3685 29.1335C44.4974 28.6436 44.7095 28.1833 44.7931 27.6786C44.8461 27.3593 44.998 26.8546 44.6793 26.6243C44.5049 26.4982 44.2169 26.4759 44.0122 26.4314C43.7922 26.3869 43.3981 26.3869 43.2085 26.268C43.0571 26.1715 43.0267 26.0824 42.8294 26.0082C42.602 25.9263 42.4958 25.8375 42.2684 25.9043C42.3595 25.793 42.4958 25.704 42.3063 25.585C42.2305 25.5406 42.0864 25.6 42.056 25.496C41.9195 25.5925 41.95 25.6667 41.912 25.793C41.9129 25.848 41.9286 25.9019 41.9575 25.9487C41.8818 25.9786 41.8134 26.0082 41.7378 26.038C41.7832 25.9191 41.6467 25.9861 41.6239 25.9266C41.5859 25.8375 41.6088 25.7038 41.6088 25.6073C41.4571 25.6519 41.3054 25.7112 41.2374 25.8597C41.0553 25.7557 41.1236 25.7481 41.2221 25.5849C41.0705 25.5478 41.0403 25.6295 41.01 25.7481C40.9265 25.7261 40.8507 25.6962 40.7673 25.6739C40.9491 25.6739 40.9948 25.533 40.9948 25.3845C40.9266 25.4067 40.8508 25.429 40.7825 25.4512L40.7371 25.6739C40.6233 25.7631 40.3354 25.5999 40.2444 25.5478C39.9183 25.3846 39.7972 25.3325 39.8427 24.9539C39.8804 24.6348 39.964 24.3153 39.9865 23.9963C40.0094 23.6399 39.964 23.2614 39.9335 22.905C39.8727 22.2221 39.7744 21.5466 39.7365 20.8561C39.7214 20.485 39.6986 20.1137 39.6835 19.7425C39.6682 19.4454 39.5698 19.1189 39.9412 19.0967C39.8956 18.9556 40.032 18.7848 40.1762 18.7109C40.2292 18.5993 40.2823 18.592 40.3431 18.681C40.3921 18.6963 40.4454 18.6881 40.4871 18.6587C40.6917 18.6144 40.942 18.3248 41.1316 18.2208C41.3136 18.117 41.7154 17.9686 41.8442 17.7977C41.9733 17.6342 41.7761 17.6492 41.8215 17.5007C41.8746 17.2929 42.0642 17.5897 42.0946 17.6342C42.1551 17.575 42.4054 17.4562 42.3978 17.3596C42.3372 17.3522 42.2767 17.3373 42.2159 17.33C42.2842 17.2929 42.4282 17.1814 42.5039 17.1666C42.6329 17.1444 42.5874 17.1072 42.6859 17.2483C42.7238 17.1964 42.8071 17.0107 42.8677 16.9735C42.9378 16.9568 43.0086 16.9445 43.0801 16.9364C43.2468 16.8771 43.2317 16.7509 43.3606 16.684C43.4213 16.6544 43.4973 16.699 43.5425 16.6767C43.6259 16.6394 43.6259 16.5207 43.6942 16.4837C43.7548 16.4463 43.9217 16.4761 43.9976 16.4538C44.1265 16.4093 44.1189 16.3648 44.2098 16.2831C44.3386 16.1643 44.4601 16.1866 44.6118 16.0976C44.7634 16.0084 44.7406 15.8005 44.877 15.7635C45.059 15.7116 45.112 15.8823 45.2106 15.7116C45.2334 15.6745 45.1273 15.6151 45.1955 15.5557C45.2714 15.4815 45.3093 15.5705 45.3472 15.6299L45.476 15.3997C45.6731 15.511 45.5898 15.3701 45.7491 15.2959C45.8173 15.2661 45.8702 15.3256 45.9464 15.2884C45.9994 15.2588 46.0069 15.1994 46.0523 15.1548C46.1282 15.0806 46.1736 14.9768 46.2874 14.9395C46.2419 14.9544 46.5906 14.9395 46.5603 14.9246C46.5299 14.8727 46.4919 14.8282 46.4618 14.7763C46.6437 14.7763 46.8029 14.7911 46.9774 14.7391C47.0525 14.7203 47.1242 14.6902 47.1896 14.6501C47.3336 14.5461 47.3034 14.5684 47.3034 14.3754C47.5078 14.4866 47.7613 14.463 47.9404 14.316C48.0289 14.2335 48.1224 14.1566 48.2211 14.0859C48.2663 14.0636 48.3195 14.0413 48.3649 14.0191C48.4026 13.9699 48.4739 13.9599 48.5239 13.9969C48.5327 14.0032 48.5403 14.0107 48.547 14.0191C48.638 13.9969 48.6304 13.982 48.6986 13.9375C48.7212 13.9004 48.7366 13.8633 48.7595 13.8262C48.8307 13.8179 48.9017 13.8056 48.9716 13.789C49.2443 13.7148 49.4112 13.5366 49.6689 13.6998C49.6995 13.6331 49.7373 13.5661 49.7675 13.507C49.8737 13.6702 49.9494 13.5143 50.0937 13.4474C50.1542 13.4177 50.2301 13.4103 50.2831 13.3881L50.3742 13.4103C50.3968 13.3285 50.4272 13.2545 50.45 13.1727C50.5031 13.1949 50.7077 13.2988 50.7761 13.2988C50.8672 13.2913 50.9734 13.1429 51.0568 13.1131C51.1855 13.0687 51.1401 13.1281 51.2689 13.1281C51.3674 13.1281 51.4128 13.1429 51.504 13.0612C51.2159 12.987 51.5798 12.9498 51.7013 12.9276C51.8907 12.8904 51.9893 12.9276 52.1257 12.7791H51.9893C52.1257 12.6603 52.0801 12.6974 52.2241 12.7123C52.2697 12.7123 52.4669 12.8237 52.4669 12.6826C52.649 12.7866 52.6566 12.7866 52.846 12.7421C52.9295 12.7198 53.0052 12.6531 53.0962 12.6531C53.1873 12.6531 53.2554 12.6902 53.3312 12.6827C53.424 12.6586 53.5153 12.629 53.6042 12.5937C53.6954 12.5641 53.756 12.4899 53.8391 12.4676C53.9377 12.4378 54.0592 12.4749 54.1578 12.4526C54.4536 12.3858 54.6353 12.2151 54.954 12.3042C54.9916 12.0222 55.3483 12.0815 55.5451 12.1112C55.6818 12.1334 55.75 12.1854 55.8863 12.1186C56.0001 12.0667 56.0683 11.985 56.19 11.9404C56.2988 11.9078 56.4107 11.883 56.5234 11.8662C56.5846 11.8478 56.649 11.8404 56.7127 11.8439C56.7765 11.851 56.8357 11.88 56.8797 11.9256L56.8872 11.9331C56.9319 11.8899 56.98 11.8501 57.0311 11.8143C57.145 11.7251 57.198 11.7624 57.2664 11.5842L57.0237 11.5323C57.1526 11.5248 57.2435 11.51 57.3571 11.5544C57.4331 11.5842 57.5621 11.7624 57.6455 11.7624C57.7894 11.7624 57.8349 11.5694 57.8198 11.4654C57.9409 11.7327 58.0396 11.7772 58.3051 11.6435C58.3369 11.6289 58.3673 11.6116 58.3959 11.5915C58.4307 11.5403 58.5012 11.5263 58.5537 11.5605C58.5663 11.5686 58.5773 11.5792 58.5857 11.5915L58.6995 11.6509C58.7449 11.5767 58.7903 11.5024 58.8359 11.4357C58.927 11.5619 59.0178 11.5694 59.177 11.5395C59.2833 11.5172 59.5032 11.3317 59.5789 11.3317C59.6243 11.3317 59.6848 11.443 59.7608 11.4578C59.9076 11.4865 60.0555 11.4169 60.1246 11.287C60.1475 11.3389 60.1704 11.3835 60.1929 11.4355C60.2509 11.401 60.3046 11.3587 60.3512 11.3095ZM55.7035 29.2672V29.4972L55.7796 29.512L55.8552 29.5268V29.512C55.8621 29.4076 55.8015 29.3098 55.7035 29.2672ZM48.7284 28.3616C48.7055 28.4356 48.6828 28.51 48.6525 28.5843L48.9028 28.6065C48.8422 28.5247 48.7814 28.4432 48.7284 28.3616ZM38.9857 22.5117C39.1676 22.5636 39.1676 22.5561 39.1981 22.7195C39.4027 23.6549 38.7657 24.724 39.236 25.6148C37.8635 25.6073 36.4835 25.6296 35.1188 25.7855C35.1188 25.2731 35.1339 24.7684 35.0961 24.2635C35.0809 24.0336 35.0507 23.8033 35.0279 23.5733C34.9976 23.2838 35.0053 23.2985 35.2479 23.2465C35.3767 23.2169 35.4224 23.1427 35.5437 23.0908C35.6345 23.0537 35.6801 23.0981 35.7709 23.1131C35.9301 23.1354 35.9379 23.1057 36.0818 23.076C36.4002 23.0092 36.6733 23.0315 36.9234 22.8013C37.0522 22.7938 37.0144 22.9051 37.1054 22.8977C37.1735 22.8903 37.2115 22.7714 37.2797 22.7419C37.4921 22.6528 37.8407 22.6752 38.0681 22.6454C38.3032 22.6158 38.508 22.5118 38.7353 22.4821C38.8201 22.4725 38.9056 22.4827 38.9857 22.5117ZM41.6393 25.2064C41.5938 25.3699 41.3967 25.1545 41.3967 25.2882V25.3029C41.4041 25.2806 41.6013 25.5331 41.5938 25.5257C41.6999 25.6075 41.7605 25.5999 41.882 25.5035C41.6696 25.496 41.6924 25.3624 41.6393 25.2064ZM42.2383 25.4366C42.3139 25.4812 42.3368 25.3699 42.3822 25.3029C42.2914 25.2659 42.2838 25.3624 42.2383 25.4366ZM41.9957 24.7313C42.021 24.8282 42.0313 24.9282 42.0259 25.0282C42.2079 25.0061 42.261 24.9913 42.2687 24.7982L42.1701 24.8575C42.1168 24.7611 42.1093 24.7536 41.9957 24.7313ZM40.5928 24.9095C40.6308 24.8872 40.6765 24.8575 40.7142 24.8354C40.6536 24.7462 40.5475 24.8501 40.5928 24.9095ZM41.0554 23.343C41.1084 23.3134 41.1616 23.2911 41.2146 23.2615C41.0705 23.0907 41.063 23.1502 41.0554 23.343ZM40.8658 21.9994H40.6612C40.6991 22.1256 40.8658 22.1552 40.8658 21.9994ZM61.0413 14.4571C61.0868 14.4868 61.1322 14.509 61.1854 14.5389C61.0642 14.6502 60.9125 14.7615 61.0336 14.8878C61.1249 14.9917 61.572 15.0363 61.7008 15.0734C61.6409 15.1568 61.5722 15.234 61.4962 15.3035C61.4432 15.3334 61.3976 15.2219 61.2989 15.3334C61.4659 15.4149 61.4201 15.3555 61.3747 15.5337C61.3521 15.6377 61.2609 15.7491 61.2082 15.8453C61.0867 16.0756 60.9578 16.3056 60.8211 16.5284C60.5559 16.996 60.2679 17.449 59.9721 17.9018C59.919 17.6495 60.063 17.3673 60.139 17.1223C60.2299 16.8179 60.3284 16.5062 60.4194 16.2018C60.609 15.6004 60.7684 15.0139 61.0413 14.4571ZM53.8383 15.2291C53.702 15.2663 53.6186 15.2812 53.4746 15.3183C53.6795 15.3776 53.6795 15.3776 53.8383 15.2291ZM59.7752 14.0859C59.6008 14.1676 59.5853 14.2196 59.722 14.3161C59.7371 14.2418 59.7523 14.1898 59.7752 14.0859ZM59.7523 12.23C59.7296 12.3265 59.5853 12.2375 59.555 12.3042C59.4794 12.4676 59.7145 12.4453 59.7977 12.4378C59.7825 12.3711 59.7675 12.3044 59.7523 12.23ZM60.7228 12.1039C60.6774 12.3192 60.6774 12.3192 60.8897 12.3489C60.8365 12.2673 60.7911 12.2004 60.7228 12.1039Z" fill="white"/>
<path d="M30.07 34.2513C30.0397 34.4147 29.9562 34.4888 30.0397 34.6374C30.1316 34.7708 30.2942 34.84 30.4564 34.8153L30.07 34.2513ZM26.3472 28.4832L25.6648 28.7132C25.8452 28.8983 26.0349 29.0742 26.2335 29.2403L26.3472 28.4832ZM37.538 29.0698C37.2121 28.9063 36.8483 28.8915 36.4995 28.8691C36.5525 29.1515 36.6057 29.4407 36.6587 29.7231C36.9542 29.5077 37.25 29.2848 37.538 29.0698ZM29.7667 51.1547C29.6984 51.0433 29.2588 50.1749 29.1678 50.2193C29.1223 50.2417 29.1146 50.7245 29.1073 50.7909C29.0844 51.0357 29.0541 51.2809 29.0313 51.5259C29.2966 51.4367 29.5772 51.3627 29.7667 51.1547ZM26.6886 44.1541C26.7565 44.3472 26.8249 44.5402 26.8855 44.7261C26.9097 44.8308 26.9452 44.9329 26.9918 45.0301C27.0674 45.1342 27.0069 45.1935 27.1055 45.082C27.2115 44.9631 27.2419 44.6367 27.2873 44.4808C27.3556 44.2504 27.4237 44.0278 27.4919 43.7979C27.1736 43.8056 26.9766 44.0653 26.6886 44.1541ZM19.8647 32.8926C19.463 33.1601 19.061 33.4273 18.7123 33.7539C19.0158 33.7317 19.4402 33.9395 19.7282 33.843C19.8647 33.8726 19.9027 33.8206 19.8573 33.6945V32.8926H19.8647ZM25.7863 34.7784V36.3373C26.1577 36.0255 26.5519 35.7359 26.9082 35.4094C26.5368 35.2015 26.1578 34.9936 25.7863 34.7784ZM39.1074 38.8243C38.9863 39.5222 38.9863 40.2348 38.9482 40.9326C38.9407 41.0588 38.8951 41.2442 38.9786 41.3557C39.0621 41.4671 39.3047 41.5263 39.426 41.5856C39.7748 41.7491 40.116 41.9201 40.4648 42.0831C40.0174 40.9992 39.5624 39.9084 39.1074 38.8243ZM47.9102 34.5557C48.7669 34.1472 49.6237 33.7317 50.4804 33.3233C49.6388 32.9744 48.8047 32.6256 47.9632 32.2768C47.9481 33.034 47.9329 33.791 47.9102 34.5557ZM39.1074 36.4934C39.2668 36.5006 39.2894 35.9218 39.3122 35.7655C39.3577 35.4763 39.4107 35.1791 39.4638 34.8895C39.5701 34.3033 39.6761 33.7241 39.7898 33.1377C40.0173 31.9723 40.2752 30.8142 40.5556 29.6559C40.2615 29.6152 39.9702 29.5558 39.6838 29.4779C39.4488 29.411 39.1606 29.4483 38.9482 29.2997C38.918 29.8417 39.0621 30.4133 39.1074 30.9553C39.1694 31.5794 39.1973 32.2063 39.1909 32.8335C39.1834 34.0584 39.138 35.2757 39.1074 36.4934ZM19.4097 52.9958C19.5614 52.959 19.3567 50.969 19.3493 50.6796C19.3264 49.848 19.3189 49.0167 19.334 48.1852C18.5373 48.6775 17.7148 49.1285 16.8699 49.5365C17.09 49.8113 17.2868 50.108 17.5296 50.3681C17.7799 50.6353 18.0604 50.8508 18.2877 51.1325C18.7501 51.7039 19.0686 52.35 19.4097 52.9958ZM38.6375 41.2218C38.6755 40.6205 38.7057 40.0269 38.774 39.4257C38.7965 39.1732 39.0546 37.8221 38.6526 37.8518C38.4251 37.8665 38.0234 38.2006 37.8112 38.3121C37.538 38.4604 37.2576 38.6164 36.9771 38.7646C36.4311 39.0616 35.8776 39.3439 35.3242 39.6408C36.4237 40.1678 37.528 40.6948 38.6375 41.2218ZM36.2494 28.7728C35.7972 28.7456 35.3467 28.6961 34.8996 28.6243C34.657 28.5798 34.4144 28.5871 34.1716 28.5574C33.9976 28.5353 33.6562 28.3941 33.4894 28.4386C33.2847 28.4982 33.2088 29.5003 33.1785 29.7526C33.1331 30.161 33.1028 30.6509 33.2847 31.037C33.6411 31.7717 34.6041 31.2002 35.0741 30.8883C35.4758 30.6211 35.9307 30.3538 36.2872 30.0347C36.613 29.7451 36.325 29.1362 36.2494 28.7728ZM38.6222 36.7826C38.9634 36.6492 38.9634 36.4782 38.9786 36.122C38.9938 35.6914 39.0089 35.2609 39.0167 34.8378C39.0394 34.0731 39.0621 33.3085 39.0546 32.544C39.0469 31.7941 39.009 31.0518 38.9255 30.3094C38.8952 30.0496 38.9255 29.5968 38.7815 29.3742C38.6526 29.1664 38.2509 29.1664 38.031 29.1811C37.7884 29.1959 37.5838 29.4259 37.402 29.5672C37.1971 29.7303 36.7878 29.953 36.7572 30.1906C36.7196 30.4579 36.8711 30.8365 36.9317 31.0962C37.1439 32.0389 37.402 32.9744 37.6747 33.9097C37.955 34.8749 38.2433 35.8472 38.6222 36.7826ZM29.8729 34.5185C29.8955 34.3033 29.9791 34.1251 29.8653 33.9248C29.7742 33.754 29.6151 33.5757 29.5013 33.4125C29.1753 32.9373 28.8038 32.492 28.4474 32.0389C28.1212 31.6232 27.7877 31.215 27.4389 30.8142C27.2494 30.5915 27.0522 30.3761 26.8551 30.1534C26.711 29.9901 26.5747 29.7675 26.3699 29.6857C26.2182 30.6062 26.0969 31.5269 25.9984 32.4548C25.953 32.9001 25.9151 33.3531 25.8769 33.7986C25.8694 33.9249 25.7634 34.3555 25.8317 34.4741C25.8998 34.6003 26.3093 34.7637 26.4381 34.8378C26.7945 35.0532 27.0674 35.3725 27.401 35.0232C27.636 34.7856 27.8179 34.4444 28.0758 34.2365C28.2123 34.1251 28.3336 34.1326 28.4852 34.0658C28.6595 33.9915 28.6673 33.9172 28.8795 34.0212C29.2436 34.192 29.4559 34.4517 29.8729 34.5185ZM12.1615 39.2546C12.1615 39.8931 12.1162 40.413 12.5559 40.9326C12.9423 41.3853 13.3443 41.489 13.8826 41.6673C14.2013 41.7714 14.2237 41.6749 14.4818 41.4966C14.7244 41.3259 14.9973 41.1922 15.2399 41.0215C15.7631 40.6502 16.2862 40.2643 16.7942 39.871C16.9686 39.7372 16.9383 39.7816 16.9155 39.6259C16.8928 39.4849 16.7865 39.2994 16.7261 39.1581C16.6197 38.9133 16.4984 38.6682 16.3771 38.4306C16.2407 38.1561 16.1119 37.859 15.9373 37.6066C15.8616 37.5028 15.7782 37.4063 15.6946 37.3097C15.5206 37.1095 15.5206 37.1165 15.3081 37.28C14.8607 37.6289 14.4437 38.0075 13.9434 38.2823C13.3519 38.6017 12.7605 38.9281 12.1615 39.2546ZM25.6648 34.3181C25.7331 33.4049 25.8013 32.4919 25.9152 31.5862C25.9756 31.1185 26.0365 30.6509 26.1047 30.1831C26.1276 29.99 26.2335 29.6709 26.173 29.4927C26.1198 29.3145 25.8696 29.1365 25.7333 29.01C25.6952 28.9732 25.5817 28.8246 25.536 28.8169C25.483 28.8097 25.2934 28.9507 25.2327 28.9804C25.0355 29.0917 24.8384 29.2106 24.6489 29.3292C24.285 29.5593 23.9362 29.8044 23.595 30.0569C22.8748 30.5914 22.1923 31.1703 21.4872 31.7195C22.1317 32.269 22.9203 32.6996 23.6404 33.1524C24.065 33.4197 24.4972 33.6795 24.9293 33.9319C25.1568 34.0584 25.4071 34.2513 25.6648 34.3181ZM16.8547 50.672C16.3316 51.0065 15.8388 51.3627 15.2474 51.5777C14.6636 51.7932 14.0798 51.8749 13.4809 52.001C13.1775 52.0679 12.8894 52.1345 12.5788 52.1789C12.4043 52.2013 12.1314 52.194 11.9721 52.2682C11.828 52.2382 11.7825 52.283 11.8205 52.4091C11.8194 52.4491 11.8218 52.4886 11.828 52.5278C11.8659 53.0624 12.2222 53.7083 12.5254 54.1461C12.7151 54.4002 12.9283 54.6361 13.1623 54.8516C13.4202 55.0966 13.5642 55.2673 13.9282 55.1632C14.5348 54.9925 15.0656 54.6513 15.672 54.4954C16.1573 54.3765 16.5591 54.1237 17.0289 53.9903C17.6129 53.8272 18.1891 53.6489 18.7727 53.5151C18.5075 53.018 18.2723 52.498 17.9387 52.0453C17.5978 51.5853 17.2111 51.1399 16.8547 50.672ZM20.0467 33.932C21.1308 34.1472 22.3137 34.3403 23.2841 34.8895C23.6632 35.105 24.1484 35.4389 24.2547 35.8768C24.3912 36.404 23.8679 36.738 23.4283 36.9014C22.905 37.1017 22.3366 37.1759 21.7754 37.2355C21.4796 37.2652 21.184 37.2875 20.8883 37.3021C20.6457 37.3173 20.2439 37.2652 20.0239 37.3541C19.8876 37.3243 19.8421 37.3841 19.8801 37.5175C19.8801 37.5695 19.8724 37.6139 19.8724 37.6657L19.8496 38.104C19.8344 38.3936 19.8193 38.6828 19.8042 38.98C19.7739 39.611 19.7359 40.2493 19.7056 40.8804C20.2743 40.5315 20.7369 40.0417 21.2903 39.6704C21.5556 39.4921 21.8208 39.3214 22.0789 39.1435C22.1924 39.0691 22.2532 38.9654 22.3669 38.8984C22.5093 38.8213 22.6463 38.7346 22.7762 38.6385C23.3297 38.1561 23.9438 37.7331 24.5275 37.295C24.7931 37.0946 25.0888 36.9089 25.3388 36.6936C25.6042 36.4636 25.5663 36.2779 25.5589 35.9514C25.5511 35.6024 25.6802 35.1791 25.6194 34.8453C25.6725 34.7339 25.6346 34.6594 25.5056 34.6374C25.4222 34.5853 25.3313 34.5333 25.2479 34.474C25.0809 34.3699 24.9067 34.2587 24.74 34.1548C24.0651 33.7316 23.3828 33.3084 22.708 32.8852C22.3669 32.67 22.0332 32.462 21.692 32.2469C21.601 32.1873 21.2903 31.9201 21.184 31.9277C21.0779 31.9351 20.8883 32.1429 20.8049 32.2097C20.6855 32.3166 20.5588 32.4158 20.426 32.5065C20.3594 32.5533 20.2883 32.5932 20.2136 32.6253C20.0997 32.6327 20.0546 32.6995 20.0922 32.811C20.0088 33.1377 20.0694 33.598 20.0467 33.932ZM35.127 49.0613C34.8844 47.9329 34.5661 46.5965 33.6031 45.8318C32.6326 45.0526 31.2072 45.3571 30.4416 46.2699C30.0624 46.7303 29.8197 47.2646 29.6454 47.8292C29.4634 48.4006 29.198 49.1503 29.2511 49.7591C29.274 50.0263 29.509 50.3159 29.6379 50.5459C29.7743 50.7837 29.8654 51.1325 30.1913 51.051C30.6918 50.9249 31.2073 50.628 31.6773 50.4126C32.1551 50.197 32.6555 50.0192 33.1482 49.8113C33.4744 49.6703 33.8155 49.5662 34.1416 49.4324C34.4524 49.2988 34.8617 49.2692 35.127 49.0613ZM49.6842 42.3503C50.3742 42.5882 50.7306 42.2094 51.2083 41.7715C51.6631 41.363 52.1636 40.9623 52.5806 40.5168C53.013 40.0563 53.3615 39.5146 53.6953 38.9802C54.0362 38.4455 54.4911 37.859 54.6961 37.2653C54.8021 36.9609 54.8475 36.6269 54.9159 36.3075C54.9311 36.2334 55.037 35.9514 55.0069 35.8844C54.9613 35.7951 54.6582 35.7879 54.5746 35.773C53.9094 35.6716 53.2324 35.6665 52.5655 35.7583C51.2917 35.9365 50.2302 36.6343 49.8285 37.8518C49.3583 39.2918 49.5857 40.8805 49.6842 42.3503ZM45.2261 29.9306C45.2185 30.1758 45.8253 30.2498 45.9768 30.3019C46.3406 30.4357 46.7045 30.5766 47.0532 30.7326C47.7814 31.059 48.5545 31.2669 49.2521 31.6604C50.7534 32.5068 52.3834 33.108 53.8999 33.9172C54.1348 34.0433 54.5974 34.3479 54.8703 34.3255C55.0144 34.3107 54.908 34.422 54.9992 34.1993C55.0264 34.112 55.0469 34.0227 55.0598 33.9322C55.1129 33.6724 55.1583 33.4126 55.2188 33.1602C55.3253 32.737 55.4312 32.3437 55.4692 31.9129C55.4844 31.7275 55.5072 31.5492 55.5072 31.3637C55.5072 31.1782 55.5526 30.7105 55.4692 30.5471C55.4087 30.4431 55.4009 30.4727 55.2569 30.4431C55.1734 30.4283 55.09 30.3912 55.0066 30.369C54.8232 30.3041 54.6319 30.2619 54.4379 30.2429C54.2485 30.228 54.1195 30.1686 53.9452 30.1388C53.7554 30.1017 53.5585 30.1464 53.369 30.0944C53.1641 30.0423 53.0581 29.9904 52.8457 30.0125C52.6335 30.035 52.5728 29.9829 52.3681 29.9309C52.1936 29.8864 51.9892 29.9161 51.8146 29.9012C51.5948 29.8864 51.3825 29.8568 51.1627 29.8418C50.1845 29.7678 49.1913 29.879 48.2133 29.8716C47.6827 29.8641 47.1594 29.9458 46.6287 29.9237C46.1618 29.8925 45.6929 29.8949 45.2261 29.9306ZM47.7737 34.9788C47.2961 35.1569 46.8564 35.4465 46.4165 35.6914C45.9113 35.9761 45.4228 36.2889 44.9533 36.6269C44.1646 37.2061 43.2396 37.8963 43.0275 38.9058C42.8151 39.938 43.7325 40.784 44.5893 41.2072C45.5673 41.69 46.7122 41.9422 47.7814 42.1205C47.6677 39.7449 47.6904 37.3618 47.7737 34.9788ZM33.5349 40.5837C33.2466 40.665 33.0042 40.8285 32.7313 40.9546C32.4915 41.0511 32.2585 41.1625 32.0338 41.2888C31.6575 41.5148 31.2677 41.718 30.8662 41.8976C29.9184 42.3431 29.0084 42.8923 28.0685 43.3899C27.8181 43.5233 27.7424 43.6051 27.6591 43.8723C27.5679 44.1619 27.4847 44.4587 27.3935 44.7484C27.3102 45.0231 27.1812 45.3125 27.2116 45.6021C27.242 45.8545 27.371 46.0919 27.4769 46.3223C27.727 46.9011 28.0002 47.4656 28.2807 48.0295C28.5307 48.5344 28.7659 49.069 29.092 49.5365C29.342 48.2449 29.5695 46.8045 30.5478 45.8175C31.5256 44.8372 33.0876 44.8224 34.0278 45.8319C34.4752 46.3147 34.7481 46.9234 34.9604 47.5323C35.0694 47.8525 35.1555 48.18 35.2182 48.512C35.2938 48.8684 35.2788 49.0539 35.6729 48.9425C35.9915 48.8611 36.3251 48.7867 36.6359 48.6901C36.7951 48.6383 36.9542 48.5863 36.9618 48.4602C36.9695 48.3043 36.7571 47.985 36.6889 47.8364C36.363 47.0716 36.0292 46.3147 35.7033 45.5502C35.347 44.7185 34.9906 43.8946 34.6266 43.0633C34.4448 42.6474 34.27 42.2389 34.0882 41.8234C33.9443 41.4521 33.8078 40.8877 33.5349 40.5837ZM47.7966 34.14C47.8043 33.7615 47.8116 33.3903 47.8116 33.0115C47.8116 32.7888 47.9178 32.3509 47.7206 32.195C47.5994 32.0985 47.2278 32.0169 47.0761 31.9499C46.7655 31.8161 46.4316 31.7568 46.121 31.623C44.9076 31.1036 43.6414 30.6656 42.3829 30.2497C42.11 30.1608 41.837 30.0865 41.5641 29.9973C41.4202 29.9529 40.8741 29.6633 40.7375 29.7374C40.6164 29.8042 40.5253 30.5763 40.4876 30.7323C40.3965 31.1109 40.3131 31.4894 40.2298 31.8755C39.9114 33.3527 39.6384 34.845 39.3882 36.3369C40.0555 36.0921 40.6922 35.6615 41.3216 35.3274C41.9737 34.9858 42.6257 34.6371 43.2854 34.3031C43.4749 34.2066 44.1268 33.7685 44.2785 33.9394C44.5213 34.2138 43.9374 34.5406 43.7855 34.652C43.1943 35.1047 42.5651 35.5057 41.9281 35.9063C41.2686 36.3221 40.5862 36.6857 39.9266 37.0868C39.6914 37.2353 39.3048 37.4136 39.2139 37.6584C39.0925 37.9776 39.1834 38.3635 39.2896 38.6678C39.5624 39.4105 39.8582 40.1524 40.169 40.8801C40.3131 41.2143 40.4572 41.5408 40.6086 41.8672C40.7831 42.2609 41.0182 42.3427 41.4048 42.5209C43.0503 43.2852 44.7485 44.0203 46.3256 44.9036C46.0603 45.2008 45.4159 44.7105 45.1581 44.5919C44.6727 44.3616 44.1951 44.1316 43.7099 43.9013C42.8153 43.4707 41.9206 43.0329 41.0182 42.6174C41.5984 43.9052 42.2723 45.1506 43.035 46.3436C42.8457 46.4106 42.8912 46.4106 42.7697 46.2992C42.6712 46.2027 42.603 46.0172 42.5348 45.8981C42.3907 45.6534 42.2542 45.4083 42.1102 45.1634C41.8144 44.6511 41.5112 44.1535 41.2382 43.6264C41.0335 43.2329 40.8743 42.5427 40.4573 42.3497L38.8879 41.6147C38.8879 43.5747 39.0319 45.4903 39.2442 47.4352C39.2518 47.5317 39.3502 47.8209 39.1607 47.7914C39.0697 47.7766 39.0469 47.2422 39.0319 47.1308C38.9636 46.6185 38.9031 46.0989 38.8498 45.5866C38.7513 44.5547 38.6982 43.5228 38.6908 42.4837C38.5694 43.4932 38.4406 44.4955 38.3193 45.505L38.1448 46.9378C38.1144 47.1902 38.084 47.4427 38.0538 47.6877C38.0388 47.8064 38.0463 47.9549 38.0084 48.0659C37.9402 48.237 37.9629 48.2221 37.758 48.3038C37.9552 46.99 38.1297 45.6833 38.2891 44.3617C38.3647 43.7233 38.4406 43.0774 38.5088 42.4316C38.5239 42.2609 38.5468 42.0828 38.5619 41.9121C38.5696 41.823 38.6454 41.5408 38.6073 41.4667C38.5619 41.3926 38.2812 41.318 38.198 41.2812C38.0159 41.1995 37.8416 41.1178 37.6596 41.0361C37.0833 40.769 36.4996 40.5018 35.9308 40.2268C35.6808 40.1083 35.4154 39.9152 35.1424 39.8556C34.8695 39.7891 34.6723 39.9745 34.445 40.0934C34.2631 40.1824 33.8384 40.3087 33.717 40.4644C33.6034 40.6053 33.9522 41.1846 34.0432 41.3998L34.8166 43.2037C35.3398 44.421 35.8628 45.641 36.3861 46.8637L36.7726 47.7547C36.8559 47.9474 36.9926 48.4894 37.1897 48.5114C37.2807 48.519 37.4246 48.43 37.508 48.4003C37.6305 48.3732 37.7545 48.3532 37.8795 48.3407C38.1144 48.3038 38.3571 48.1848 38.5846 48.1034C39.176 47.8879 39.7824 47.7546 40.3815 47.5538C40.9804 47.3536 41.5642 47.1308 42.1557 46.9302C42.7004 46.752 43.2346 46.5441 43.7554 46.3065C44.3013 46.054 44.8625 45.839 45.4007 45.5642C46.3711 45.0593 47.334 44.5919 48.1908 43.9759C48.3954 43.8272 48.6078 43.6863 48.805 43.5305C48.9794 43.3967 49.3129 43.2261 49.4342 43.0478C49.4799 42.9808 49.5176 42.8475 49.4645 42.7658C49.404 42.6768 49.1538 42.6841 49.04 42.6693C48.6686 42.6175 48.2969 42.5728 47.9256 42.521C47.956 42.7583 47.9861 42.9962 48.0012 43.2409C48.0163 43.4116 48.115 43.857 47.9785 43.9908C47.7891 43.8125 47.8496 43.2854 47.8345 43.0479C47.8269 42.9217 47.8573 42.6769 47.8043 42.5655C47.7435 42.4466 47.5691 42.4466 47.4099 42.4093C46.7428 42.2684 46.0755 42.1499 45.431 41.927C44.3392 41.5484 43.0278 40.9099 42.7849 39.6702C42.5271 38.3859 43.6492 37.2649 44.5896 36.5448C45.1556 36.1215 45.7509 35.7369 46.3713 35.394C46.6594 35.2309 46.9552 35.0675 47.2432 34.9116C47.3493 34.8522 47.6982 34.7337 47.7514 34.6371C47.8191 34.5334 47.789 34.2589 47.7966 34.14ZM24.3987 53.9163C24.3455 53.9383 24.2925 53.9681 24.2396 53.9904C24.8309 52.3424 25.4146 50.7019 25.9076 49.0239C26.1426 48.2147 26.3851 47.4058 26.6353 46.5964C26.7417 46.2474 26.9994 45.7651 26.9311 45.4086C26.8552 45.0152 26.666 44.5997 26.5218 44.2284C25.5892 44.8 24.6337 45.3492 23.6862 45.8984C22.837 46.3886 21.9725 46.8265 21.1158 47.3164C20.6761 47.5688 20.2211 47.7323 19.7661 47.9401C19.3947 48.1036 19.5388 48.608 19.5464 48.9496C19.5615 50.1448 19.5615 51.3399 19.6373 52.5277C19.6679 52.9586 19.6298 53.4634 19.9103 53.8196C20.2743 54.2799 20.6078 54.755 20.9339 55.2372C21.0552 55.423 21.5783 56.4032 21.7679 56.3808C21.8967 56.366 22.0107 55.9651 22.0714 55.8757C22.2209 55.6761 22.3941 55.4941 22.5869 55.3337C23.3679 54.6213 24.2322 54.1236 25.1344 53.6043C26.0519 53.0771 26.9843 52.5873 27.917 52.0898C28.1293 51.9783 28.3568 51.8967 28.5614 51.778C28.645 51.7332 28.8116 51.6591 28.8571 51.5774C28.9331 51.4589 28.9102 51.1171 28.9254 50.9686C28.9557 50.6716 29.0165 50.36 29.0238 50.0632C29.0238 49.7662 28.842 49.514 28.7129 49.254C28.1369 48.118 27.5682 46.9824 27.0678 45.8166C26.6736 47.1754 26.2567 48.5265 25.8623 49.8849C25.6577 50.5975 25.415 51.2953 25.1723 51.9932L24.8084 53.0622C24.7247 53.3447 24.6716 53.7532 24.3987 53.9163ZM32.7085 28.3495C32.41 28.3441 32.1129 28.3092 31.8214 28.2457C31.7077 28.2232 31.6168 28.2158 31.503 28.201C31.3741 28.1935 31.2605 28.1193 31.1542 28.1118C31.0481 28.1109 30.943 28.1286 30.8434 28.1639C30.6614 28.2232 30.6614 28.1935 30.6538 28.4014C30.6387 28.7281 30.631 29.0547 30.6158 29.3813C30.5479 30.6656 30.4037 31.9351 30.2141 33.2045C30.1762 33.4645 30.0703 33.7984 30.1233 34.0509C30.1763 34.2809 30.3811 34.5261 30.5099 34.719C30.7828 35.1121 31.435 35.3127 31.8898 35.4241C32.3675 35.5428 32.8678 35.5872 33.3303 35.6913C33.4591 35.7211 33.6032 35.6689 33.7398 35.6989C33.8541 35.7382 33.9657 35.7856 34.0733 35.84C34.354 35.9585 34.6723 35.9809 34.9604 36.0699C35.5367 36.2554 36.1582 36.2409 36.742 36.4188C36.8938 36.4636 37.0151 36.5746 37.1591 36.6119C37.288 36.6492 37.4243 36.6046 37.5608 36.6267C37.8488 36.6712 38.1218 36.7677 38.1825 37.0721C38.3569 36.9386 38.3872 36.9683 38.3569 36.7605C38.3194 36.6145 38.2739 36.4708 38.2205 36.3298C38.1143 35.9957 38.0006 35.6617 37.8944 35.3275C37.6824 34.667 37.47 34.0061 37.2728 33.3381C37.0983 32.7441 36.9391 32.1429 36.7951 31.5415C36.7268 31.2371 36.6662 30.9254 36.6057 30.6135C36.5904 30.5244 36.6057 30.3834 36.5146 30.3239C36.4311 30.272 36.234 30.4651 36.1507 30.5244C35.5366 30.9624 34.1186 32.2542 33.3528 31.4894C32.9357 31.0812 32.966 30.3612 33.0042 29.8266C33.0356 29.5024 33.0862 29.1799 33.1557 28.8616C33.1709 28.7799 33.2695 28.5275 33.2317 28.4679C33.2088 28.4015 32.7919 28.3643 32.7085 28.3495ZM54.3549 35.4763C54.5215 35.4907 54.6807 35.5131 54.8475 35.5281C54.8325 35.4018 54.8475 35.2016 54.7945 35.0827C54.7265 34.9196 54.5517 34.8972 54.3702 34.8306C54.0744 34.7192 53.7708 34.6227 53.4831 34.5112C52.846 34.2589 52.2168 33.999 51.58 33.7392C51.2993 33.6276 50.9735 33.4422 50.6701 33.5387C50.3439 33.6352 50.0257 33.8355 49.7224 33.9841C49.3812 34.1472 49.0322 34.3181 48.6912 34.4816C48.5321 34.5629 48.365 34.6374 48.206 34.7192C47.9558 34.8454 47.9179 34.8526 47.8953 35.1346C47.7968 36.5747 47.8042 38.0669 47.8421 39.5075C47.865 40.2422 47.8421 40.9845 47.8953 41.7119C47.9029 41.7715 47.8953 42.0831 47.9331 42.1277C47.9861 42.1872 48.3425 42.2094 48.4257 42.2242C48.7595 42.2835 49.093 42.3059 49.4342 42.3355C49.3584 40.6651 49.0628 38.6831 49.9421 37.154C50.8216 35.6246 52.7019 35.2904 54.3549 35.4763ZM39.0318 19.0255C39.1303 18.8028 39.2971 18.6173 39.4488 18.4241C39.5245 18.3202 39.661 18.1941 39.7141 18.0753C39.7823 17.9045 39.7823 17.9417 39.6761 17.7858C39.5776 17.6447 39.5776 17.6298 39.4184 17.6074C39.2896 17.5855 39.1455 17.6224 39.0089 17.6C38.8725 17.5777 38.501 17.4664 38.5844 17.2512C38.6632 17.2202 38.7394 17.1829 38.8118 17.1397C38.865 17.0803 38.8801 16.9617 38.9103 16.8873C38.9938 16.6645 39.024 16.5163 38.9332 16.2786C38.7892 15.9223 38.2205 15.8183 37.8642 15.9371C37.6998 15.9979 37.5699 16.125 37.5077 16.286C37.4547 16.3901 37.447 16.531 37.3789 16.6203C37.2804 16.7539 37.2728 16.7388 37.068 16.7168C36.8103 16.6869 36.5979 16.5907 36.3479 16.5237C36.0824 16.4495 35.908 16.5979 35.6728 16.724C35.2483 16.9467 34.8387 17.0209 34.3689 17.058C33.8381 17.0951 33.3528 16.969 32.8297 16.9391C32.966 17.548 33.3149 18.0453 33.5953 18.6022C33.6409 18.6987 33.7241 18.8025 33.7241 18.9138C33.7241 19.0178 33.5726 19.1661 33.5877 19.2553C33.6257 19.4409 34.0503 19.5893 34.2094 19.6488C34.6645 19.7973 35.1723 20.0868 35.6726 19.9755C35.9455 19.9086 36.0897 19.4928 36.3478 19.4558C36.6888 19.4112 36.4311 19.8494 36.3704 19.9978C36.9005 20.0636 37.4395 20.0129 37.9472 19.8494C38.1716 19.7623 38.3875 19.6555 38.5917 19.5301C38.8573 19.3522 38.918 19.3077 39.0318 19.0255ZM30.4868 28.1344C29.6151 28.1492 28.7356 28.0228 27.8637 28.1416C27.6591 28.1715 27.4618 28.2084 27.2645 28.253C27.1207 28.2829 26.6659 28.3125 26.5748 28.4165C26.4915 28.513 26.4838 28.951 26.4688 29.0698C26.4306 29.3442 26.4382 29.4408 26.6203 29.6486C27.2041 30.3465 27.8181 31.022 28.3945 31.7274C28.9479 32.403 29.4028 33.1601 29.9715 33.8282C30.2746 32.9743 30.2897 31.9499 30.3732 31.0517C30.4188 30.5764 30.4564 30.094 30.4945 29.6188C30.5175 29.1587 30.6385 28.5646 30.4868 28.1344ZM19.2204 37.1391C19.3189 37.1391 19.478 37.1688 19.5765 37.1391C19.713 37.1837 19.7586 37.1319 19.713 36.9905C19.713 36.9388 19.7206 36.8941 19.7206 36.8423C19.7357 36.5229 19.7509 36.2038 19.766 35.8918C19.7813 35.6024 19.7965 35.3128 19.804 35.0232C19.8117 34.823 19.9178 34.3329 19.8344 34.1549C19.7814 34.0361 19.6526 34.0584 19.4932 34.0433C19.3417 34.0285 19.1902 34.0137 19.0385 33.9914C18.8489 33.9618 18.6366 33.8949 18.447 33.9395C18.2497 33.9839 18.1135 34.1548 17.9618 34.2661C17.7192 34.4442 17.4766 34.6149 17.2338 34.7856L15.9146 35.7435C15.7328 35.877 15.7025 35.8324 15.7857 36.0183C15.8388 36.1368 15.9678 36.2707 16.0434 36.3745C16.195 36.5896 16.3466 36.9089 16.5365 37.0796C16.817 37.3322 17.5979 37.1688 17.9692 37.1688C18.3862 37.1687 18.7958 37.1761 19.2204 37.1391ZM20.3195 37.1167C20.691 37.0798 21.0626 37.0946 21.4266 37.0498C21.8286 36.998 22.2225 36.9163 22.617 36.8571C23.0112 36.7974 24.2245 36.5597 24.103 35.9809C23.9742 35.3645 23.0492 35.001 22.5412 34.7931C21.7452 34.4739 20.9112 34.2957 20.0695 34.1175C19.9634 34.667 19.9786 35.2606 19.9634 35.8174C19.956 36.1217 19.9407 36.4263 19.9407 36.7231C19.9407 36.7972 19.918 36.9457 19.9482 37.0127C20.0164 37.1761 20.0997 37.1167 20.3195 37.1167ZM19.1064 37.3843H16.7484C17.0971 38.0893 17.4308 38.8092 17.8024 39.5073C18.1738 40.1976 18.659 40.8509 19.0835 41.5114C19.1898 41.4001 19.3643 41.2738 19.4325 41.1329C19.516 40.9842 19.5082 40.7615 19.5234 40.5837C19.5614 40.1306 19.5765 39.6704 19.5842 39.2177C19.5918 38.8167 19.6147 38.4233 19.645 38.0299C19.6526 37.9405 19.751 37.488 19.6903 37.4139C19.6525 37.347 19.2051 37.3843 19.1064 37.3843ZM28.819 23.5019C29.2132 23.5019 29.6151 23.4946 30.0093 23.5019C30.3733 23.5094 30.8434 23.45 31.1693 23.6281C31.8442 23.9992 30.4946 24.9494 30.2217 25.187C30.6613 25.3429 31.3513 25.0313 31.7835 24.8901C32.3142 24.7119 32.8602 24.5931 33.406 24.4594C33.5426 24.4223 34.1264 24.3555 34.2022 24.2591C34.2781 24.155 34.1112 23.5462 34.096 23.4201C34.0808 23.3013 34.096 23.1084 34.0429 22.9969C34.0732 22.8632 34.0278 22.8113 33.8989 22.8558H33.7622C33.4288 22.8558 33.0951 22.8708 32.769 22.8855C31.6318 22.9227 30.5174 22.9748 29.3875 23.1455C28.8645 23.227 28.3336 23.3235 27.8106 23.4273C27.3708 23.5091 27.4466 23.5833 27.856 23.5833C28.1744 23.5688 28.4931 23.5241 28.819 23.5019ZM61.4892 15.2989C61.5577 15.2247 61.6257 15.143 61.6941 15.0688C61.5273 15.0242 61.3604 14.9798 61.2011 14.9277C61.0269 14.8758 60.9283 14.8906 61.0117 14.6978C61.1103 14.4602 61.5575 14.4305 61.7698 14.4231C62.505 14.3934 63.286 14.6236 63.9837 14.824C64.3094 14.9221 64.6146 15.0754 64.8857 15.2769C65.0226 15.36 65.1518 15.4544 65.2724 15.5589C65.3861 15.6702 65.4318 15.8112 65.5456 15.9227C65.7273 16.1083 65.9626 16.1973 66.0533 16.4572C66.1598 16.7615 66.0308 17.103 65.879 17.3703C65.7199 17.6377 65.4923 17.8381 65.303 18.0829C65.1511 18.276 64.8406 18.803 65.3255 18.7436C65.5832 18.714 65.917 18.2835 66.099 18.1126C66.3641 17.8676 66.6219 17.6154 66.9104 17.3851C67.1604 17.1847 67.4484 16.9768 67.7823 16.9397C68.1309 16.9026 68.3051 17.1253 68.4799 17.3926C68.639 17.645 68.6693 17.8899 68.783 18.1497C68.8362 18.2759 68.9042 18.3427 68.9422 18.4762C68.9953 18.6843 68.9953 18.9143 69.0257 19.1297C69.0637 19.4637 69.1013 19.7309 69.033 20.0576C68.9725 20.3619 68.9574 20.6886 68.9042 21.0003C68.8437 21.3568 68.7982 21.7057 68.7376 22.062C68.6845 22.359 68.5024 22.7896 68.6845 23.0642C69.1243 23.7324 69.655 22.7451 69.7989 22.3814C70.0417 21.7356 70.1704 21.0302 70.3902 20.3696C70.5097 20.0176 70.6033 19.6578 70.6709 19.293C70.7239 18.9887 70.7013 18.6249 70.8681 18.3502C70.9971 18.1425 71.2322 17.9792 71.49 18.0459C71.8084 18.1277 71.9372 18.5806 72.0281 18.8552C72.2785 19.5826 72.1876 20.2435 72.0813 20.9857C72.0422 21.3299 71.9839 21.6721 71.9069 22.0102C71.8538 22.2403 71.6263 22.7005 71.9599 22.8269C72.4374 23.005 72.9379 21.6687 73.0744 21.3644C73.4308 20.5774 73.5671 19.7905 73.7115 18.9444C73.7417 18.7513 73.772 18.5508 73.8174 18.3579C73.8629 18.1945 73.9917 18.0238 74.0069 17.8532C74.022 17.6898 73.9083 17.5711 74.022 17.4076C74.1206 17.274 74.2953 17.2668 74.4467 17.2593C74.818 17.2593 75.1671 17.4152 75.508 17.5265C75.8267 17.6303 76.2968 17.8679 76.6454 17.7938C75.5689 16.7176 74.4921 15.6558 73.2033 14.8244C72.6124 14.4288 71.997 14.0694 71.361 13.7479C70.7089 13.4287 69.9581 13.2136 69.2532 13.0204C68.8739 12.9166 68.4951 12.7978 68.1158 12.6716C67.7824 12.5601 67.4412 12.5455 67.115 12.4192C66.4024 12.1519 65.6061 12.0479 64.8632 11.8624C64.5372 11.7807 64.2111 11.7065 63.8777 11.6323C63.5366 11.5506 63.0513 11.4096 62.7024 11.4245C62.4066 11.4393 62.3007 11.7734 62.1566 12.0036C61.9497 12.3432 61.7649 12.6953 61.603 13.0577C61.2696 13.8001 60.9133 14.5647 60.6706 15.3368C60.5418 15.7599 60.4052 16.1831 60.2762 16.6135C60.1626 16.9849 59.8819 17.5119 59.958 17.8906C60.5262 17.0603 61.038 16.1949 61.4892 15.2989ZM35.7487 22.8337C35.4531 22.8488 35.1649 22.8635 34.8692 22.8709C35.1649 23.8137 35.1194 24.8157 35.1194 25.7882C36.4841 25.6325 37.8641 25.6027 39.2365 25.6177C38.9863 25.1424 39.0849 24.5189 39.153 24.0143C39.2 23.7196 39.2201 23.4214 39.2138 23.1234C39.206 22.8414 39.2894 22.6039 38.9863 22.5146C38.7435 22.4479 38.5919 22.5593 38.3568 22.6111C38.0763 22.6779 37.7805 22.6854 37.4925 22.715C36.9142 22.7885 36.3321 22.8279 35.7487 22.8337ZM27.8712 24.6674C28.7508 24.4299 29.6908 24.519 30.5704 24.3334C30.3658 24.1551 29.9866 24.2593 29.7211 24.274L28.8112 24.3186C28.5157 24.3334 27.6891 24.3112 27.5832 24.6823C27.6818 24.6749 27.7803 24.6674 27.8712 24.6674ZM60.1019 11.3272C58.9496 11.4239 57.7438 11.4089 56.5991 11.6094C55.2874 11.8321 53.9225 11.9731 52.6488 12.374C51.4055 12.7674 50.1316 13.0347 48.9032 13.4949C47.7133 13.9248 46.5532 14.4307 45.4307 15.0093C44.8773 15.2988 44.3467 15.6107 43.8158 15.9446C43.3003 16.2713 42.7392 16.5383 42.2463 16.8873C41.8181 17.1762 41.4151 17.4989 41.0408 17.8525C40.6312 18.2533 40.2295 18.6689 39.8124 19.0774C39.4714 19.4114 39.6836 20.2353 39.7062 20.6808C39.7365 21.3045 39.7897 21.9131 39.8656 22.5293C39.9415 23.1158 40.0172 23.7467 39.9186 24.3331C39.8807 24.5782 39.7365 25.0087 39.8048 25.2537C39.858 25.4541 40.2144 25.5951 40.4037 25.662C40.6312 25.7437 40.8587 25.7066 41.0862 25.8104C41.344 25.922 41.5563 26.0628 41.8291 26.1223C42.1771 26.2042 42.5329 26.2489 42.8908 26.2559C43.2092 26.2559 43.5275 26.3599 43.846 26.4193C44.3617 26.5232 44.8697 26.5528 44.8393 27.1617C44.8015 27.8669 44.513 28.4756 44.3463 29.1439C44.5738 29.1439 44.7406 29.1587 44.9455 29.077C45.1882 28.9805 45.4535 28.9583 45.7113 28.9211C46.2798 28.8322 46.8411 28.8026 47.417 28.7504C48.4709 28.6466 49.54 28.6611 50.5939 28.6687C51.1421 28.6737 51.6895 28.7158 52.2317 28.7949C52.7699 28.8767 53.331 28.9287 53.854 29.0917C54.2937 29.2255 54.7487 29.322 55.2037 29.4407C55.4086 29.4927 55.6512 29.5372 55.8407 29.5968C56.1213 29.6856 56.2653 29.8713 56.591 29.8639C56.5001 29.2848 56.2878 28.7428 56.1588 28.164C56.0225 27.5627 55.7571 27.0281 55.4613 26.4565C55.3324 26.2041 55.2338 25.9369 55.105 25.6772C54.9609 25.3951 54.7637 25.1575 54.5971 24.8903C54.2483 24.3483 53.8768 23.8213 53.5356 23.272C53.2398 22.7967 52.8987 22.3365 52.5727 21.8762C52.2164 21.3714 51.7159 20.9854 51.3065 20.5179C51.1416 20.3215 50.9643 20.1356 50.7759 19.9611C50.6016 19.7977 50.3435 19.4266 50.0783 19.4116C49.9191 19.4043 49.6537 19.4858 49.502 19.5305C49.2289 19.6196 48.9333 19.6716 48.6528 19.7458C48.342 19.8275 48.0387 19.9388 47.7202 20.013C47.599 20.0429 47.4471 20.0278 47.3258 20.0649C47.2046 20.102 47.106 20.1836 46.9697 20.2208C46.3024 20.4063 45.6352 20.6144 44.9681 20.7849C44.2781 20.9558 43.5727 21.1043 42.8982 21.3567C42.7692 21.4011 42.6251 21.5126 42.5267 21.4384C42.4457 21.3615 42.4089 21.2504 42.4282 21.1414C42.4888 20.8443 42.9817 20.7331 43.2166 20.6144C43.8385 20.3073 44.4853 20.0517 45.1501 19.8496C45.4836 19.7457 45.8173 19.6269 46.1509 19.5377C46.4315 19.4635 46.7273 19.3301 47.0153 19.2931C47.2731 19.2557 47.455 19.1592 47.7128 19.0702C48.0919 18.9441 48.4786 18.8327 48.8578 18.7212C49.5097 18.5357 50.1996 18.4542 50.8747 18.328C52.4355 18.0307 54.0231 17.8891 55.6133 17.9047C56.4095 17.9123 57.2434 17.8899 58.0321 18.0162C58.2214 18.0458 58.6232 18.0384 58.7522 18.2093C58.8205 18.2983 58.7824 18.432 58.8052 18.5285C58.8356 18.6917 58.9267 18.7659 59.0024 18.9143C59.1694 18.1052 59.3662 17.3183 59.5786 16.5241C59.7758 15.8039 59.9578 15.0691 60.2156 14.3637C60.496 13.6139 60.8298 12.8197 61.2466 12.1293C61.33 11.9883 61.5424 11.7655 61.5653 11.6022C61.5804 11.4388 61.3529 11.3127 61.1861 11.2979C60.8449 11.2456 60.4582 11.3124 60.1019 11.3272ZM67.8504 22.8635C67.9642 21.7425 68.313 20.5697 68.1158 19.4487C68.0324 18.9735 67.9719 18.5206 67.7292 18.0901C67.6078 17.8747 67.5549 17.7116 67.3196 17.8379C67.0848 17.964 66.8648 18.2906 66.6678 18.4763C66.3037 18.8177 65.9245 19.1665 65.4924 19.4192C65.1513 19.6194 64.4763 19.8051 64.2188 19.3745C63.9762 18.9661 64.3023 18.3872 64.5372 18.0531C64.8026 17.6672 65.3103 17.3032 65.0298 16.8282C64.9088 16.6206 64.7344 16.5685 64.5446 16.4348C64.3855 16.3161 64.2492 16.1676 64.09 16.0488C63.6272 15.6999 63.1117 15.5589 62.5734 15.3584C62.3234 15.2693 62.2926 15.1802 62.1487 15.388C61.9897 15.6181 61.9063 15.93 61.7927 16.1824C61.5751 16.6819 61.3212 17.1657 61.0342 17.6299C60.7385 18.1052 60.4807 18.595 60.2078 19.0777C60.1018 19.2557 60.0032 19.4413 59.8816 19.6121C59.8069 19.6989 59.7384 19.7906 59.6772 19.8869C59.5937 20.0353 59.6316 20.1763 59.5786 20.3249C59.3587 20.9706 59.048 20.0725 58.987 19.8571C58.919 19.6196 58.7522 19.4339 58.6461 19.204C58.5549 19.0183 58.4943 18.7436 58.2821 18.662C58.1077 18.5878 57.8802 18.6916 57.6983 18.6991C57.3648 18.7139 57.0387 18.6916 56.7049 18.7139C56.3943 18.736 56.0833 18.7585 55.7803 18.7807C55.4694 18.8029 55.1583 18.7509 54.8553 18.7807C54.3091 18.84 53.7481 18.8252 53.1948 18.9069C52.5502 19.0034 51.9134 19.1 51.2689 19.1742C51.4206 19.4489 51.7314 19.575 51.9742 19.768C52.1939 19.9461 52.3682 20.1466 52.5882 20.3173C52.8157 20.488 52.9445 20.7405 53.134 20.9483C53.3154 21.1359 53.4852 21.3344 53.6422 21.5422C54.4078 22.6262 55.204 23.6728 55.8409 24.8456C56.1717 25.4448 56.4557 26.0678 56.69 26.709C56.9251 27.392 57.0388 28.1269 57.1829 28.8323C57.2513 29.1812 57.2889 29.4854 57.2133 29.8342C57.1908 29.9159 57.1756 30.0051 57.1527 30.0868C57.0845 30.1907 57.1072 30.25 57.2284 30.2796C57.2967 30.3761 57.3875 30.4135 57.3952 30.5471C57.3986 30.6565 57.3441 30.7605 57.2513 30.8217C57.077 30.933 57.077 30.7847 56.9024 30.8144C56.8341 30.8513 56.7735 30.8811 56.7051 30.9182C56.6675 30.8663 56.6372 30.8144 56.5992 30.7623C56.4854 30.6582 56.3946 30.6658 56.2503 30.6436C56.3263 31.4898 56.2051 32.2395 56.0154 33.0636C55.9245 33.4569 55.7654 33.8505 55.6892 34.2438C55.5984 34.6892 55.7957 34.8896 56.0915 35.1867C55.9952 35.2231 55.9033 35.2707 55.8182 35.3276C55.7196 35.4166 55.7425 35.4315 55.7425 35.5728C55.7307 35.8343 55.7005 36.0946 55.6516 36.3519C55.5757 36.8347 55.4999 37.3321 55.3329 37.7848C55.0298 38.6164 54.5294 39.4849 54.029 40.2199C53.7483 40.628 53.4603 41.0957 53.1114 41.452C52.7553 41.8082 52.4063 42.1647 52.05 42.5284C51.3526 43.2334 50.5868 43.7162 49.7528 44.2433C49.4102 44.4463 49.088 44.6798 48.7899 44.9411C48.5017 45.2083 48.115 45.3863 47.7664 45.5793C47.6145 45.6686 47.501 45.7871 47.334 45.8616C47.1977 45.9068 47.0658 45.9637 46.9401 46.0323C46.6116 46.2481 46.2639 46.4345 45.9013 46.5891C45.4613 46.7894 45.0368 47.0121 44.5818 47.1831C44.3772 47.2572 44.1876 47.3462 43.9827 47.4355C43.7704 47.532 43.5354 47.5986 43.3155 47.7026C43.1325 47.7818 42.9452 47.8509 42.7546 47.9106C42.603 47.9698 42.4817 48.0661 42.3225 48.1257C41.9965 48.252 41.7007 48.3186 41.3824 48.4671C40.9578 48.6677 40.4573 48.7567 40.0176 48.8978C39.5172 49.0535 39.0017 49.217 38.4935 49.3283C38.2845 49.3754 38.0792 49.4374 37.8795 49.5141C37.743 49.5587 37.5838 49.5882 37.4322 49.6328C37.0151 49.7589 36.5982 49.8775 36.1736 49.9816C35.3548 50.1896 34.5132 50.4346 33.7169 50.7166C33.3001 50.8649 32.8753 51.043 32.4735 51.2286C32.0186 51.4437 31.5334 51.5626 31.0784 51.7705C30.1988 52.1788 29.3269 52.5945 28.455 53.018C28.0002 53.2407 27.5529 53.4707 27.1055 53.7155C26.9464 53.8047 26.7641 53.8416 26.6049 53.9234C26.3928 54.0347 26.2259 54.2057 26.006 54.3167C25.1796 54.7476 24.3304 55.1558 23.5722 55.7051C23.178 55.9947 22.7458 56.2843 22.4046 56.6332C22.2908 56.7518 22.0937 56.9297 22.071 57.0932C22.0407 57.3383 22.071 57.1156 22.1544 57.2642C22.2757 57.279 22.3059 57.3236 22.2379 57.398C22.2107 57.4324 22.1684 57.4514 22.124 57.4498C21.9724 57.4796 21.6844 57.3237 21.5631 57.2567C21.3507 57.1453 21.237 56.9969 21.1006 56.8037C20.8048 56.3883 20.5168 55.9652 20.206 55.5495C19.933 55.1782 19.6601 54.7699 19.3493 54.4285C19.1368 54.1983 19.1218 54.2948 18.8865 54.4285C18.7122 54.525 18.5075 54.5696 18.3255 54.6586C17.6357 55.0075 16.8697 55.2599 16.1573 55.505C15.9979 55.5568 15.9069 55.646 15.7629 55.7276C15.581 55.8241 15.3533 55.8687 15.1562 55.9429C14.6257 56.1356 14.0873 56.3286 13.5565 56.5297C13.1472 56.6852 12.753 56.8041 12.4344 57.0935C12.3056 57.2052 12.1539 57.2866 12.0176 57.4055C11.8658 57.539 11.6535 57.7544 11.4642 57.8286L11.3428 57.9176C11.2592 57.8656 11.1834 57.8062 11.1 57.7545C11.0245 57.7025 10.9411 57.6507 10.8651 57.5912C10.6679 57.4576 10.4708 57.3162 10.2737 57.1829C9.82633 56.8709 9.37898 56.5668 8.96201 56.218C8.22663 55.5942 7.45309 55.0079 6.67995 54.4213C5.86865 53.8125 5.08025 53.1668 4.23855 52.595C3.48041 52.0755 2.64635 51.6372 1.91097 51.0808C1.53953 50.806 1.16783 50.524 0.788756 50.2568C0.673468 50.1885 0.56193 50.1142 0.455078 50.0341C0.447713 49.997 0.553628 49.9003 0.583889 49.8634C0.7281 49.7148 0.879675 49.5811 1.02389 49.4252C1.68348 48.7125 2.54017 48.7422 3.45002 48.7051C3.85922 48.6903 4.30671 48.876 4.70118 49.0023C5.17867 49.158 5.64116 49.3809 6.10365 49.5811C7.05902 49.9822 8.0369 50.331 8.9999 50.7095C9.37897 50.8581 9.75805 50.9321 10.1371 51.0288C10.5241 51.1326 10.9259 51.0361 11.3504 51.0436C11.5702 51.0512 11.775 51.0584 11.9872 51.0512C12.1163 51.0436 12.2677 51.0211 12.3965 51.0211C12.5029 51.0211 12.609 51.0657 12.7001 51.0512C13.1171 51.0067 13.5567 50.9395 13.9889 50.8878C14.4135 50.8358 14.8607 50.8061 15.2778 50.7247C15.4907 50.679 15.7007 50.6217 15.9071 50.5534C16.0816 50.4944 16.4077 50.4199 16.5516 50.3013C16.6805 50.19 16.6275 50.1899 16.5516 50.0044C16.5212 49.9304 16.4908 49.8263 16.453 49.7517C16.3394 49.5662 16.2258 49.5069 16.2937 49.2766C16.4152 48.8684 16.817 48.6012 17.158 48.4008C17.9316 47.9478 18.6442 47.3613 19.4631 46.9755C21.1462 46.1808 22.6777 45.1418 24.323 44.2656C26.1277 43.3007 27.8335 42.1722 29.6682 41.2517C31.3741 40.3981 33.0648 39.5295 34.786 38.6983C35.6277 38.2898 36.5753 37.9184 37.3335 37.3916C36.9089 37.3395 36.492 37.2727 36.0672 37.2357C35.87 37.221 35.6729 37.2357 35.4758 37.2057C35.256 37.1688 35.0512 37.0872 34.8314 37.0499C34.4599 36.9907 34.1185 36.8644 33.747 36.8124C33.3452 36.7606 32.9509 36.6493 32.5493 36.6121C31.7076 36.5452 30.9418 36.241 30.1987 35.8551C30.0168 35.7586 29.8651 35.8178 29.6908 35.7508C29.5922 35.714 29.4936 35.5727 29.38 35.4985C29.0842 35.2905 28.8265 35.0381 28.5385 34.8082C27.9394 36.122 26.7641 37.013 25.6496 37.8963C25.0809 38.3417 24.4668 38.7203 23.8905 39.1582C23.473 39.4923 23.0321 39.7973 22.5712 40.0715C22.1163 40.3311 21.6841 40.6805 21.2519 40.992C20.9561 41.1999 20.6149 41.363 20.2966 41.5488C20.0389 41.6974 19.5385 41.9198 19.4702 42.1946C19.4094 42.4173 19.5232 42.6773 19.1819 42.5807C18.8711 42.4917 18.6516 42.1501 18.4694 41.9124C18.007 41.2964 17.5671 40.665 17.1349 40.0269C16.8999 40.472 16.498 40.7912 16.1341 41.1181C15.9066 41.3183 15.6716 41.5042 15.429 41.6821C15.3077 41.7715 15.1941 41.8532 15.0727 41.9421C15.0076 41.9806 14.9468 42.0255 14.8908 42.0759C14.8225 42.1872 14.8603 42.1352 14.8756 42.2761C14.8908 42.4917 14.9668 42.6548 14.8452 42.8627C14.7315 43.0558 14.4737 43.1371 14.2995 43.2633C13.8823 43.5754 13.4349 43.9094 12.9723 44.147C12.8673 44.1967 12.7658 44.2537 12.6692 44.3177C12.5025 44.4291 12.5327 44.4737 12.3659 44.3621C12.1081 44.1914 11.8806 43.9094 11.6458 43.7092C11.1529 43.2785 10.66 42.8628 10.1596 42.447C9.20437 41.6602 8.21873 40.9103 7.27085 40.1011C6.36864 39.3364 5.40576 38.6831 4.48078 37.9556C4.22302 37.7554 3.9729 37.5546 3.72264 37.347C3.50278 37.1688 3.13883 36.9684 2.972 36.7382C2.7295 36.404 3.66948 35.9437 3.9575 35.877C4.44289 35.7584 5.07985 35.8252 5.5651 35.9218C6.08048 36.0255 6.60363 36.3597 7.08138 36.5747C7.6198 36.8124 8.17307 37.02 8.71885 37.2429C8.96161 37.3394 9.21937 37.4211 9.44686 37.5546C9.68962 37.6956 9.90185 37.859 10.152 37.9779C10.447 38.1199 10.7512 38.244 11.0617 38.3489C11.2039 38.4016 11.3513 38.4391 11.5016 38.4604C11.7063 38.4904 11.6834 38.3938 11.858 38.3417C12.0022 38.2973 12.04 38.4158 12.1689 38.4455C12.2823 38.4722 12.4019 38.4475 12.4948 38.3789C12.7376 38.2303 12.95 38.0301 13.1924 37.8814C13.4124 37.7405 13.6626 37.6066 13.8672 37.4509C13.9582 37.3768 14.0262 37.2802 14.1173 37.2132C14.2614 37.0946 14.3219 37.1463 14.4964 37.0649C14.6406 36.998 14.7619 36.8791 14.8983 36.7974C14.9818 36.7456 15.1787 36.686 15.2317 36.6046C15.376 36.389 15.1333 36.2481 14.921 36.3074C14.8907 36.1219 14.724 35.6913 14.7922 35.5206C14.8529 35.3723 15.0196 35.3941 15.1637 35.32C15.6869 35.0156 16.0734 34.4663 16.5663 34.1102C17.0287 33.7761 17.4381 33.3752 17.8931 33.0338C18.2873 32.7442 18.7121 32.4546 19.0684 32.143C19.4928 31.7717 20.0313 31.4824 20.4862 31.148C20.9561 30.8066 21.4037 30.4208 21.8661 30.0718C22.3134 29.7376 22.7608 29.3888 23.2233 29.0698C23.6403 28.7802 24.0725 28.5202 24.482 28.2307C24.706 28.0714 24.9477 27.937 25.2022 27.8298C25.4522 27.7258 25.6798 27.6072 25.9223 27.4957C26.4528 27.2689 27.0153 27.1212 27.5903 27.0577C28.1787 26.9799 28.771 26.9351 29.3645 26.9241C29.683 26.9241 29.9863 26.9834 30.3046 26.9983C30.5929 27.0133 30.9038 27.0874 31.1918 27.0799C31.3206 27.0725 31.4344 27.0206 31.5633 27.043C31.6693 27.0577 31.7605 27.1172 31.874 27.1321C32.1244 27.1542 32.3746 27.1321 32.6323 27.1617C33.2161 27.2359 33.7999 27.3397 34.3836 27.3991C35.0054 27.4586 35.6195 27.4735 36.2412 27.5773C36.8479 27.6814 37.4545 27.7854 38.0533 27.9039C39.3347 28.1562 40.6236 28.3938 41.8823 28.7651C42.178 28.8459 42.4691 28.9426 42.7541 29.0547C42.8872 29.1191 43.0239 29.176 43.1635 29.2254C43.3683 29.2847 43.4062 29.3071 43.5122 29.1437C43.6942 28.8542 43.7929 28.468 43.9293 28.1562C44.0583 27.8446 44.2173 27.5327 44.2933 27.2061C44.0733 27.169 43.7929 27.2358 43.5727 27.2432C43.2924 27.2506 43.0195 27.2432 42.7466 27.2432C42.1855 27.2432 41.7533 27.0798 41.2225 26.9091C40.7752 26.7682 40.1837 26.6864 39.8427 26.36C39.6606 26.1817 39.6001 26.1521 39.3272 26.1817C39.054 26.2115 38.781 26.2707 38.5006 26.2782C37.4467 26.3153 36.4005 26.4935 35.3466 26.5306C35.0584 26.538 34.3458 26.6716 34.3912 26.1965C34.3989 26.1 34.4748 26.0107 34.4898 25.9142C34.4947 25.8046 34.4846 25.6948 34.4595 25.5877C34.4216 25.3354 34.3761 25.083 34.3304 24.838C33.3676 25.1423 32.3972 25.3873 31.4115 25.625C31.0019 25.7215 30.3501 25.9516 29.933 25.8254C29.5236 25.7066 29.7587 25.1423 29.8876 24.875C29.084 25.0533 28.2195 25.3502 27.3931 25.4171C27.143 25.4393 26.9005 25.4912 26.8397 25.1942C26.7943 24.9568 26.9685 24.6672 27.0595 24.4594C26.4301 24.4075 25.7706 24.4075 25.8919 23.6131C25.9981 22.8855 26.6199 22.7369 27.2719 22.6108C28.0832 22.4476 28.9094 22.3955 29.7284 22.2619C30.4412 22.1432 31.2144 22.0169 31.9422 22.0766C32.3289 22.1062 32.7156 22.1135 33.0945 22.1508C33.2738 22.1652 33.4516 22.1951 33.6256 22.2398C33.7847 22.2844 34.0121 22.4254 34.179 22.4254C34.4291 22.4328 34.7325 22.0989 34.9978 22.0247C35.3315 21.9282 35.6876 21.9132 36.0366 21.8908C36.4233 21.8612 36.8175 21.8537 37.2042 21.8166C37.2951 21.8092 37.6287 21.8315 37.6971 21.7795C37.7955 21.7053 37.7348 21.3265 37.7273 21.1708C37.7196 21.0222 37.75 20.755 37.6438 20.6957C37.5452 20.6437 37.2647 20.7179 37.1737 20.7329C36.7892 20.7823 36.4008 20.7946 36.0136 20.77C35.8317 20.7625 35.6572 20.8071 35.4829 20.7848C35.2932 20.7625 35.0961 20.6958 34.9066 20.6587C34.4896 20.5845 34.1181 20.4881 33.7543 20.2578C33.4433 20.0573 33.0718 19.9238 32.8974 19.575C32.7686 19.3227 32.7156 18.8252 33.0944 18.7509C32.8462 18.3846 32.6547 17.9843 32.5259 17.5632C32.5087 17.4744 32.4833 17.3874 32.4502 17.3032C32.3214 17.0656 32.4426 17.2736 32.253 17.1846C32.0761 17.1102 31.9184 16.9987 31.7905 16.8578C31.5761 16.601 31.4513 16.2837 31.4342 15.9522C31.3961 15.4994 31.3204 14.9871 31.3888 14.5343C31.5023 13.7549 32.0939 13.1609 32.6851 12.6859C33.0112 12.4259 33.4358 12.3294 33.8073 12.1735C34.171 12.025 34.5806 11.8617 34.9671 11.8321C35.3161 11.8025 35.6496 11.691 35.9984 11.6465C36.4762 11.5872 36.9537 11.6094 37.4316 11.5872C37.6513 11.5797 37.871 11.55 38.0911 11.5277C38.2125 11.513 38.4246 11.5277 38.5384 11.4831C38.728 11.4016 38.6218 11.5721 38.6901 11.3272C38.8189 10.8671 38.9176 10.4365 39.1147 9.99115C39.2879 9.57228 39.5175 9.17779 39.7969 8.81817C40.0624 8.48412 40.411 8.23908 40.7295 7.95708C40.9697 7.74797 41.2257 7.55682 41.4953 7.38534C41.6469 7.28897 41.8213 7.23693 41.9655 7.14791C42.142 7.04302 42.3304 6.95846 42.5264 6.8954C42.9739 6.75433 43.421 6.60592 43.8988 6.6134C44.4144 6.62087 44.93 6.50209 45.4227 6.6505C46.3477 6.92529 46.8027 7.9125 46.7874 8.81083C47.1058 8.73662 47.3789 8.58061 47.72 8.57314C48.0478 8.56068 48.3761 8.58559 48.6982 8.64747C49.2893 8.75891 49.896 9.07802 50.2448 9.56795C50.5709 10.0407 50.6386 10.6401 50.4268 11.1714C50.3193 11.4199 50.1766 11.6525 50.0022 11.8617C49.8809 12.0176 49.608 12.1885 49.5928 12.4036C51.8614 11.7355 54.1814 11.2463 56.5305 10.9411C57.728 10.7853 58.9264 10.8596 60.124 10.7704C60.6399 10.7332 61.1933 10.7853 61.7237 10.7853C61.9437 10.7853 62.1179 10.7555 62.2849 10.6144C62.4517 10.4734 62.5807 10.2952 62.7701 10.503C62.8155 10.5549 62.8306 10.6812 62.8916 10.7257C62.9672 10.7704 63.2021 10.7407 63.3008 10.748C63.6323 10.7727 63.9617 10.8199 64.2867 10.8891C64.8853 11.0077 65.4841 11.1266 66.0757 11.2751C67.2054 11.5571 68.3199 11.8319 69.4268 12.1659C70.5642 12.5074 71.709 12.9305 72.755 13.4873C73.27 13.7648 73.7638 14.0775 74.2337 14.4227C74.447 14.5748 74.6472 14.7437 74.8326 14.9275C75.0376 15.1279 75.2803 15.2617 75.4774 15.4621C75.9095 15.9001 76.3414 16.3603 76.7358 16.8353C76.9404 17.0803 77.1301 17.3403 77.3119 17.6074C77.4407 17.7931 77.782 18.1272 77.6986 18.3648C77.6542 18.4952 77.5188 18.5741 77.3802 18.5503C77.3348 18.5428 77.2968 18.4835 77.2592 18.4759C77.1302 18.4613 77.244 18.4167 77.0997 18.4759C76.8039 18.5948 76.7058 18.8324 76.3264 18.7806C75.682 18.6913 75.0754 18.3945 74.4916 18.1348C74.325 18.7583 74.3021 19.4041 74.1582 20.0426C74.0074 20.6575 73.7833 21.2528 73.491 21.8167C73.241 22.314 72.9148 22.8412 72.4676 23.1976C72.126 23.4648 71.2844 23.8062 71.0419 23.2273C70.9359 22.9822 71.0949 22.6037 71.1405 22.3514C71.201 22.01 71.2693 21.6758 71.2996 21.3344C71.3302 21.0597 71.3453 20.7776 71.3678 20.5028C71.3907 20.2654 71.4592 19.7531 71.3224 19.5377C71.239 19.4116 71.2315 19.5377 71.1857 19.664C71.1275 19.8174 71.0767 19.9735 71.0343 20.1318C70.9431 20.466 70.86 20.8074 70.7765 21.1487C70.6247 21.7501 70.4505 22.3439 70.1318 22.8859C69.8516 23.3686 69.4497 23.8955 68.8431 23.9772C68.5271 23.9996 68.2146 23.9013 67.9712 23.7024C67.7748 23.4946 67.8504 23.1457 67.8504 22.8635Z" fill="black"/>
<path d="M0.280238 51.3532C0.113666 51.4124 0.105901 51.4721 0.0301133 51.3014C0.000119706 51.2078 -0.00764741 51.1085 0.00761718 51.0118C0.0301124 50.7965 0.144062 50.6035 0.234846 50.4104C1.12193 51.1303 2.04705 51.7764 2.99466 52.4072C4.01069 53.0829 4.98133 53.8398 5.9442 54.59C6.80853 55.2653 7.68035 55.9111 8.52968 56.5942C8.93901 56.9206 9.40913 57.173 9.80333 57.5144C10.1216 57.7892 10.6449 57.9081 10.9104 58.2345C10.4858 58.4873 9.90938 58.6876 9.43953 58.4722C8.91625 58.2345 8.51441 57.923 8.05192 57.5965C7.8093 57.433 7.56667 57.2771 7.32404 57.1209C7.11195 56.9804 6.9601 56.7721 6.74024 56.6386C6.28552 56.3566 5.81539 56.0521 5.39066 55.733C4.95107 55.4065 4.45805 55.1464 4.03345 54.7975C3.59386 54.4411 3.10084 54.2039 2.64612 53.8773C1.68311 53.1794 0.83378 52.3999 0.280238 51.3532Z" fill="black"/>
<path d="M10.888 44.7044C9.98588 44.1328 9.0759 43.6352 8.28736 42.9077C7.50646 42.1878 6.8316 41.3784 5.95965 40.755C5.52742 40.443 5.08033 40.1534 4.65573 39.8269C4.25376 39.5229 3.7914 39.2628 3.42733 38.9139C2.94208 38.4536 2.03223 37.5852 2.65406 36.8947C3.42733 37.7928 4.48126 38.4981 5.44413 39.1811C6.46016 39.9013 7.39278 40.7326 8.35565 41.5197C9.28063 42.2693 10.2055 43.034 11.1155 43.8059C11.3505 44.0065 11.5853 44.2218 11.8206 44.422C11.8508 44.4444 12.101 44.6005 12.101 44.6447C12.101 44.7412 11.9115 44.8081 11.8357 44.8305C11.7295 44.8751 11.4337 44.9792 11.3124 44.9419C11.2443 44.9195 11.2443 44.8675 11.1986 44.8378C11.1685 44.7861 11.1381 44.7413 11.1078 44.6969C11.0349 44.7029 10.9615 44.7057 10.888 44.7044Z" fill="black"/>
<path d="M64.8998 27.8388C63.3243 28.152 61.8913 28.8482 61.6422 30.5758C61.4172 32.1532 62.5069 33.6028 63.8574 34.3451C65.3141 35.1453 67.1382 35.2726 68.5834 34.3915C70.1113 33.4638 70.4549 31.5966 69.5311 30.1353C68.4769 28.4999 66.7356 28.0244 64.8998 27.8388ZM65.9066 27.0852C67.7776 27.352 69.5191 28.6625 70.1467 30.4252C70.7985 32.2346 70.1942 34.2293 68.4768 35.2266C64.9943 37.233 60.3392 33.893 61.1803 30.0426C61.3935 29.0683 61.9975 28.3147 62.8268 27.7348C63.7389 27.0969 64.8405 27.0852 65.9066 27.0852Z" fill="black"/>
<path d="M66.9647 5.86073C63.9247 4.52046 60.8993 3.17992 57.8593 1.82379C57.7322 3.16432 57.6042 4.52046 57.4933 5.86073C57.4607 6.21917 57.318 6.71802 57.3815 7.07646C57.4453 7.46636 57.3181 7.41943 57.8274 7.35702C58.4803 7.29475 59.1324 7.12326 59.7853 7.01432C60.9474 6.81163 62.1887 6.74936 63.3193 6.45319C63.8923 6.29744 64.4496 6.28145 65.0389 6.18823C65.6754 6.11036 66.3121 5.9234 66.9647 5.86073ZM56.697 8.46367C56.697 6.95191 56.8722 5.45549 57.0149 3.9436C57.1426 2.5876 57.1902 1.2936 57.6523 0C58.0815 0.748341 59.2441 1.05984 59.9765 1.43401C60.9791 1.96407 62.0461 2.35345 63.0646 2.8523C64.0673 3.33568 65.0386 3.8812 66.0412 4.34885C66.5506 4.59807 67.0763 4.81636 67.5855 5.06572C67.9035 5.2216 68.6681 5.47109 68.8586 5.75153C69.4642 6.60881 67.3947 6.68669 66.9965 6.76483C65.8024 6.99845 64.5927 7.12313 63.4144 7.35702C62.3002 7.57531 61.186 7.778 60.072 7.98068C58.9571 8.16764 57.8111 8.46367 56.697 8.46367Z" fill="black"/>
<path d="M20.1906 29.6646C20.3044 29.9393 20.1149 30.0059 19.8874 30.1026C19.5916 30.2288 19.3036 30.3625 19.0003 30.4737C18.371 30.7114 17.7342 30.9268 17.1125 31.2014C15.9371 31.7208 14.7394 32.2258 13.5792 32.7825C13.2912 32.9237 13.0029 33.0571 12.7149 33.1909C12.4115 33.3319 12.0703 33.5623 11.7444 33.6437C11.4639 33.7104 11.4332 33.5176 11.6002 33.3394C11.8126 33.1092 12.1463 32.9309 12.4115 32.775C13.5186 32.1069 14.7241 31.5725 15.937 31.1122C17.3397 30.5777 18.7424 30.0656 20.1906 29.6646Z" fill="black"/>
<path d="M28.3103 62.991C30.077 63.0958 31.8186 63.1838 33.5847 63.2718C33.2906 61.5368 32.9715 59.8197 32.6771 58.0852C31.6471 58.2602 30.6411 58.4173 29.6104 58.5923C29.1199 58.6803 28.384 58.6981 27.967 58.8731C27.801 58.894 27.637 58.9237 27.4757 58.9602V59.6266C27.4757 60.2922 27.4269 60.9589 27.4024 61.6243C27.3777 61.9045 27.2552 62.308 27.3532 62.5882C27.1818 62.8681 27.3043 62.991 27.6722 62.9381C27.8687 62.9558 28.0893 62.9737 28.3103 62.991ZM27.0839 64.253C25.7103 63.7616 26.0782 62.2552 26.0782 61.3089C26.0782 60.6951 26.1512 60.0995 26.1512 59.486C26.1764 59.066 26.0287 58.5582 26.2248 58.1555C26.5928 57.436 28.3348 57.454 29.2425 57.5066C29.8799 57.5356 30.5197 57.5294 31.1561 57.4888C31.5001 57.4719 31.8682 57.5238 32.2111 57.454C32.4584 57.3475 32.6958 57.2307 32.9228 57.104C34.1248 57.1382 34.149 59.2059 34.2227 59.7317C34.4193 61.0289 34.5908 62.3252 34.7622 63.6218C34.8112 63.9723 34.9832 64.3582 34.5173 64.5502C34.1003 64.726 33.02 64.5502 32.5546 64.5502C30.739 64.481 28.8988 64.2703 27.0839 64.253Z" fill="black"/>
<path d="M11.1683 31.4572C11.0545 31.1897 12.2221 30.8705 12.442 30.7815C12.9726 30.5663 13.5414 30.4326 14.0873 30.2692C14.6257 30.1058 15.1642 29.9278 15.6945 29.7419C15.8615 29.6827 17.0366 29.1185 17.0973 29.2004C17.302 29.4751 14.8227 30.3286 14.5877 30.4102C13.4655 30.8187 12.3054 31.1157 11.1683 31.4572Z" fill="black"/>
<path d="M61.3903 10.8088C61.0871 10.8088 60.6473 10.898 60.3744 10.7791C60.7157 10.7865 61.0569 10.794 61.3903 10.8088Z" fill="black"/>
<path d="M18.9246 19.015H18.2495C18.4773 18.9629 18.6971 18.9333 18.9246 19.015Z" fill="black"/>
<path d="M53.9753 18.8445H54.4545C54.2872 18.8371 54.1349 18.8371 53.9753 18.8445Z" fill="black"/>
<path d="M36.5995 53.5013C36.4321 53.5162 36.2649 53.5236 36.0901 53.5387C36.2573 53.5236 36.4323 53.509 36.5995 53.5013Z" fill="black"/>
<path d="M37.5469 21.8263C37.3721 21.8412 37.2049 21.856 37.0299 21.8709C37.2049 21.8486 37.3797 21.8338 37.5469 21.8263Z" fill="black"/>
<path d="M30.8898 22.1483C30.7375 22.1632 30.5854 22.1783 30.4333 22.1857C30.5854 22.1783 30.7375 22.1632 30.8898 22.1483Z" fill="black"/>
<path d="M37.5393 11.6278H37.0831C37.2284 11.5645 37.3942 11.5645 37.5393 11.6278Z" fill="black"/>
<path d="M10.0546 37.1173C9.9254 37.1101 9.82642 37.1695 9.75793 37.0502C9.87222 36.9686 9.94057 37.0727 10.0546 37.1173Z" fill="black"/>
<path d="M33.2859 27.2727L32.8906 27.2283L33.2859 27.2727Z" fill="black"/>
<path d="M35.9232 56.3669C36.0067 56.3669 36.0981 56.3743 36.1817 56.3743C36.0979 56.3669 36.0143 56.3669 35.9232 56.3669Z" fill="black"/>
<path d="M55.9863 11.0472C55.8493 11.0622 55.7126 11.0696 55.5834 11.0846C55.72 11.0696 55.8493 11.0622 55.9863 11.0472Z" fill="black"/>
<path d="M35.9166 21.9335C35.7874 21.9482 35.6506 21.9557 35.5212 21.9706C35.6504 21.9557 35.7799 21.9407 35.9166 21.9335Z" fill="black"/>
<path d="M32.2167 22.1374C32.0875 22.1224 31.9581 22.1077 31.8213 22.0927C31.9581 22.1151 32.1026 22.0183 32.2167 22.1374Z" fill="black"/>
<path d="M44.0205 27.2587C44.1129 27.24 44.2076 27.2328 44.3019 27.2363C44.2867 27.2809 44.051 27.2587 44.0205 27.2587Z" fill="black"/>
<path d="M35.756 37.2632C35.8473 37.2632 35.9308 37.2632 36.0145 37.2705C35.9308 37.2705 35.8396 37.2705 35.756 37.2632Z" fill="black"/>
<path d="M27.8566 27.0745C27.7271 27.0893 27.598 27.0968 27.4686 27.1117C27.6056 27.0968 27.7349 27.0893 27.8566 27.0745Z" fill="black"/>
<path d="M13.5638 26.649C13.6322 26.649 13.7007 26.6565 13.769 26.6565C13.701 26.6504 13.6325 26.6477 13.5638 26.649Z" fill="black"/>
<path d="M32.3833 27.1713C32.2768 27.1713 32.1628 27.1638 32.0563 27.1638C32.1628 27.1638 32.2693 27.1713 32.3833 27.1713Z" fill="black"/>
<path d="M12.1174 26.3625C12.0032 26.3774 11.8966 26.3923 11.7826 26.3998C11.8966 26.3848 12.0032 26.3774 12.1174 26.3625Z" fill="black"/>
<path d="M27.2567 25.4395C27.3251 25.4395 27.3934 25.4471 27.4619 25.4471C27.3936 25.4483 27.3249 25.4458 27.2567 25.4395Z" fill="black"/>
<path d="M32.4576 36.6734C32.5261 36.6662 32.5948 36.6662 32.663 36.6586C32.5945 36.66 32.526 36.6649 32.4576 36.6734Z" fill="black"/>
<path d="M37.759 27.8772C37.6451 27.8623 37.5386 27.8475 37.4246 27.84C37.5312 27.8547 37.6451 27.8623 37.759 27.8772Z" fill="black"/>
<path d="M4.95956 35.9125C4.84555 35.8976 4.7314 35.89 4.60986 35.8751C4.7314 35.89 4.84555 35.9048 4.95956 35.9125Z" fill="black"/>
<path d="M2.50308 48.7898C2.38907 48.8047 2.27492 48.8123 2.16077 48.8271C2.27492 48.8195 2.38893 48.8048 2.50308 48.7898Z" fill="black"/>
<path d="M64.1651 18.8212C64.1577 18.9179 64.1502 19.0149 64.1353 19.1116C64.1501 19.0149 64.1577 18.9179 64.1651 18.8212Z" fill="black"/>
<path d="M14.0121 50.9255C13.8981 50.94 13.7839 50.948 13.67 50.9625C13.7839 50.948 13.8981 50.9328 14.0121 50.9255Z" fill="black"/>
<path d="M12.8977 51.0402C12.7962 51.1221 12.6495 51.1221 12.5477 51.0402H12.8977Z" fill="black"/>
<path d="M23.7763 13.8633C23.7687 13.7667 23.754 13.6698 23.7463 13.573C23.754 13.6698 23.7612 13.7666 23.7763 13.8633Z" fill="black"/>
<path d="M35.9694 11.6984C35.8554 11.7134 35.7415 11.7282 35.6348 11.7356C35.7488 11.7208 35.8553 11.7059 35.9694 11.6984Z" fill="black"/>
<path d="M36.3717 11.6448C36.2575 11.6596 36.1434 11.6671 36.0294 11.6821C36.1358 11.6671 36.2575 11.6521 36.3717 11.6448Z" fill="black"/>
<path d="M28.8188 23.5071C29.1868 23.4364 29.5653 23.4364 29.9333 23.5071H28.8188Z" fill="black"/>
<path d="M38.7438 19.3977C38.8198 19.1968 38.8426 19.1221 39.0328 19.0179C38.9566 19.2114 38.9415 19.3155 38.7438 19.3977Z" fill="black"/>
<path d="M47.8267 39.0126C47.8341 39.2205 47.8415 39.4284 47.8489 39.6286C47.8415 39.4284 47.8341 39.2205 47.8267 39.0126Z" fill="black"/>
<path d="M61.3317 11.287C61.1643 11.2945 60.9973 11.2945 60.822 11.302C60.9973 11.2945 61.1643 11.287 61.3317 11.287Z" fill="black"/>
<path d="M38.8875 42.6794C38.8947 42.8506 38.9023 43.0218 38.9023 43.1933C38.9024 43.0217 38.8948 42.8506 38.8875 42.6794Z" fill="black"/>
<path d="M18.2495 37.1702H18.7592C18.592 37.1775 18.417 37.1775 18.2495 37.1702Z" fill="black"/>
<path d="M32.3755 22.8854C32.292 22.8854 32.2082 22.8781 32.1246 22.8781C32.2082 22.8781 32.2921 22.8854 32.3755 22.8854Z" fill="black"/>
<path d="M20.3191 37.1176C20.4562 37.1029 20.5854 37.0955 20.7222 37.0807C20.5854 37.0955 20.4561 37.1104 20.3191 37.1176Z" fill="black"/>
<path d="M17.4225 37.1775C17.5518 37.1775 17.681 37.1702 17.818 37.1702C17.681 37.1775 17.5518 37.1775 17.4225 37.1775Z" fill="black"/>
<path d="M18.811 37.1749C18.9479 37.1603 19.0846 37.1527 19.2139 37.1378C19.0846 37.1527 18.9479 37.1602 18.811 37.1749Z" fill="black"/>
<path d="M47.7661 34.4305C47.7735 34.3337 47.7885 34.2368 47.796 34.14C47.7885 34.2368 47.781 34.3336 47.7661 34.4305Z" fill="black"/>
<path d="M27.6206 24.6489C27.7045 24.6564 27.7879 24.6639 27.8793 24.6713C27.7879 24.6789 27.689 24.6789 27.5978 24.6861C27.5903 24.6639 27.5978 24.6489 27.6206 24.6489Z" fill="black"/>
<path d="M49.3652 40.9372C49.3578 40.8476 49.3578 40.7585 49.3505 40.6688C49.3505 40.7585 49.358 40.8476 49.3652 40.9372Z" fill="black"/>
<path d="M29.1376 24.3023C29.0691 24.3011 29.0006 24.3035 28.9324 24.3099C29.0009 24.3099 29.0692 24.3023 29.1376 24.3023Z" fill="black"/>
<path d="M54.0139 35.4386C54.1277 35.4535 54.2419 35.4607 54.3561 35.4759C54.2419 35.4607 54.1277 35.4535 54.0139 35.4386Z" fill="black"/>
<path d="M26.4532 14.7821C26.5291 14.8193 26.4913 14.9905 26.415 14.9758C26.4316 14.912 26.444 14.8473 26.4532 14.7821Z" fill="black"/>
<path d="M64.1741 34.7589C64.1081 34.7604 64.0419 34.758 63.9763 34.7517C64.0419 34.7576 64.1081 34.7604 64.1741 34.7589Z" fill="black"/>
<path d="M23.2606 13.9121L23.2384 13.4656L23.2606 13.9121Z" fill="black"/>
<path d="M35.9906 55.791C36.0971 55.8059 36.1959 55.8209 36.3024 55.8357C36.1961 55.8207 36.0896 55.8059 35.9906 55.791Z" fill="black"/>
<path d="M35.3089 17.6599C34.945 17.734 34.5659 17.7711 34.2094 17.8826C34.1184 17.9124 33.8304 18.0757 33.7243 18.0311C33.565 17.9642 33.6408 17.7935 33.7091 17.7043C33.9051 17.4622 34.2048 17.3221 34.5205 17.3258C34.8161 17.3332 35.2255 17.3184 35.3089 17.6599Z" fill="black"/>
<path d="M34.2927 18.3205C34.6944 18.5951 35.0055 18.729 35.0357 18.1128C35.468 18.1721 35.2784 18.8552 34.9448 18.9071C34.5885 18.9589 34.3459 18.6101 34.2927 18.3205Z" fill="black"/>
</svg>
