<svg width="108" height="75" viewBox="0 0 108 75" fill="none" xmlns="http://www.w3.org/2000/svg">
<path d="M88.4139 21.5178C87.2227 18.94 85.4498 16.4949 83.627 14.457C82.4706 13.1645 81.1123 12.0913 79.8155 11.0414C79.1322 10.4882 78.4033 10.0301 77.6612 9.63332C76.2572 8.88317 74.8326 8.10871 73.3742 7.60285C71.8553 7.07596 70.2794 6.80684 68.7591 6.54856C66.4759 6.16089 64.1712 6.43214 62.0085 6.75607C57.695 7.40278 54.1289 10.033 50.5868 12.3867C48.812 13.5659 47.0255 14.726 45.2647 15.9296C43.9611 16.8207 42.683 17.756 41.3114 18.5207C41.0555 18.6024 40.797 18.6741 40.5345 18.7348C39.9713 18.7204 39.4053 18.6697 38.8361 18.5885C36.3657 17.9305 33.9178 16.9733 31.4456 16.325C27.4804 15.2855 23.4318 14.6451 19.731 15.7966C16.3199 16.8583 12.959 18.8915 10.7707 21.9791C8.37418 25.3604 7.09331 30.0075 7.83491 34.8009C7.91181 36.054 8.17044 37.2597 8.53279 38.7284C9.2186 41.5083 10.967 43.7917 12.647 45.9438C14.2847 48.0415 16.4879 49.2839 18.6244 50.2558C21.714 51.6613 25.161 51.1365 28.0008 50.3439C29.5941 49.8987 31.1255 49.2323 32.7482 48.872C33.0004 48.8838 33.2531 48.905 33.5069 48.9338C34.3051 49.1636 35.1027 49.4436 35.888 49.7724C36.715 50.2838 37.5142 50.8663 38.2947 51.4913C39.6017 52.6856 40.8545 53.9411 42.0629 55.2932C44.1342 57.6112 46.3841 59.8852 48.8911 61.4484C53.6958 64.4438 58.8323 66.5423 63.9699 66.9372C69.3811 67.3528 74.5808 65.3992 78.6453 62.1221C81.8535 59.5358 84.8938 56.4538 87.1204 52.6996C89.4743 48.7301 91.3984 44.5132 91.9171 39.3826C92.1581 36.9965 92.196 34.387 91.7665 31.8827C91.4755 30.1866 91.1369 28.4603 90.6246 26.7874C90.072 24.9822 89.1977 23.2153 88.4139 21.5178Z" fill="#C1EAF4"/>
<path fill-rule="evenodd" clip-rule="evenodd" d="M85.0722 19.3898C85.1557 19.3849 85.2393 19.3741 85.3228 19.3758C86.0878 19.39 86.0877 19.3908 86.088 20.1563C86.2407 20.1984 86.3997 20.2418 86.5584 20.2863C86.7188 20.3312 86.8791 20.3778 87.0335 20.4218C87.1755 20.23 87.2775 19.9516 87.4424 19.9082C87.619 19.8617 87.8605 20.0241 88.0635 20.1176C88.2966 20.2253 88.2917 20.2359 88.0744 20.9077C88.3399 21.0951 88.6105 21.2861 88.8797 21.4761C89.4993 21.0445 89.4914 21.052 89.9386 21.5183C90.3397 21.9364 89.7399 21.9948 89.6977 22.3121C89.8776 22.5291 90.0946 22.7906 90.3235 23.0662C90.9446 22.8701 90.9446 22.8701 91.1832 23.4083C91.3358 23.7531 91.3358 23.7531 90.7167 24.0986C90.7847 24.3749 90.8397 24.6639 90.9348 24.9392C90.9592 25.0096 91.1209 25.0894 91.203 25.0745C91.5779 25.007 91.7223 25.1341 91.7305 25.5177C91.7411 26.0188 91.7656 26.0182 91.0585 26.1895C91.0427 26.332 91.037 26.4858 91.0069 26.6348C90.9357 26.9843 90.895 27.2976 91.4059 27.3312C91.4689 27.3354 91.5201 27.52 91.5752 27.6216C91.5796 27.6298 91.571 27.6446 91.5691 27.6562C91.4582 28.3596 91.4098 28.3928 90.6646 28.2403C90.5946 28.3869 90.521 28.5435 90.4451 28.6991C90.3732 28.8473 90.2984 28.9944 90.2279 29.1356C90.7885 29.6625 90.7845 29.6591 90.3694 30.1852C90.0357 30.6078 89.8727 30.0956 89.5651 30.0694C89.3545 30.2709 89.1086 30.5057 88.8668 30.7368C89.1904 31.4137 89.182 31.4018 88.6645 31.7569C88.1682 32.0976 88.1945 31.4981 87.922 31.3869C87.6423 31.5135 87.3403 31.6501 87.0505 31.7812C87.059 32.0237 87.1474 32.2969 87.0498 32.4637C86.9703 32.5997 86.6715 32.6186 86.4651 32.6709C86.1973 32.7384 86.1953 32.7306 85.9364 32.0734C85.6141 32.0986 85.2849 32.1243 84.9613 32.1498C84.7318 32.8926 84.7318 32.8926 84.1003 32.7899C83.806 32.7422 83.806 32.7422 83.833 32.0567C83.5145 31.9677 83.1867 31.876 82.8671 31.7868C82.4156 32.4161 82.4192 32.4099 81.8345 32.0946C81.3544 31.8355 81.8614 31.594 81.803 31.2841C81.5777 31.1226 81.3011 30.9245 81.0278 30.7286C80.4281 31.1667 80.4458 31.1479 80.0119 30.7432C79.5636 30.325 80.1162 30.2053 80.2253 29.9308C80.0451 29.668 79.8585 29.3959 79.6747 29.1279C78.9131 29.3117 78.9131 29.3117 78.6733 28.6928C78.4809 28.196 79.0376 28.3392 79.1847 28.074C79.1138 27.7964 79.0322 27.4778 78.95 27.1567C78.9137 27.1435 78.8797 27.1189 78.8481 27.1215C78.1478 27.1775 78.2395 27.184 78.1609 26.4799C78.1294 26.1959 78.2395 26.0665 78.5101 26.0857C78.8157 26.1075 78.9063 25.9728 78.8934 25.6897C78.8835 25.4783 78.9219 25.265 78.9382 25.0597C78.729 24.9471 78.4348 24.8839 78.3548 24.7187C78.2772 24.5582 78.3952 24.2846 78.4697 24.0756C78.6353 23.6115 78.9534 24.0077 79.2459 23.9481C79.3787 23.6799 79.5292 23.3766 79.6771 23.0779C79.1475 22.5576 79.1691 22.5715 79.4927 22.0819C79.8352 21.5635 80.0443 22.1199 80.3389 22.149C80.565 21.9296 80.8029 21.6992 81.038 21.4711C80.7133 20.7957 80.725 20.8121 81.2323 20.4573C81.726 20.1121 81.7094 20.6989 81.9874 20.8196C82.2603 20.6972 82.562 20.5617 82.8664 20.4253C82.8499 20.1961 82.7515 19.9255 82.8433 19.7555C82.9169 19.6194 83.2191 19.6 83.423 19.5384C83.994 19.3662 83.7645 19.9482 83.9983 20.1327C84.3057 20.1088 84.6362 20.083 84.9749 20.0566C85.0126 19.823 85.048 19.6023 85.0836 19.3816L85.0722 19.3898ZM89.894 26.8739C90.3237 24.1792 88.4707 21.6347 85.7664 21.2063C83.027 20.7723 80.4406 22.6095 80.0074 25.297C79.5679 28.0257 81.4267 30.5706 84.1758 31.0036C86.9101 31.434 89.4605 29.5919 89.894 26.8739Z" fill="black"/>
<path fill-rule="evenodd" clip-rule="evenodd" d="M85.0835 19.3829C85.0271 19.3646 84.9677 19.3521 84.9143 19.3271C84.3565 19.0627 84.3317 18.9968 84.5853 18.4575C84.4136 18.2512 84.2395 18.0422 84.0661 17.8342C83.4887 17.9708 83.5059 17.9641 83.3136 17.4756C83.1614 17.0893 83.4679 17.0741 83.7083 16.9543C83.6956 16.6879 83.682 16.4091 83.6688 16.1353C83.1403 15.8889 83.1404 15.8889 83.266 15.4269C83.3461 15.1316 83.3461 15.1316 83.9121 15.1794C84.0585 14.9563 84.2071 14.7305 84.354 14.5072C84.0557 14.0119 84.0557 14.0119 84.4131 13.7309C84.706 13.5007 84.706 13.5007 85.1055 13.8873C85.3008 13.8132 85.5104 13.7545 85.6971 13.6542C85.7848 13.6071 85.893 13.4715 85.8819 13.3906C85.8356 13.0501 86.0422 13.0098 86.2909 13.0067C86.5198 13.0041 86.812 12.9222 86.802 13.307C86.7969 13.5049 86.8827 13.5772 87.0692 13.6044C87.2571 13.6319 87.4397 13.693 87.6428 13.7439C87.6668 13.7191 87.7028 13.6891 87.7297 13.6528C87.9586 13.3421 88.4665 13.3931 88.6263 13.7497C88.6511 13.805 88.6505 13.9093 88.6147 13.9476C88.373 14.2074 88.5283 14.3859 88.7175 14.5737C88.8178 14.6731 88.896 14.7938 88.9806 14.9004C89.5388 14.7464 89.5302 14.7499 89.7203 15.2235C89.8138 15.4566 89.7864 15.5939 89.5327 15.697C89.4445 15.7329 89.3775 15.8886 89.3558 16.0001C89.3296 16.136 89.3423 16.2873 89.3747 16.4235C89.3968 16.5158 89.4713 16.6557 89.5408 16.6675C89.9503 16.7374 89.8637 16.9899 89.8025 17.258C89.7367 17.5463 89.5956 17.6754 89.2936 17.5627C89.2507 17.5465 89.2015 17.5468 89.1428 17.5375C89.0184 17.7247 88.8819 17.9046 88.7771 18.101C88.7393 18.1721 88.7385 18.3189 88.7868 18.37C89.1184 18.7222 88.7829 18.8492 88.5837 19.0369C88.3279 19.2778 88.1849 19.1047 88.0363 18.9139C88.0149 18.8865 87.983 18.8671 87.9457 18.8348C87.7403 18.9125 87.5245 18.9792 87.3241 19.0773C87.2486 19.1143 87.1531 19.2304 87.162 19.2981C87.2238 19.7673 86.8835 19.6961 86.609 19.7312C86.2688 19.7747 86.2432 19.5531 86.23 19.3126C86.228 19.2777 86.2168 19.2431 86.2066 19.1925C85.8069 19.131 85.3582 18.759 85.0721 19.3909C85.0718 19.3913 85.0835 19.3829 85.0835 19.3829ZM88.6736 16.6926C88.8534 15.5158 88.0446 14.4134 86.8664 14.2296C85.666 14.0425 84.5503 14.8575 84.3742 16.0509C84.1994 17.2336 85.0125 18.3214 86.2002 18.4941C87.3922 18.6676 88.4944 17.8649 88.6736 16.6926Z" fill="black"/>
<path fill-rule="evenodd" clip-rule="evenodd" d="M82.1541 14.7817C81.8876 14.6526 81.6591 14.5718 81.4692 14.4373C81.3716 14.3683 81.3432 14.2033 81.2834 14.0817C81.4078 14.058 81.5561 13.9797 81.6526 14.0207C82.0588 14.1931 82.4478 14.4046 82.8468 14.5946C83.0487 14.6909 83.1036 14.8199 82.9992 15.0235C82.7989 15.4146 82.6199 15.817 82.4034 16.1987C82.3515 16.2902 82.1877 16.3192 82.0752 16.3769C82.0481 16.2474 81.9712 16.1032 82.0047 15.9914C82.0716 15.7674 82.1989 15.5611 82.304 15.3421C80.8248 15.6193 78.8893 17.8266 79.3036 20.3464C79.4844 20.1293 79.6393 19.9495 79.7868 19.7638C79.8984 19.6234 80.0403 19.4806 80.1913 19.6438C80.2566 19.7143 80.2204 19.9527 80.1477 20.0591C79.9197 20.392 79.6464 20.6941 79.4019 21.0165C79.2591 21.2048 79.1093 21.2476 78.9174 21.0979C78.5693 20.8268 78.2116 20.566 77.8799 20.2763C77.8006 20.2072 77.8073 20.0411 77.7745 19.9195C77.9112 19.9222 78.0714 19.8805 78.1795 19.9369C78.3749 20.0387 78.5394 20.1991 78.7678 20.3742C78.6507 17.7541 79.7282 15.9009 82.1541 14.7817Z" fill="black"/>
<path fill-rule="evenodd" clip-rule="evenodd" d="M91.0649 16.1953C92.9979 17.9999 93.4562 20.0781 92.5162 22.5362C92.7719 22.4509 92.9719 22.3541 93.1814 22.3249C93.3154 22.3065 93.4634 22.388 93.605 22.4248C93.5238 22.5339 93.4657 22.6952 93.3573 22.7424C92.9744 22.9092 92.5727 23.0331 92.1812 23.1809C91.944 23.2704 91.7978 23.2159 91.7136 22.9658C91.5849 22.5832 91.4183 22.2124 91.3058 21.8256C91.2696 21.701 91.3536 21.542 91.3826 21.3986C91.5017 21.4834 91.6637 21.5434 91.7306 21.6581C91.8468 21.8572 91.9042 22.0903 91.9966 22.336C93.0332 20.6105 92.4674 17.8201 90.7371 16.6356C90.7722 16.9161 90.8234 17.1692 90.8264 17.4232C90.8276 17.5229 90.7218 17.6239 90.6648 17.7245C90.5668 17.647 90.4008 17.583 90.382 17.49C90.2905 17.0372 90.2238 16.5778 90.1841 16.1178C90.1758 16.0208 90.3032 15.838 90.3934 15.8199C90.8616 15.7261 91.3371 15.6609 91.8128 15.616C91.9032 15.6076 92.0065 15.7351 92.1039 15.7999C92.0303 15.8905 91.9721 16.0355 91.8798 16.0613C91.6315 16.1308 91.3684 16.1496 91.0649 16.1953Z" fill="black"/>
<path fill-rule="evenodd" clip-rule="evenodd" d="M21.3969 40.2557C20.9106 40.266 20.4244 40.2713 19.9383 40.2892C19.7084 40.2976 19.6089 40.201 19.615 39.9771C19.6238 39.649 19.6024 39.3184 19.638 38.9936C19.7205 38.2417 20.175 37.7661 20.8802 37.5539C21.5863 37.3418 22.2132 37.5359 22.7067 38.0816C22.9828 38.3869 23.1314 38.7585 23.1447 39.1744C23.153 39.4316 23.1575 39.6885 23.1626 39.9456C23.1666 40.1358 23.0702 40.2219 22.8796 40.2247C22.3854 40.232 21.8912 40.245 21.3969 40.2557ZM22.6957 39.7743C22.7482 39.0949 22.6893 38.4712 22.0526 38.1019C21.5664 37.8199 21.0575 37.8479 20.59 38.1787C20.0013 38.5954 20.006 39.1971 20.0742 39.8306C20.9531 39.8117 21.8167 39.7933 22.6957 39.7743Z" fill="black"/>
<path fill-rule="evenodd" clip-rule="evenodd" d="M25.4075 44.2889C25.0755 44.2962 24.7431 44.2991 24.4111 44.3118C24.2051 44.3197 24.1093 44.2271 24.1099 44.0278C24.1104 43.803 24.0946 43.5765 24.1165 43.3538C24.1751 42.7565 24.6967 42.2766 25.3036 42.2433C25.9465 42.2079 26.531 42.6251 26.6442 43.2302C26.6926 43.4883 26.6868 43.7576 26.6926 44.0219C26.6963 44.1882 26.5943 44.2649 26.4283 44.2674C26.088 44.2727 25.7477 44.2814 25.4075 44.2889ZM26.2215 43.8202C26.2711 43.3783 26.196 43.0106 25.7912 42.784C25.492 42.6167 25.1219 42.6564 24.8579 42.8736C24.5754 43.1062 24.4785 43.4732 24.6014 43.8547C25.1333 43.8435 25.6666 43.832 26.2215 43.8202Z" fill="black"/>
<path fill-rule="evenodd" clip-rule="evenodd" d="M14.9722 37.1137C14.648 37.1209 14.3237 37.1221 13.9998 37.1367C13.7866 37.1463 13.6784 37.0633 13.6799 36.8466C13.6815 36.6381 13.6642 36.4282 13.6791 36.2204C13.7243 35.5886 14.252 35.0943 14.8997 35.0639C15.5348 35.0342 16.111 35.4685 16.217 36.0807C16.2592 36.3243 16.2544 36.5765 16.262 36.8248C16.2673 37.0004 16.1742 37.0899 15.9933 37.0924C15.6528 37.0972 15.3125 37.1064 14.9722 37.1137ZM15.7808 36.6452C15.847 36.1242 15.7121 35.7983 15.3626 35.608C15.065 35.4458 14.6924 35.48 14.427 35.694C14.1468 35.9197 14.0494 36.2832 14.1675 36.6799C14.6981 36.6684 15.2311 36.657 15.7808 36.6452Z" fill="black"/>
<path fill-rule="evenodd" clip-rule="evenodd" d="M27.6584 36.8389C27.3343 36.8459 27.0099 36.8478 26.6861 36.8614C26.4696 36.8705 26.367 36.7756 26.3701 36.5648C26.3736 36.3243 26.354 36.08 26.3896 35.8442C26.486 35.2042 27.0648 34.7579 27.7231 34.7904C28.3671 34.8221 28.8889 35.32 28.9363 35.955C28.9507 36.147 28.9472 36.3404 28.9537 36.533C28.96 36.7217 28.8739 36.8157 28.6792 36.8178C28.339 36.8215 27.9986 36.8314 27.6584 36.8389ZM28.4877 36.3784C28.5334 35.9277 28.4617 35.554 28.0548 35.3344C27.743 35.1661 27.4271 35.19 27.1438 35.4047C26.8056 35.6607 26.7716 36.0148 26.8403 36.4138C27.3195 36.4036 27.7871 36.3935 28.2544 36.3834C28.3257 36.3819 28.3972 36.3804 28.4877 36.3784Z" fill="black"/>
<path fill-rule="evenodd" clip-rule="evenodd" d="M21.2219 32.4915C20.8897 32.4989 20.5573 32.5026 20.2252 32.5144C20.0188 32.5217 19.9228 32.4276 19.9287 32.2273C19.937 31.9551 19.9095 31.6754 19.9648 31.4127C20.0951 30.7943 20.6675 30.4033 21.3183 30.4468C21.9207 30.4868 22.4286 30.9708 22.4908 31.577C22.5123 31.7844 22.5075 31.9943 22.511 32.2032C22.514 32.3806 22.4239 32.4679 22.2431 32.4703C21.9025 32.475 21.5622 32.4843 21.2219 32.4915ZM22.0461 32.0225C22.0906 31.5778 22.0116 31.2067 21.6069 30.9875C21.2945 30.8181 20.9808 30.8479 20.6952 31.0597C20.3996 31.2794 20.2963 31.651 20.4093 32.0576C20.9471 32.046 21.4868 32.0344 22.0461 32.0225Z" fill="black"/>
<path fill-rule="evenodd" clip-rule="evenodd" d="M17.6413 44.454C17.3172 44.4614 16.9929 44.4634 16.6692 44.477C16.4551 44.4858 16.3476 44.398 16.3516 44.1835C16.356 43.9431 16.3331 43.6984 16.3705 43.4632C16.4746 42.8081 17.0499 42.3712 17.7262 42.4072C18.3668 42.4412 18.8862 42.9657 18.9216 43.6179C18.9311 43.7944 18.9285 43.9714 18.9354 44.1478C18.9429 44.3379 18.856 44.4304 18.6623 44.4328C18.3219 44.4371 17.9814 44.4465 17.6413 44.454ZM18.4706 43.9838C18.5151 43.5304 18.4343 43.1531 18.0109 42.939C17.6929 42.7784 17.3822 42.8195 17.1028 43.0383C16.821 43.2592 16.7218 43.6341 16.8359 44.0188C17.3738 44.0074 17.9132 43.9957 18.4706 43.9838Z" fill="black"/>
<path fill-rule="evenodd" clip-rule="evenodd" d="M21.2803 35.4159C21.7972 35.4009 22.2194 35.7939 22.235 36.3046C22.2505 36.8113 21.8481 37.2375 21.3379 37.2544C20.8326 37.271 20.3951 36.8636 20.3792 36.3618C20.3633 35.8564 20.7689 35.4307 21.2803 35.4159ZM20.8341 36.3342C20.835 36.5962 21.0486 36.8091 21.3111 36.8097C21.5702 36.8103 21.7869 36.5917 21.785 36.3315C21.7831 36.0671 21.572 35.8575 21.3083 35.8585C21.0432 35.8598 20.8331 36.0703 20.8341 36.3342Z" fill="black"/>
<path fill-rule="evenodd" clip-rule="evenodd" d="M21.3877 43.126C21.9391 43.1142 22.4906 43.103 23.0421 43.09C23.2067 43.0862 23.3751 43.0976 23.3805 43.3056C23.3859 43.5111 23.2219 43.5369 23.0554 43.5403C21.9524 43.5629 20.8494 43.5859 19.7464 43.611C19.5796 43.6146 19.4149 43.5993 19.4082 43.3944C19.4014 43.1866 19.5677 43.1645 19.7331 43.1611C20.2846 43.1506 20.8361 43.138 21.3877 43.126Z" fill="black"/>
<path fill-rule="evenodd" clip-rule="evenodd" d="M16.4929 35.173C16.4225 35.1227 16.3348 35.0907 16.3061 35.031C16.2769 34.9697 16.2851 34.8724 16.3141 34.807C16.3407 34.7474 16.4137 34.705 16.4713 34.6616C17.3669 33.9854 18.2633 33.3099 19.16 32.635C19.205 32.601 19.2537 32.5447 19.2999 32.5453C19.3876 32.5471 19.5085 32.5559 19.5529 32.6112C19.5973 32.6664 19.5862 32.789 19.5596 32.8691C19.5403 32.9277 19.4588 32.968 19.4011 33.0115C18.5117 33.6827 17.6222 34.3538 16.7313 35.0233C16.6621 35.0753 16.5843 35.1161 16.4929 35.173Z" fill="black"/>
<path fill-rule="evenodd" clip-rule="evenodd" d="M23.0797 32.4396C23.1727 32.4862 23.2341 32.5081 23.2859 32.5436C24.2329 33.1932 25.1784 33.8451 26.1252 34.4947C26.2626 34.589 26.3456 34.7051 26.2335 34.8558C26.1285 34.9969 25.9969 34.9497 25.8702 34.8624C24.9248 34.2102 23.9763 33.563 23.0357 32.9045C22.9607 32.8518 22.9052 32.7238 22.9049 32.6307C22.9048 32.5675 23.017 32.5038 23.0797 32.4396Z" fill="black"/>
<path fill-rule="evenodd" clip-rule="evenodd" d="M27.3824 37.4442C27.3514 37.546 27.3371 37.6 27.3189 37.653C27.0216 38.5184 26.727 39.3849 26.4218 40.2478C26.391 40.3352 26.3108 40.436 26.2287 40.4684C26.0598 40.5347 25.9201 40.3516 25.9876 40.1516C26.2081 39.498 26.4368 38.8471 26.6618 38.1951C26.7506 37.9376 26.8235 37.6732 26.9338 37.425C26.9678 37.3484 27.1015 37.2745 27.1892 37.275C27.2583 37.2753 27.3268 37.3917 27.3824 37.4442Z" fill="black"/>
<path fill-rule="evenodd" clip-rule="evenodd" d="M26.0533 41.2734C26.0647 41.6592 25.7461 41.9898 25.3567 41.9967C24.966 42.0039 24.6361 41.6868 24.6319 41.3011C24.6278 40.9214 24.9327 40.6064 25.3165 40.5934C25.7126 40.5801 26.0417 40.884 26.0533 41.2734ZM25.3894 40.9967C25.351 40.9982 25.3123 40.9995 25.274 41.001C25.2117 41.1036 25.0946 41.211 25.1034 41.3073C25.1115 41.395 25.2464 41.522 25.3426 41.5395C25.4918 41.5667 25.6172 41.447 25.5881 41.2912C25.5682 41.1845 25.4588 41.0942 25.3894 40.9967Z" fill="black"/>
<path fill-rule="evenodd" clip-rule="evenodd" d="M21.1793 30.2C20.7874 30.2094 20.4607 29.8986 20.4529 29.5087C20.4451 29.1176 20.7578 28.7994 21.1538 28.7953C21.5391 28.7912 21.8563 29.0913 21.8687 29.4713C21.8815 29.8594 21.5684 30.1905 21.1793 30.2ZM21.459 29.5431C21.4582 29.5065 21.4573 29.47 21.4564 29.4335C21.3539 29.3697 21.2476 29.2519 21.1498 29.2583C21.0619 29.2643 20.9323 29.3964 20.9125 29.4916C20.8812 29.6412 21.0026 29.7652 21.1584 29.7394C21.2667 29.7214 21.3595 29.6117 21.459 29.5431Z" fill="black"/>
<path fill-rule="evenodd" clip-rule="evenodd" d="M15.622 34.0961C15.6346 34.4797 15.3143 34.8135 14.9264 34.8213C14.5436 34.8291 14.222 34.53 14.204 34.1504C14.1857 33.7594 14.49 33.4305 14.8839 33.4149C15.2738 33.3994 15.6093 33.7092 15.622 34.0961ZM15.2068 34.159C15.2048 34.1203 15.2029 34.0817 15.201 34.0432C15.0976 33.9837 14.9883 33.8709 14.8925 33.8813C14.8058 33.8906 14.6855 34.0252 14.6667 34.1212C14.6364 34.2751 14.7607 34.3913 14.9159 34.3609C15.0221 34.3401 15.1105 34.2294 15.2068 34.159Z" fill="black"/>
<path fill-rule="evenodd" clip-rule="evenodd" d="M18.2916 41.4441C18.3009 41.8356 17.9892 42.1589 17.5969 42.1649C17.2084 42.171 16.8783 41.8511 16.8754 41.4662C16.8726 41.0874 17.1783 40.774 17.5625 40.7616C17.9604 40.7489 18.2825 41.0501 18.2916 41.4441ZM17.6366 41.1652C17.5988 41.1661 17.5612 41.1668 17.5234 41.1674C17.4572 41.2695 17.3464 41.3669 17.3355 41.4742C17.32 41.6256 17.4502 41.7451 17.6006 41.7072C17.6967 41.6829 17.8255 41.5491 17.8281 41.4611C17.831 41.3642 17.7058 41.264 17.6366 41.1652Z" fill="black"/>
<path fill-rule="evenodd" clip-rule="evenodd" d="M28.3105 33.8014C28.3225 34.1947 28.0159 34.5157 27.6203 34.5237C27.2265 34.5317 26.8979 34.2189 26.8935 33.832C26.8893 33.4558 27.198 33.1344 27.5774 33.1202C27.9724 33.1052 28.2985 33.4082 28.3105 33.8014ZM27.9007 33.883C27.9012 33.8451 27.9017 33.8071 27.9022 33.7691C27.8023 33.7006 27.7004 33.5762 27.6033 33.58C27.5154 33.5832 27.3836 33.7138 27.3592 33.8101C27.3213 33.9598 27.4395 34.0879 27.5948 34.0697C27.7027 34.057 27.7992 33.9487 27.9007 33.883Z" fill="black"/>
<path fill-rule="evenodd" clip-rule="evenodd" d="M16.7312 40.501C16.6786 40.5526 16.6161 40.6644 16.5418 40.6726C16.4632 40.6816 16.3307 40.6123 16.2965 40.5416C16.2063 40.355 16.156 40.1493 16.0905 39.9509C15.8869 39.3338 15.6848 38.716 15.4792 38.0994C15.4275 37.9444 15.385 37.7868 15.5866 37.7182C15.7885 37.6498 15.8567 37.8005 15.9073 37.9549C16.1627 38.7332 16.4182 39.5114 16.673 40.2899C16.6904 40.343 16.7029 40.3977 16.7312 40.501Z" fill="black"/>
<path fill-rule="evenodd" clip-rule="evenodd" d="M18.3859 36.169C18.6932 36.1624 19.0005 36.1579 19.3078 36.1484C19.472 36.1432 19.6141 36.184 19.6172 36.3691C19.6202 36.5588 19.4732 36.5911 19.3119 36.5937C18.6971 36.6044 18.0825 36.6183 17.4679 36.6332C17.311 36.6369 17.1572 36.6232 17.1485 36.4281C17.1392 36.2197 17.2959 36.1904 17.4638 36.1881C17.7712 36.1836 18.0785 36.1756 18.3859 36.169Z" fill="black"/>
<path fill-rule="evenodd" clip-rule="evenodd" d="M24.2695 36.4854C23.9622 36.4921 23.6549 36.4963 23.3477 36.5062C23.1897 36.5114 23.0621 36.4646 23.0582 36.293C23.0541 36.1239 23.1767 36.0647 23.3351 36.0617C23.9739 36.0493 24.6128 36.0347 25.2516 36.0216C25.4091 36.0183 25.5297 36.0732 25.5279 36.2489C25.5265 36.4118 25.4106 36.4616 25.2641 36.4645C24.9325 36.4708 24.601 36.4782 24.2695 36.4854Z" fill="black"/>
<path fill-rule="evenodd" clip-rule="evenodd" d="M21.432 33.9309C21.4377 34.1954 21.4421 34.4598 21.4498 34.7243C21.4543 34.8803 21.4068 35.0035 21.2298 35.0059C21.0512 35.0084 21.0066 34.8828 21.0037 34.7285C20.994 34.1995 20.9833 33.6706 20.9682 33.1416C20.9638 32.9861 21.006 32.8551 21.1761 32.8463C21.363 32.8371 21.4144 32.9725 21.4157 33.1374C21.4179 33.402 21.4263 33.6666 21.432 33.9309Z" fill="black"/>
<path fill-rule="evenodd" clip-rule="evenodd" d="M24.299 40.7258C24.2984 40.897 24.1209 41.0257 23.9914 40.9402C23.7631 40.7899 23.5487 40.6157 23.3461 40.4324C23.3041 40.3942 23.3057 40.2433 23.3471 40.1965C23.3981 40.1391 23.5453 40.0865 23.5928 40.1182C23.8267 40.2734 24.0429 40.4554 24.2612 40.6327C24.2878 40.6544 24.291 40.7048 24.299 40.7258Z" fill="black"/>
<path fill-rule="evenodd" clip-rule="evenodd" d="M18.6045 41.0553C18.5629 41.0227 18.472 40.9862 18.4518 40.9267C18.4282 40.8565 18.4359 40.7368 18.4827 40.6895C18.6459 40.5246 18.8236 40.3699 19.0142 40.2374C19.0719 40.1973 19.2174 40.2103 19.2718 40.2569C19.3256 40.3029 19.3602 40.4673 19.3248 40.5028C19.1336 40.6943 18.9184 40.8625 18.7097 41.0366C18.6938 41.05 18.663 41.0457 18.6045 41.0553Z" fill="black"/>
<path fill-rule="evenodd" clip-rule="evenodd" d="M22.6953 39.7774C21.8164 39.7963 20.9527 39.8148 20.074 39.8337C20.0058 39.2002 20.0011 38.5984 20.5898 38.1818C21.0573 37.851 21.5662 37.8229 22.0524 38.105C22.689 38.4744 22.7478 39.0982 22.6953 39.7774Z" fill="white"/>
<path fill-rule="evenodd" clip-rule="evenodd" d="M26.2215 43.8187C25.6666 43.8305 25.1333 43.842 24.6014 43.8532C24.4785 43.4717 24.5753 43.1047 24.8579 42.8721C25.1218 42.6549 25.4921 42.6152 25.7911 42.7825C26.1959 43.0092 26.271 43.377 26.2215 43.8187Z" fill="white"/>
<path fill-rule="evenodd" clip-rule="evenodd" d="M15.781 36.6444C15.2313 36.6561 14.6983 36.6676 14.1676 36.6789C14.0496 36.2822 14.147 35.9187 14.4271 35.693C14.6925 35.4791 15.0651 35.4448 15.3626 35.607C15.7123 35.7975 15.8472 36.1233 15.781 36.6444Z" fill="white"/>
<path fill-rule="evenodd" clip-rule="evenodd" d="M28.4875 36.3811C28.397 36.3831 28.3256 36.3845 28.2543 36.386C27.7868 36.3961 27.3194 36.4062 26.8401 36.4164C26.7715 36.0174 26.8055 35.6634 27.1436 35.4074C27.4269 35.1928 27.743 35.1687 28.0546 35.337C28.4615 35.5568 28.5333 35.9305 28.4875 36.3811Z" fill="white"/>
<path fill-rule="evenodd" clip-rule="evenodd" d="M22.0462 32.02C21.4867 32.0319 20.9472 32.0435 20.4093 32.055C20.2963 31.6484 20.3997 31.2769 20.6953 31.0571C20.9809 30.8452 21.2947 30.8155 21.6069 30.985C22.0116 31.2042 22.0907 31.5751 22.0462 32.02Z" fill="white"/>
<path fill-rule="evenodd" clip-rule="evenodd" d="M18.4705 43.9844C17.9131 43.9964 17.3737 44.0081 16.8358 44.0194C16.7217 43.6348 16.8208 43.2598 17.1027 43.039C17.3821 42.8201 17.6928 42.779 18.0108 42.9397C18.4341 43.1537 18.5149 43.5311 18.4705 43.9844Z" fill="white"/>
<path fill-rule="evenodd" clip-rule="evenodd" d="M20.8339 36.3338C20.8328 36.0699 21.0429 35.8593 21.3079 35.8583C21.5718 35.8573 21.7829 36.0668 21.7847 36.3313C21.7866 36.5913 21.5699 36.81 21.3107 36.8094C21.0484 36.8088 20.8349 36.5958 20.8339 36.3338Z" fill="white"/>
<path fill-rule="evenodd" clip-rule="evenodd" d="M25.3896 40.9984C25.459 41.0959 25.5684 41.1861 25.5884 41.2928C25.6175 41.4485 25.4922 41.5684 25.3428 41.5411C25.2466 41.5236 25.1118 41.3968 25.1036 41.309C25.0948 41.2127 25.2119 41.1054 25.2742 41.0027C25.3126 41.0012 25.3512 40.9998 25.3896 40.9984Z" fill="white"/>
<path fill-rule="evenodd" clip-rule="evenodd" d="M21.4591 29.5439C21.3595 29.6124 21.2669 29.7222 21.1587 29.7402C21.0029 29.7662 20.8815 29.6422 20.9128 29.4924C20.9326 29.3973 21.0622 29.2651 21.1501 29.2592C21.2479 29.2527 21.354 29.3705 21.4567 29.4343C21.4576 29.471 21.4584 29.5074 21.4591 29.5439Z" fill="white"/>
<path fill-rule="evenodd" clip-rule="evenodd" d="M15.2063 34.1561C15.11 34.2267 15.0217 34.3373 14.9154 34.3582C14.7602 34.3885 14.6359 34.2723 14.6662 34.1185C14.685 34.0223 14.8055 33.8879 14.892 33.8786C14.9877 33.8683 15.097 33.981 15.2005 34.0405C15.2025 34.0788 15.2044 34.1175 15.2063 34.1561Z" fill="white"/>
<path fill-rule="evenodd" clip-rule="evenodd" d="M17.6368 41.1616C17.7061 41.2604 17.8313 41.3607 17.8285 41.4574C17.8259 41.5454 17.6971 41.6792 17.601 41.7035C17.4505 41.7415 17.3203 41.622 17.3359 41.4705C17.3467 41.3632 17.4575 41.2658 17.5238 41.1638C17.5614 41.1633 17.5991 41.1625 17.6368 41.1616Z" fill="white"/>
<path fill-rule="evenodd" clip-rule="evenodd" d="M27.9008 33.8807C27.7993 33.9464 27.7027 34.0547 27.5949 34.0673C27.4396 34.0856 27.3214 33.9575 27.3593 33.8077C27.3837 33.7113 27.5155 33.5807 27.6034 33.5776C27.7005 33.5738 27.8023 33.6982 27.9024 33.7667C27.9018 33.8048 27.9013 33.8428 27.9008 33.8807Z" fill="white"/>
<path fill-rule="evenodd" clip-rule="evenodd" d="M44.1497 66.6978C40.0759 66.6936 36.8039 63.4277 36.8198 59.3646C36.835 55.4405 40.0254 52.3213 43.8288 52.1637C48.0981 51.9868 51.513 55.3985 51.4952 59.4485C51.4776 63.4476 48.1901 66.7018 44.1497 66.6978ZM40.6287 65.2686C40.648 65.2592 40.6564 65.2579 40.6582 65.2538C40.678 65.2092 40.697 65.1641 40.7157 65.119C40.9104 64.6527 41.248 64.3349 41.7424 64.2137C41.9609 64.16 42.1952 64.1623 42.4229 64.1553C42.7393 64.1458 42.7984 64.0952 42.7993 63.776C42.8002 63.5063 42.7851 63.236 42.7983 62.9669C42.8159 62.6144 43.0937 62.3511 43.4493 62.333C43.5911 62.3257 43.7337 62.3327 43.8761 62.3315C44.1497 62.3293 44.2379 62.2068 44.1441 61.9571C44.1184 61.8882 44.09 61.8199 44.0574 61.754C43.6839 60.9933 43.315 60.2301 42.9329 59.4734C42.6617 58.9362 42.4825 58.3826 42.4212 57.7775C42.3723 57.2935 42.2627 56.8073 42.1119 56.3439C41.7915 55.3597 41.2181 54.546 40.3276 53.9734C40.2115 53.8988 40.1331 53.8959 40.0206 53.9832C38.3032 55.3174 37.353 57.0568 37.2809 59.2221C37.2185 61.0925 37.8665 62.7215 39.1522 64.0949C39.5875 64.5597 40.0832 64.9515 40.6287 65.2686ZM42.3289 52.856C42.4306 52.9056 42.4871 52.9273 42.5375 52.9586C42.9081 53.1898 43.3073 53.3874 43.6422 53.6618C44.7907 54.6034 45.3783 55.8545 45.5831 57.2969C45.6477 57.7514 45.6652 58.2124 45.8762 58.6374C46.2173 59.3245 46.5458 60.0178 46.8806 60.708C47.0199 60.995 47.1697 61.2772 47.3005 61.568C47.5241 62.0657 47.2065 62.5499 46.6602 62.5559C46.5303 62.5572 46.4002 62.5539 46.2703 62.5567C46.0582 62.5612 45.9829 62.6359 45.9808 62.849C45.9781 63.1189 45.9845 63.389 45.9789 63.6588C45.9695 64.1061 45.691 64.3762 45.2412 64.383C45.0803 64.3854 44.9189 64.3793 44.7588 64.3919C44.314 64.4274 43.9161 64.74 43.8407 65.1755C43.7822 65.5142 43.8015 65.8658 43.7866 66.2037C43.8411 66.221 43.8582 66.2305 43.8754 66.2313C44.6619 66.2655 45.4317 66.1682 46.1813 65.9303C46.2287 65.9153 46.2786 65.8275 46.2819 65.7707C46.2942 65.5628 46.2821 65.3536 46.289 65.1453C46.3036 64.7041 46.4874 64.3411 46.8213 64.0516C47.1812 63.7392 47.612 63.6759 48.0709 63.691C48.4143 63.7022 48.4762 63.6309 48.4744 63.2838C48.473 63.0387 48.4548 62.7928 48.4697 62.5487C48.4962 62.1133 48.7644 61.8738 49.2076 61.8665C49.3498 61.864 49.4927 61.8722 49.6344 61.8631C49.8082 61.852 49.9013 61.7151 49.8434 61.5528C49.8002 61.4318 49.7402 61.3166 49.6841 61.2005C49.2495 60.3055 48.8011 59.4167 48.3868 58.5124C48.2565 58.2278 48.1808 57.9066 48.1437 57.5949C48.0655 56.9381 47.9331 56.299 47.6586 55.6952C47.0575 54.3736 46.1202 53.3779 44.761 52.804C44.5582 52.7184 44.3387 52.6309 44.1238 52.6228C43.5337 52.6005 42.9527 52.6945 42.3289 52.856ZM43.3361 66.1854C43.3361 65.908 43.3312 65.6576 43.3369 65.4074C43.3526 64.7288 43.7877 64.1588 44.4517 63.9929C44.699 63.931 44.9655 63.9422 45.2237 63.9271C45.439 63.9144 45.5119 63.8488 45.5141 63.635C45.5167 63.3466 45.51 63.0583 45.5167 62.77C45.5253 62.4015 45.8059 62.1231 46.1784 62.1088C46.333 62.1027 46.488 62.1113 46.6426 62.106C46.8596 62.0986 46.9623 61.9543 46.8788 61.76C46.7506 61.4614 46.6164 61.165 46.4738 60.8731C46.1269 60.1615 45.7586 59.4594 45.4307 58.7394C45.3032 58.4596 45.2464 58.1445 45.1848 57.84C45.1156 57.4983 45.1051 57.1439 45.0216 56.8066C44.5809 55.0276 43.5575 53.7495 41.765 53.1498C41.7077 53.1307 41.634 53.0946 41.5891 53.1142C41.2608 53.258 40.9379 53.4141 40.6092 53.5682C40.8919 53.8148 41.1594 54.016 41.3882 54.2536C42.292 55.1926 42.734 56.3429 42.8685 57.6127C42.9271 58.1636 43.0496 58.6811 43.3016 59.178C43.7295 60.0212 44.1346 60.8761 44.5468 61.7274C44.8142 62.2799 44.4983 62.7792 43.8779 62.788C43.773 62.7896 43.6675 62.7786 43.5627 62.7822C43.3249 62.7905 43.2538 62.8631 43.2522 63.0957C43.2501 63.3717 43.2548 63.6479 43.2505 63.9238C43.2442 64.3262 42.9446 64.6103 42.5362 64.6098C42.3692 64.6096 42.2013 64.6042 42.0355 64.6188C41.6081 64.6563 41.2578 64.9482 41.1254 65.3517C41.0863 65.4706 41.0926 65.5439 41.2263 65.5919C41.4121 65.6585 41.5889 65.7501 41.7748 65.8166C42.2697 65.9938 42.7756 66.1288 43.3361 66.1854ZM46.7609 65.7053C49.1503 64.8327 51.4714 62.0229 50.9666 58.4559C50.5197 55.2981 47.9286 53.2507 45.8532 52.8559C45.8802 52.8784 45.8978 52.8949 45.9174 52.9088C47.461 53.9981 48.3432 55.478 48.5647 57.3414C48.61 57.722 48.6758 58.0924 48.8474 58.4393C48.9945 58.7366 49.1362 59.0364 49.2816 59.3345C49.6018 59.9914 49.9275 60.6455 50.2419 61.3053C50.485 61.816 50.1727 62.307 49.603 62.3237C49.4916 62.327 49.3802 62.3244 49.2687 62.3246C48.9913 62.3254 48.9282 62.3816 48.9246 62.6555C48.9211 62.919 48.9351 63.183 48.9276 63.4463C48.9158 63.8716 48.6366 64.1362 48.2046 64.1438C48.0747 64.1462 47.9445 64.1429 47.8148 64.1448C47.2745 64.1526 46.8379 64.5191 46.7658 65.0516C46.737 65.2617 46.7609 65.4787 46.7609 65.7053Z" fill="black"/>
<path fill-rule="evenodd" clip-rule="evenodd" d="M40.629 65.2669C40.0835 64.9497 39.5879 64.5579 39.1528 64.0933C37.8672 62.72 37.2191 61.0909 37.2815 59.2205C37.3535 57.0551 38.3038 55.3158 40.0213 53.9817C40.1337 53.8944 40.2121 53.8973 40.3282 53.9718C41.2187 54.5446 41.7921 55.3582 42.1125 56.3424C42.2633 56.8057 42.3729 57.2919 42.4218 57.7759C42.4831 58.381 42.6624 58.9346 42.9335 59.4718C43.3156 60.2285 43.6844 60.9917 44.0581 61.7524C44.0906 61.8183 44.1189 61.8866 44.1447 61.9555C44.2384 62.2051 44.1503 62.3277 43.8767 62.3299C43.7343 62.3311 43.5917 62.3241 43.4499 62.3314C43.0943 62.3496 42.8165 62.6128 42.7989 62.9653C42.7857 63.2344 42.8008 63.5047 42.7999 63.7744C42.799 64.0935 42.74 64.1442 42.4235 64.1536C42.1959 64.1607 41.9615 64.1584 41.743 64.2121C41.2486 64.3333 40.911 64.6509 40.7163 65.1173C40.6977 65.1624 40.6786 65.2076 40.6588 65.2522C40.6567 65.2562 40.6483 65.2574 40.629 65.2669ZM42.4582 60.0574C42.3983 60.0075 42.3208 59.9685 42.2813 59.906C41.8968 59.2981 41.521 58.6849 41.1363 58.0771C41.0759 57.982 41.0727 57.9162 41.1312 57.8164C41.316 57.5006 41.2367 57.1145 40.9557 56.8875C40.6791 56.6641 40.296 56.6641 40.0145 56.8875C39.7364 57.1084 39.6559 57.4998 39.8412 57.8173C39.9017 57.9206 39.8888 57.9891 39.8312 58.0809C39.4554 58.6796 39.0823 59.2802 38.7126 59.8826C38.6499 59.9847 38.5923 60.0344 38.4529 60.0237C38.1108 59.9968 37.7916 60.2501 37.7146 60.5755C37.6321 60.9245 37.7984 61.2761 38.1148 61.4222C38.4321 61.5684 38.8418 61.4993 39.0096 61.2082C39.1373 60.987 39.2916 60.9546 39.5044 60.9772C39.5533 60.9823 39.6082 60.9651 39.6515 60.9812C39.7124 61.004 39.7883 61.0352 39.8175 61.0856C39.9656 61.3418 40.1776 61.4867 40.4775 61.4897C40.7862 61.4928 41.0018 61.3429 41.1565 61.0839C41.1863 61.0339 41.2614 60.9948 41.3225 60.9821C41.4054 60.9648 41.4956 60.9854 41.5812 60.9762C41.7375 60.9595 41.8311 61.0073 41.9171 61.1546C42.1012 61.4694 42.4892 61.5744 42.8261 61.4346C43.1473 61.3015 43.3383 60.9409 43.2643 60.6073C43.1848 60.2478 42.8662 60.004 42.4582 60.0574Z" fill="white"/>
<path fill-rule="evenodd" clip-rule="evenodd" d="M42.3285 52.8572C42.9523 52.6959 43.5332 52.6019 44.1231 52.6239C44.3379 52.6318 44.5575 52.7195 44.7603 52.8051C46.1194 53.3791 47.0568 54.3747 47.6578 55.6963C47.9324 56.3001 48.0648 56.9392 48.143 57.596C48.1801 57.9078 48.2558 58.2289 48.3861 58.5135C48.8004 59.4178 49.2488 60.3064 49.6834 61.2016C49.7395 61.3176 49.7995 61.4329 49.8427 61.5539C49.9006 61.7162 49.8077 61.8531 49.6337 61.8642C49.492 61.8733 49.3491 61.8652 49.2069 61.8676C48.7638 61.8749 48.4955 62.1144 48.469 62.5498C48.4541 62.7939 48.4723 63.0398 48.4737 63.2849C48.4756 63.6321 48.4136 63.7033 48.0701 63.6921C47.6113 63.677 47.1805 63.7403 46.8205 64.0527C46.4867 64.3422 46.303 64.7052 46.2883 65.1464C46.2814 65.3546 46.2935 65.5638 46.2812 65.7718C46.2778 65.8285 46.228 65.9163 46.1806 65.9314C45.4311 66.1693 44.6613 66.2666 43.8747 66.2324C43.8573 66.2315 43.8403 66.2221 43.7859 66.2048C43.8008 65.8669 43.7814 65.5152 43.84 65.1766C43.9154 64.7411 44.3133 64.4285 44.758 64.393C44.9182 64.3802 45.0796 64.3864 45.2405 64.3841C45.6903 64.3773 45.9686 64.1072 45.9782 63.6599C45.9837 63.3901 45.9774 63.1199 45.9801 62.8501C45.9824 62.637 46.0575 62.5623 46.2696 62.5578C46.3995 62.5551 46.5296 62.5583 46.6595 62.557C47.2058 62.551 47.5234 62.0668 47.2998 61.5691C47.1692 61.2782 47.0192 60.9961 46.8799 60.7091C46.545 60.0189 46.2165 59.3257 45.8755 58.6385C45.6646 58.2135 45.6469 57.7526 45.5824 57.298C45.3778 55.8557 44.7901 54.6045 43.6415 53.663C43.3065 53.3886 42.9074 53.1909 42.5368 52.9597C42.4866 52.9286 42.4302 52.9068 42.3285 52.8572Z" fill="white"/>
<path fill-rule="evenodd" clip-rule="evenodd" d="M43.3357 66.1868C42.7753 66.1304 42.2694 65.9953 41.7747 65.8183C41.5887 65.7518 41.412 65.6602 41.2262 65.5937C41.0925 65.5457 41.0862 65.4723 41.1253 65.3534C41.2577 64.95 41.608 64.6579 42.0354 64.6205C42.2014 64.6059 42.3691 64.6113 42.5362 64.6116C42.9445 64.6121 43.2441 64.328 43.2504 63.9255C43.2546 63.6496 43.25 63.3734 43.2521 63.0974C43.2539 62.8647 43.3248 62.7922 43.5626 62.7839C43.6674 62.7803 43.7729 62.7914 43.8778 62.7897C44.4982 62.7809 44.814 62.2816 44.5467 61.7291C44.1345 60.8777 43.7294 60.023 43.3015 59.1797C43.0495 58.6829 42.927 58.1653 42.8684 57.6144C42.7338 56.3446 42.2919 55.1943 41.3881 54.2553C41.1593 54.0176 40.8918 53.8165 40.6091 53.5699C40.9378 53.4157 41.2607 53.2596 41.589 53.1159C41.6339 53.0963 41.7076 53.1324 41.7649 53.1515C43.5575 53.7514 44.5809 55.0293 45.0215 56.8083C45.105 57.1456 45.1155 57.5 45.1847 57.8417C45.2462 58.1462 45.3031 58.4613 45.4306 58.7411C45.7585 59.4612 46.1268 60.1631 46.4737 60.8748C46.6162 61.1667 46.7505 61.4632 46.8787 61.7618C46.9621 61.956 46.8595 62.1004 46.6425 62.1077C46.4878 62.113 46.3327 62.1046 46.1783 62.1105C45.8058 62.1249 45.5252 62.4032 45.5167 62.7717C45.5098 63.06 45.5167 63.3484 45.514 63.6368C45.5117 63.8506 45.4389 63.9162 45.2236 63.9288C44.9654 63.9439 44.6989 63.9327 44.4516 63.9946C43.7877 64.1604 43.3526 64.7305 43.3368 65.4091C43.3309 65.6589 43.3357 65.9094 43.3357 66.1868Z" fill="white"/>
<path fill-rule="evenodd" clip-rule="evenodd" d="M42.458 60.0613C42.8659 60.0078 43.1846 60.2518 43.2643 60.611C43.3382 60.9446 43.1472 61.3053 42.826 61.4383C42.4891 61.5781 42.1011 61.4731 41.9171 61.1583C41.831 61.011 41.7376 60.9632 41.5811 60.9799C41.4955 60.9891 41.4054 60.9685 41.3224 60.9858C41.2615 60.9985 41.1864 61.0374 41.1564 61.0876C41.0017 61.3466 40.7862 61.4966 40.4774 61.4934C40.1775 61.4904 39.9655 61.3455 39.8174 61.0893C39.7883 61.039 39.7125 61.0077 39.6514 60.9849C39.6081 60.9688 39.5532 60.986 39.5043 60.9809C39.2915 60.9583 39.1372 60.9907 39.0095 61.2119C38.8417 61.5031 38.432 61.5721 38.1147 61.4259C37.7983 61.2798 37.6319 60.9282 37.7145 60.5792C37.7914 60.2538 38.1105 60.0005 38.4528 60.0274C38.5922 60.0381 38.6498 59.9883 38.7125 59.8863C39.0822 59.2839 39.4553 58.6833 39.8312 58.0846C39.8887 57.9927 39.9016 57.9244 39.8411 57.821C39.6558 57.5035 39.7364 57.112 40.0144 56.8912C40.296 56.6678 40.679 56.6678 40.9556 56.8912C41.2366 57.1182 41.3159 57.5042 41.1311 57.8201C41.0726 57.9199 41.0758 57.9857 41.1362 58.0808C41.5208 58.6884 41.8966 59.3016 42.2812 59.9097C42.3206 59.9723 42.3982 60.0114 42.458 60.0613ZM40.2577 58.2972C40.1994 58.3733 40.1723 58.4032 40.1514 58.4367C39.801 58.9994 39.4537 59.5637 39.0999 60.1243C39.0345 60.2277 39.0251 60.3044 39.086 60.4208C39.148 60.54 39.2314 60.5308 39.3284 60.5308C39.4025 60.5308 39.4776 60.5231 39.5505 60.5325C39.7008 60.5512 39.7948 60.5084 39.8698 60.3631C39.9219 60.2622 40.0315 60.1768 40.135 60.1191C40.233 60.0647 40.2609 60.0052 40.2595 59.9029C40.2548 59.5846 40.2578 59.266 40.2578 58.9476C40.2577 58.748 40.2577 58.5485 40.2577 58.2972ZM40.7277 58.2999C40.7215 58.4145 40.7157 58.4722 40.7156 58.5298C40.7149 58.9401 40.721 59.3502 40.7127 59.7601C40.7091 59.9393 40.7072 60.0965 40.9197 60.1692C40.9829 60.191 41.0534 60.2578 41.0752 60.3197C41.155 60.5468 41.3299 60.5467 41.52 60.5313C41.5753 60.5269 41.6312 60.5317 41.6869 60.5306C41.8752 60.5265 41.9911 60.3222 41.8934 60.1643C41.6252 59.7315 41.3563 59.2994 41.0867 58.8674C40.9781 58.6934 40.8674 58.5204 40.7277 58.2999ZM40.7644 60.7532C40.7605 60.5971 40.6303 60.4712 40.478 60.4765C40.3282 60.4814 40.1955 60.6188 40.1987 60.7653C40.2019 60.9118 40.3416 61.0451 40.4896 61.0427C40.6405 61.0402 40.7684 60.9057 40.7644 60.7532ZM42.8143 60.7681C42.8188 60.6132 42.6965 60.4832 42.5408 60.4775C42.3886 60.4719 42.2528 60.5976 42.2476 60.7494C42.2424 60.8991 42.3713 61.0364 42.5222 61.0418C42.6726 61.0474 42.8099 60.9186 42.8143 60.7681ZM38.7228 60.7603C38.7224 60.6082 38.5926 60.4783 38.4397 60.4777C38.2864 60.4769 38.1577 60.6047 38.1564 60.7587C38.1552 60.9103 38.2872 61.0434 38.4381 61.0422C38.5893 61.0412 38.7229 60.9087 38.7228 60.7603ZM40.7642 57.4564C40.7606 57.3008 40.6305 57.177 40.4763 57.1823C40.3239 57.1876 40.1949 57.3217 40.1994 57.4701C40.2039 57.6222 40.3365 57.7465 40.4905 57.7433C40.6476 57.7401 40.7677 57.614 40.7642 57.4564Z" fill="black"/>
<path fill-rule="evenodd" clip-rule="evenodd" d="M40.2575 58.2928C40.2575 58.5441 40.2575 58.7436 40.2575 58.9432C40.2575 59.2616 40.2544 59.5802 40.2591 59.8985C40.2607 60.0008 40.2328 60.0602 40.1347 60.1146C40.0313 60.1722 39.9216 60.2578 39.8695 60.3587C39.7945 60.5038 39.7004 60.5468 39.5502 60.528C39.4773 60.5188 39.4021 60.5264 39.328 60.5264C39.2309 60.5264 39.1477 60.5356 39.0857 60.4164C39.0248 60.3 39.0343 60.2234 39.0995 60.1198C39.4534 59.5594 39.8008 58.995 40.1511 58.4323C40.1721 58.3987 40.1992 58.3689 40.2575 58.2928Z" fill="white"/>
<path fill-rule="evenodd" clip-rule="evenodd" d="M40.7275 58.2986C40.8672 58.5191 40.9779 58.6921 41.0864 58.866C41.356 59.2981 41.6248 59.7302 41.8931 60.163C41.9908 60.3209 41.8749 60.5252 41.6866 60.5292C41.6309 60.5304 41.575 60.5256 41.5197 60.53C41.3296 60.5454 41.1547 60.5455 41.0749 60.3183C41.0531 60.2565 40.9826 60.1897 40.9194 60.1679C40.7069 60.0952 40.7088 59.938 40.7124 59.7588C40.7207 59.3488 40.7147 58.9387 40.7153 58.5285C40.7156 58.4709 40.7213 58.4132 40.7275 58.2986Z" fill="white"/>
<path d="M37.2779 30.0938C37.3895 29.9279 37.3895 29.9647 37.5817 29.9955C38.3874 30.1368 39.1934 30.2781 39.9991 30.4256C42.7266 30.905 45.4539 31.3863 48.1814 31.8696C49.1422 32.0417 50.103 32.2076 51.0638 32.3796C51.2063 32.4042 51.4791 32.398 51.6029 32.478C51.665 32.5148 51.7145 32.6316 51.758 32.6992C51.9377 32.9757 52.1113 33.246 52.291 33.5226C53.2891 35.0588 54.3179 36.5765 55.3407 38.1005C56.4751 39.7903 57.6095 41.4821 58.7437 43.176L53.9707 43.1147C54.2684 43.3052 54.5597 43.4955 54.8572 43.686C56.9399 45.0318 59.0206 46.3773 61.0991 47.7232L58.1238 49.6894L59.1776 50.7955L58.1919 51.3486C57.5908 51.6865 56.9895 52.0306 56.382 52.3686C56.1712 52.4916 55.9544 52.6082 55.7437 52.7312C55.694 52.7618 55.6196 52.8172 55.5701 52.8111C55.4895 52.8049 55.3469 52.6697 55.285 52.6266C55.0805 52.4976 54.8759 52.3624 54.6776 52.2334C54.0515 51.8278 53.4317 51.4162 52.8117 51.0045C51.2931 49.9906 49.7745 48.9644 48.3178 47.8584C47.6482 47.3482 47.0223 46.8199 46.4955 46.1561C45.9265 45.4175 45.4325 44.6252 45.0202 43.7905C44.6657 43.0938 44.3511 42.3778 44.078 41.646C43.9851 41.394 43.7495 40.9946 43.7495 40.7182C43.7495 40.5707 43.8796 40.3556 43.9293 40.2205C44.047 39.8947 44.1648 39.5692 44.2887 39.2435C44.3508 39.0775 44.4684 38.8685 44.4932 38.6904C44.518 38.4753 44.4126 38.1804 44.3816 37.9715C44.3631 37.867 44.3692 37.5783 44.2887 37.5168C44.239 37.48 44.0408 37.4984 43.9726 37.4922C43.4582 37.4554 42.9499 37.4123 42.4353 37.3755C41.0655 37.271 39.6894 37.1665 38.3194 37.0621C37.9413 37.0313 37.5198 37.0559 37.1479 36.9698C36.869 36.9085 36.6953 36.6872 36.6086 36.423C36.3446 35.6421 36.1293 34.8459 35.964 34.0388C35.8153 33.2584 35.9578 32.6501 36.2801 31.9311C36.5644 31.2941 36.898 30.6797 37.2779 30.0938ZM73.6884 37.5781C73.4157 38.6043 73.0375 39.8824 72.238 40.6258C71.9342 40.9086 71.5251 41.0929 71.1595 41.271C70.614 41.5354 70.056 41.7687 69.4921 41.9961C68.5003 42.3893 67.459 42.8318 66.3989 43.0223C66.1076 43.0776 65.9588 43.0223 65.7109 42.8503C65.3018 42.5554 64.9298 42.2051 64.5642 41.8609C63.9753 41.308 63.405 40.7426 62.841 40.1588C64.9609 40.1526 67.149 40.0605 69.2255 39.6058C70.841 39.25 72.362 38.559 73.6884 37.5781Z" fill="white"/>
<path d="M52.0306 15.9541C52.539 16.1816 52.8118 16.8021 53.0783 17.2568C53.4005 17.7975 53.6919 18.369 53.8593 18.9773C54.0193 19.6159 54.0591 20.2784 53.9771 20.9313C53.9381 21.207 53.8738 21.4783 53.7849 21.7424C53.6981 22.0312 53.8346 22.1971 54.0391 22.3998C54.4668 22.8239 55.0059 23.1495 55.3284 23.6657C55.6011 24.1082 55.9111 24.188 56.4194 24.2064C57.6838 24.2556 58.9236 24.2126 60.1758 24.4522C60.4919 24.5136 60.8081 24.5873 61.1242 24.6734C61.2279 24.7077 61.3334 24.7363 61.4403 24.7594C61.5953 24.7717 61.62 24.7103 61.7316 24.655C62.2337 24.3969 62.8722 24.6426 63.3743 24.784C64.6314 25.1323 65.8423 25.6275 66.982 26.2587C68.2217 26.9469 69.5419 27.4876 70.7693 28.1943C71.9531 28.8825 73.0194 29.7428 74.1291 30.5477C75.2509 31.365 76.3171 32.2436 77.3584 33.1654C78.3626 34.0564 79.404 34.9227 80.3028 35.9183C81.1248 36.8366 81.7698 37.8969 82.2057 39.046C82.3483 39.4269 82.2615 39.6667 81.809 39.5437C81.7719 39.9307 81.4805 40.0906 81.1086 40.0107C81.2202 40.3364 81.4805 40.7726 81.3318 41.123C81.1334 41.5837 80.5756 41.2519 80.2965 41.0677C80.3275 41.4425 80.4886 42.0446 80.1788 42.3458C79.6952 42.8128 78.8893 42.2168 78.5485 41.8726C77.6807 40.9878 77.129 39.8878 76.3542 38.9354C75.3995 37.7496 74.321 36.6312 73.2426 35.5619C73.1556 35.4758 72.1949 34.4559 72.0587 34.5972C72.4801 35.2854 72.8149 36.0413 73.3975 36.6128C73.6763 36.2256 73.8747 36.4161 73.9305 36.8033C73.9926 37.2703 74.0607 37.7618 73.974 38.2287C73.8004 39.1505 73.2178 40.0293 72.5979 40.7174C71.9532 41.4425 71.1536 41.9894 70.2919 42.4318C69.8022 42.6838 69.3188 42.9172 68.7918 43.0831C68.558 43.1648 68.32 43.2346 68.0791 43.292C67.8497 43.3412 67.5955 43.335 67.3848 43.4518C69.3063 44.3613 71.4264 44.7422 73.354 45.6272C73.8189 45.8422 74.7488 46.3952 74.2778 47.022C73.912 47.5074 73.0876 47.5197 72.5421 47.6179C72.945 47.9929 72.8832 48.343 72.3562 48.5457C72.1457 48.6231 71.9236 48.6647 71.6991 48.6687C71.5441 48.6749 71.2838 48.6194 71.1599 48.7362C71.6372 48.9513 72.288 48.939 72.6785 49.3201C73.0814 49.7071 72.5979 50.0206 72.2446 50.168C71.7736 50.3647 71.1288 50.5736 70.6516 50.3338C70.2734 50.1433 69.9263 50.1864 69.505 50.1371C69.0742 50.0865 68.6491 49.998 68.2343 49.8728C66.6535 49.4059 65.1969 48.5394 63.796 47.6853C62.4024 46.8373 61.0946 45.8576 59.8908 44.7605C59.5932 44.4901 59.3453 44.1644 59.0415 43.9002C58.7193 43.6236 58.3845 43.5991 57.9754 43.6053C57.0456 43.6175 56.1157 43.4515 55.1923 43.5622C56.5249 44.5576 57.9382 45.4364 59.3453 46.3335C59.8784 46.6715 60.4424 47.1261 61.0686 47.2798C61.3414 47.3473 61.9363 47.3904 62.0293 47.7223C62.0976 47.9679 61.8869 48.011 61.7566 48.14C61.5707 48.3305 61.8311 48.3982 62.0231 48.4781C62.2488 48.5766 62.4973 48.6128 62.7422 48.5824C63.1389 48.5394 63.455 48.558 63.827 48.7238C64.4096 48.9881 65.0358 49.1355 65.6246 49.3935C65.8663 49.5041 65.9284 49.8237 66.0461 50.0387C66.232 50.3828 66.4427 50.7084 66.6534 51.0342C67.044 51.6548 67.3849 52.2875 67.9428 52.7853C68.4327 53.2155 68.978 53.6025 69.5111 53.9836C70.3418 54.5796 71.3955 55.3108 71.1288 56.4784C70.8623 57.6336 69.6598 57.5046 68.7425 57.3017C68.3582 57.2157 67.8251 56.9699 67.4408 57.0867C67.1447 57.1848 66.8266 57.1977 66.5233 57.1236C66.1204 57.0315 65.7113 56.976 65.3023 56.9085C64.4355 56.7746 63.5827 56.5628 62.7547 56.2757C62.3714 56.1507 62.0188 55.9476 61.7195 55.6797C61.6265 55.5997 61.5582 55.477 61.4405 55.483C61.3352 55.483 61.174 55.6672 61.0934 55.7287C60.8392 55.9315 60.5604 56.0975 60.2691 55.8577C60.0831 55.7042 59.9159 55.3722 60.1885 55.2187C60.393 55.0958 60.7711 55.2371 60.9137 55.0098C61.0688 54.7702 60.7215 54.426 60.6162 54.2294C60.2876 54.4507 59.8103 54.8932 59.4323 54.5245C59.1285 54.2294 59.4695 54.0513 59.7484 53.9592C60.0955 53.8424 60.4923 53.8547 60.3186 53.4C60.2194 53.142 60.0582 52.9084 60.0334 52.6257C60.0149 52.4108 60.0769 52.2019 60.0769 51.9868C60.0769 51.6058 59.6678 51.2739 59.302 51.1817C59.0788 51.1264 59.0169 51.3107 58.8806 51.4581C58.6737 51.6625 58.4351 51.8327 58.1739 51.9621C57.7554 52.1802 57.3249 52.3752 56.8845 52.5458C56.5931 52.6688 56.085 52.8224 56.2895 53.191C56.5931 53.7256 55.8865 53.4674 55.626 53.3509C55.031 53.0682 54.436 52.7978 53.8471 52.5029C52.6445 51.8946 51.5412 51.1388 50.4751 50.3154C49.4277 49.5063 48.4241 48.6429 47.4688 47.7286C47.0054 47.2865 46.5746 46.8122 46.1794 46.309C45.758 45.7683 45.4047 45.1784 44.977 44.6376C44.5306 44.0785 44.0967 43.5377 43.8115 42.8803C43.545 42.2719 43.2475 41.5899 43.2414 40.9201C43.2351 40.1826 43.2414 39.5128 43.483 38.8063C43.5811 38.5033 43.7187 38.2141 43.8921 37.946C43.9418 37.8723 44.2145 37.6141 44.1587 37.5159C44.165 37.522 43.5451 37.6141 43.4769 37.6203C43.0678 37.6572 42.6525 37.5897 42.2434 37.5526C41.0346 37.4422 39.8136 37.4851 38.611 37.3192C38.1586 37.2577 37.6627 37.3254 37.2225 37.2087C37.0118 37.1534 36.9622 37.0366 36.8072 36.9383C36.7389 36.8954 36.6646 36.9076 36.5965 36.8462C36.5221 36.7725 36.5036 36.6681 36.4724 36.5758C36.2927 36.072 35.9889 35.6233 35.8092 35.1195C35.6107 34.5542 35.6169 33.9643 35.6294 33.3744C35.3319 33.399 35.0158 33.399 34.7368 33.2823C34.5075 33.9889 33.5344 33.9766 32.9392 33.9213C32.1893 33.8537 31.3153 33.7861 30.9308 33.0426C30.4844 32.1701 30.5155 31.1071 30.4598 30.1484C30.3927 29.0229 30.3843 27.8949 30.435 26.7688C30.4846 25.8163 30.7015 24.821 31.3214 24.0652C31.8731 23.3954 32.8216 23.0083 33.5715 23.6289C34.1355 24.0959 34.3774 24.9439 34.4146 25.6444C34.4332 26.0008 34.4146 26.3265 34.8608 26.2219C35.0345 26.1851 35.1894 26.1236 35.3134 26.2956C35.4171 26.4557 35.3824 26.6679 35.2329 26.7872C35.1027 26.8917 34.8546 26.8733 34.7679 27.0269C34.6813 27.1804 34.8176 27.4263 34.9849 27.457C35.1708 27.4939 35.3134 27.2543 35.5056 27.3649C35.6792 27.4632 35.5863 27.6537 35.4747 27.7643C35.3383 27.8933 35.2081 27.924 35.3011 28.1329C35.3756 28.2927 35.5243 28.3973 35.5925 28.5692C35.7598 28.987 35.8157 29.5831 35.6296 30.0009C35.952 30.0378 36.7269 30.4126 36.9748 30.1053C37.0677 29.9948 37.0801 29.8349 37.1732 29.7182C37.2908 29.5927 37.4531 29.5177 37.6257 29.5093C37.9915 29.4663 38.3697 29.5769 38.7291 29.6445C39.3242 29.7612 39.9192 29.8657 40.5143 29.9701C41.7106 30.179 42.9194 30.3266 44.1157 30.5539C45.3058 30.7813 46.4836 31.0639 47.6612 31.3526C48.2811 31.5002 48.8948 31.6721 49.5147 31.8012C50.0974 31.9241 50.7048 32.0101 51.244 32.2682C51.1387 31.6108 50.841 31.0086 50.6489 30.3757C50.452 29.735 50.4055 29.0582 50.5126 28.397C50.6117 27.7826 50.7605 27.1803 51.0767 26.6396C51.1982 26.415 51.3504 26.2083 51.5291 26.0251C51.6593 25.8961 51.8452 25.7915 51.9506 25.6441C52.0559 25.4967 52.0311 25.4598 51.8452 25.3921C51.7447 25.3676 51.6469 25.3324 51.5539 25.2877C51.467 25.2385 51.3865 25.1525 51.2812 25.134C51.0393 25.0972 50.686 25.3306 50.4629 25.4105C50.1602 25.5316 49.8438 25.6163 49.5208 25.6625C48.4608 25.773 47.2025 25.1647 46.471 24.4274C46.2294 24.1816 45.6714 23.6163 45.8946 23.2354C46.0124 23.0387 46.2294 23.0818 46.4091 22.9957C46.6879 22.8544 46.5145 22.6208 46.3781 22.4365C46.0124 21.9325 45.7645 21.3488 45.504 20.7835C45.2375 20.212 44.8718 19.696 44.5681 19.1429C44.3513 18.7435 44.1032 18.301 44.0041 17.8525C43.88 17.3117 44.2519 17.2318 44.7045 17.1581C46.1365 16.9122 47.5435 16.5804 48.9567 16.2733C49.5208 16.1504 50.091 16.0275 50.6551 15.923C51.1072 15.8312 51.603 15.7636 52.0306 15.9541ZM64.5828 49.744C63.8453 49.7811 63.1015 49.9469 63.0828 50.7949C63.1696 52.411 64.2357 53.6215 65.3576 54.6969C65.6428 54.9672 65.9155 55.256 66.2254 55.5018C66.4052 55.6432 66.6036 55.7107 66.8019 55.8275C66.8516 55.8582 66.932 55.9505 66.9755 55.9627C67.0807 55.9995 67.0932 55.9565 67.1925 55.9504C67.4155 55.9258 67.459 56.0794 67.6325 56.2084C67.9548 56.448 68.5374 56.4112 68.9218 56.4911C69.2752 56.5586 70.6761 57.0626 70.6079 56.3374C70.546 55.6308 69.7836 55.2868 69.2504 54.9671C68.5004 54.5248 67.7317 54.0515 67.0994 53.4494C66.4983 52.8779 66.1076 52.0975 65.7109 51.3847C65.4631 50.9422 65.3886 50.5675 65.3205 50.0697C65.2895 49.8608 65.2895 49.7932 65.0787 49.7563C64.9142 49.7371 64.7483 49.7329 64.5828 49.744ZM62.0166 49.6274C61.5891 49.7626 61.2668 50.1005 61.0559 50.4876C60.9483 50.6774 60.8788 50.8861 60.8514 51.1021C60.808 51.3785 60.7026 51.6796 60.7769 51.9624C60.9195 52.4724 61.2916 53.0255 61.5891 53.4615C61.9176 53.9531 62.3514 54.5062 62.8722 54.8074C63.3743 55.0961 63.9817 55.176 64.4467 55.5324C64.4034 55.3358 64.2173 55.1884 64.0748 55.0655C63.8655 54.8908 63.6705 54.6996 63.4921 54.494C63.0869 54.0324 62.7659 53.5042 62.5437 52.9332C62.3312 52.359 62.2303 51.7502 62.2462 51.139C62.2516 50.8471 62.3148 50.5589 62.4321 50.291C62.5127 50.119 62.6615 49.9716 62.7234 49.7871C62.8721 49.357 62.2275 49.5598 62.0166 49.6274ZM52.6755 35.7095C52.0803 35.7771 51.4916 35.8877 50.8902 35.943C49.6815 36.0536 48.4232 36.1213 47.3261 36.6926C45.7268 37.5283 43.892 39.3779 44.4436 41.332C45.1008 43.6361 46.4955 45.7193 48.2496 47.3537C49.3652 48.3923 50.5927 49.3323 51.8199 50.2418C53.01 51.1205 54.38 51.6982 55.6074 52.5216C55.6879 51.3111 56.4566 50.1989 57.3677 49.4308C57.8531 49.0099 58.3713 48.6279 58.9174 48.2878C59.1839 48.122 59.4629 47.9868 59.748 47.8455C59.9649 47.741 60.2006 47.5873 60.4485 47.5751C60.4423 47.397 59.9898 47.3293 59.8658 47.2863C59.4381 47.1388 59.0228 46.9176 58.6261 46.7025C57.7583 46.2356 56.9586 45.6641 56.1528 45.0927C55.7623 44.8162 55.3594 44.5458 54.9751 44.2632C54.628 44.005 54.318 43.6732 53.9399 43.4581C53.5555 43.2369 53.0968 43.1877 52.6629 43.108C52.1421 43.0096 51.634 42.8929 51.1133 42.8067C50.2455 42.6592 49.4272 42.1553 48.6214 41.8113C48.3549 41.6946 47.9397 41.5962 47.7351 41.3751C47.577 41.2076 47.5856 40.9448 47.7545 40.788C47.7787 40.7654 47.8054 40.746 47.8342 40.7299C48.2433 40.4963 48.9314 40.8036 49.3156 40.9511C50.0346 41.2337 50.7476 41.4857 51.5099 41.6269C52.5513 41.8236 53.5493 42.1923 54.5906 42.3828C55.7188 42.5917 56.8469 42.8191 57.9936 42.8929C57.7147 42.3398 57.2498 41.8851 56.8842 41.3813C56.4688 40.8098 56.0536 40.2384 55.6381 39.6607C54.9129 38.6468 54.1009 37.6267 53.5492 36.5084C53.3635 36.1274 53.1775 35.6542 52.6755 35.7095ZM58.0744 50.4816C57.907 50.506 57.783 50.6721 57.6715 50.7827C57.3244 51.1206 56.9834 51.4523 56.6983 51.8458C57.1385 51.6614 57.4979 51.342 57.9193 51.1331C58.0744 51.0593 58.6074 50.8873 58.5021 50.6784C58.4401 50.5553 58.1921 50.4631 58.0744 50.4816ZM60.089 49.1296C59.6613 49.4185 59.215 49.6827 58.7563 49.9347C59.0823 50.0513 59.3861 50.2215 59.6551 50.4385C59.7729 50.5368 60.0207 50.8257 60.1943 50.758C60.3555 50.6905 60.4423 50.2971 60.5167 50.1559C60.7245 49.7883 60.9854 49.4529 61.2916 49.1604C60.839 48.8593 60.5414 48.8225 60.089 49.1296ZM56.4627 33.3131C56.1217 33.4052 55.7746 33.5097 55.4336 33.608C54.7456 33.7985 54.0452 33.9583 53.3323 33.9583C53.2332 34.1364 53.5122 34.4252 53.599 34.5604C53.8222 34.9168 54.0143 35.2978 54.2188 35.6664C54.6527 36.4468 55.1238 37.1965 55.632 37.9338C56.1466 38.6772 56.6114 39.4516 57.1385 40.1828C57.6467 40.8894 58.2108 41.5839 58.7624 42.2597C60.9133 44.9021 63.9196 46.7208 66.8639 48.3554C67.6884 48.8162 68.55 49.2156 69.4673 49.4675C69.8454 49.5721 70.2298 49.6581 70.614 49.7379C70.8744 49.787 71.3021 49.9037 71.5376 49.7379C70.7877 49.4429 69.8144 49.3322 69.207 48.7608C68.835 48.4107 69.2442 48.1463 69.6224 48.0787C70.3601 47.9497 71.1224 48.2693 71.8477 48.0665C71.6554 47.7162 71.0977 47.7284 70.7629 47.6425C70.3353 47.5257 70.3166 47.3168 70.7257 47.1693C71.2279 46.991 71.8042 47.0894 72.3249 47.0525C72.5791 47.0341 73.6453 46.9972 73.323 46.5117C73.0688 46.1309 72.449 46.0202 72.0461 45.8849C71.4758 45.6883 70.9241 45.3811 70.3476 45.2274C69.7836 45.08 69.2072 44.9879 68.6431 44.828C68.0532 44.67 67.4754 44.4708 66.9137 44.2321C65.8364 43.7441 64.8295 43.116 63.9198 42.364C62.9776 41.5958 62.1531 40.7173 61.3968 39.7771C61.0003 39.2794 60.6158 38.7695 60.2316 38.2655C59.8533 37.7801 59.4319 37.313 59.1344 36.7784C58.7996 36.1824 58.3719 35.6416 58.0309 35.0517C57.845 34.7322 57.6467 34.4189 57.4731 34.0871C57.3491 33.8536 57.2685 33.5095 57.1011 33.3128C56.9337 33.1103 56.6611 33.2517 56.4627 33.3131ZM40.5757 40.8404C40.6935 40.9448 40.6748 40.9878 40.65 41.1231C40.6067 41.3934 40.5571 41.6637 40.5322 41.9342C40.4579 42.8744 40.5942 43.8576 40.7429 44.7853C40.8886 45.707 41.2494 46.5825 41.7967 47.3415C42.3298 48.085 42.9682 48.6812 43.8113 49.0437C43.9539 49.1051 44.5304 49.3386 44.4931 49.5475C44.4683 49.7074 44.1646 49.6151 44.0592 49.5968C42.5407 49.2772 41.2574 47.9131 40.4887 46.6473C40.1728 46.1249 39.9682 45.5904 39.7946 45.0127C39.7698 44.9266 39.4041 43.7286 39.528 43.7162C39.4227 42.8867 39.3917 41.8789 39.7821 41.1047C39.9311 40.8158 40.2781 40.5638 40.5757 40.8404ZM37.9289 41.0185C37.7926 41.6453 37.8359 42.2844 37.8669 42.9172C37.8731 43.034 37.9414 43.3904 37.7492 43.3843C37.6128 43.3781 37.5073 43.034 37.4702 42.948C37.2614 42.4037 37.2017 41.8143 37.2966 41.2396C37.3278 41.0615 37.3773 40.8464 37.5756 40.7788C37.7492 40.7237 37.9476 40.822 37.9289 41.0185ZM73.4035 38.1245C73.3258 38.1666 73.2713 38.2411 73.2546 38.3272C72.5699 38.9118 71.8215 39.4188 71.0231 39.8388C70.3227 40.1952 69.5168 40.3427 68.7543 40.5025C67.0126 40.8712 65.277 41.0187 63.5413 40.5456C64.248 41.1968 64.8927 42.0571 65.7915 42.4688C66.2377 42.6715 66.7274 42.5488 67.1738 42.4197C67.7254 42.2598 68.2771 42.094 68.8101 41.8851C69.8143 41.4857 70.8928 41.0432 71.736 40.3549C72.1033 40.0444 72.4228 39.682 72.6844 39.2796C72.8393 39.0522 72.9694 38.8065 73.1244 38.5854C73.2175 38.4563 73.4159 38.2965 73.4035 38.1245ZM65.9837 26.5846C65.959 26.9041 65.7667 27.1745 65.5994 27.4387C65.4879 27.617 65.2647 27.8321 65.37 28.0348C65.4941 28.2744 65.897 28.428 66.1015 28.5939C66.4115 28.8397 66.6967 29.1039 66.9756 29.3743C67.4838 29.8598 68.0046 30.3329 68.5066 30.8307C68.9778 31.3038 69.4363 31.7831 70.0315 32.1088C71.3393 32.8154 72.4861 33.8047 73.6267 34.7449C74.792 35.7035 75.9388 36.7113 76.9492 37.8296C77.4846 38.4265 77.9466 39.0846 78.3252 39.7899C78.5236 40.1523 78.7344 40.5088 78.9326 40.8714C79.0194 41.0311 79.1187 41.1846 79.1993 41.3506C79.2612 41.4736 79.2984 41.6702 79.4038 41.7624C79.6207 41.2831 79.2797 40.6564 79.0877 40.2263C78.9513 39.9312 78.821 39.6363 78.6909 39.3415C78.598 39.1326 78.4058 38.8868 78.3934 38.6532C78.3687 38.094 79.0938 38.4934 79.2984 38.6777C79.7942 39.1202 80.0794 39.79 80.4265 40.3431C80.5072 39.9005 79.6269 39.2247 79.9926 38.8437C80.2839 38.5427 80.8171 39.2494 80.9782 39.4459C81.0898 38.9052 80.8047 38.3707 80.5072 37.9343C80.1688 37.4495 79.7981 36.9876 79.3977 36.5516C78.4802 35.5316 77.4264 34.6222 76.3914 33.725C75.3562 32.834 74.2962 31.9738 73.2363 31.1135C72.2073 30.2778 71.1597 29.4421 70.0131 28.7723C69.3685 28.3975 68.6927 28.0841 68.0356 27.7338C67.3351 27.365 66.6842 26.9348 65.9837 26.5846ZM56.9959 25.3432C56.9227 25.3529 56.8502 25.3672 56.7789 25.3863C56.7231 25.454 56.7975 25.6689 56.8657 25.7058C56.6363 25.8778 56.376 26.0315 56.0847 26.0561C56.2707 26.2344 56.6176 26.5476 56.5682 26.8365C56.4938 27.2359 56.0102 26.9533 55.812 26.8365C55.4959 26.646 55.1797 26.4371 54.9504 26.1483C54.8016 25.964 54.752 25.7673 54.6466 25.5646C54.5846 25.4541 54.6219 25.4356 54.4916 25.4294C54.3429 25.4233 54.0825 25.5646 53.9461 25.6199C53.7305 25.7053 53.5212 25.8059 53.32 25.9209C52.9466 26.1294 52.601 26.3833 52.2911 26.6767C51.6588 27.2912 51.2311 28.1023 51.1753 28.9872C51.6216 28.9318 52.0618 28.7413 52.4399 28.5016C52.7064 28.3296 52.9853 28.1329 53.0287 28.6122C53.0473 28.7965 52.9915 29.2328 52.88 29.3802C52.7745 29.5154 52.7312 29.4048 52.6196 29.4847C52.4895 29.5769 52.5576 29.712 52.5576 29.8472C52.4957 29.798 52.4337 29.7427 52.3716 29.6936C52.2602 29.8349 52.3841 29.7612 52.4274 29.8472C52.4522 29.8963 52.2848 30.0438 52.2539 30.0684C52.1857 30.1237 52.1485 30.0746 52.0679 30.1545C52.0182 30.2036 51.9625 30.3142 51.9067 30.3757C51.6215 30.6952 51.9996 31.1929 52.1483 31.5309C52.26 31.7829 52.3777 32.0286 52.4954 32.2744C52.5822 32.4587 52.6256 32.6738 52.7372 32.8397C52.9603 33.1716 53.4624 32.9934 53.7971 32.9503C54.2435 32.895 54.6836 32.8397 55.136 32.7966C55.3964 32.772 55.6939 32.6185 55.3591 32.4218C55.0244 32.2251 53.8653 32.1883 53.859 31.6907C53.8529 31.1561 54.5967 31.07 54.9748 31.1131C55.5203 31.1807 55.8798 31.3158 56.2517 31.7276C56.1649 30.9472 55.6071 30.2958 55.4831 29.5154C55.4522 29.3004 55.3467 27.9854 55.8613 28.5569C56.1401 28.858 56.3571 29.3188 56.5617 29.6752C56.8716 30.2098 57.1382 30.7629 57.4233 31.3036C57.696 31.826 58.0928 32.3236 58.2849 32.8767C58.3902 33.1901 58.5389 33.8413 58.8799 34.0011C59.0969 34.1057 59.4627 33.9703 59.6858 33.9397C59.8222 33.9213 59.9586 33.9029 60.0763 33.8229C60.1382 33.78 60.2003 33.6755 60.2747 33.6632C60.4978 33.6263 60.5535 33.9704 60.5413 34.1241C60.5165 34.3637 60.4049 34.425 60.1818 34.4559C60.566 34.6401 59.9773 35.224 59.8719 35.4514C59.8657 35.439 59.7974 35.2793 59.7479 35.2793C59.6487 35.2793 60.0516 36.0658 60.0826 36.1211C60.2934 36.5021 60.5599 36.8402 60.8141 37.1903C60.9629 37.3931 61.1736 37.8662 61.4711 37.8232C61.6385 37.7987 61.9794 37.4607 62.1095 37.6943C62.2274 37.9032 61.8616 38.1304 61.812 38.2964C61.7191 38.5729 62.0661 38.8677 62.2707 39.0153C62.81 39.4024 63.5104 39.4945 64.1488 39.6113C64.0247 39.4454 63.7582 39.3594 63.7582 39.1258C63.752 38.966 63.8698 38.88 63.7892 38.708C63.7273 38.5668 63.5661 38.4806 63.5227 38.3332C63.473 38.1674 63.5536 37.9767 63.6468 37.8354C64.0434 37.2455 64.9236 37.4913 65.4444 37.7617C65.4083 37.7793 65.3765 37.8044 65.3514 37.8354L65.3451 37.8415C65.4134 37.7986 65.6985 37.9276 65.7357 37.9523C65.8688 38.0648 65.9856 38.1952 66.0828 38.3392C66.3369 38.7142 66.3679 39.175 66.2377 39.599C67.8185 39.599 69.2998 39.1812 70.7131 38.5175C71.0354 38.3639 71.3517 38.2655 71.6553 38.075C71.9715 37.8783 72.269 37.6633 72.5728 37.4544C72.8641 37.2639 72.8331 37.1471 72.6409 36.8768C72.4053 36.545 72.1945 36.1885 71.9343 35.8814C71.897 35.9673 71.8785 36.1394 71.7917 36.1947C71.6987 36.2562 71.6119 36.1394 71.5437 36.1824C71.5499 36.1762 71.3453 36.4897 71.3143 36.4098C71.4012 36.6125 71.0602 36.4835 70.9983 36.4467C71.0108 36.6372 70.8557 36.7968 70.7627 36.545C70.521 36.7662 69.9506 36.5634 70.2605 36.2255C70.4156 36.0595 70.5768 35.9735 70.676 35.7524C70.7737 35.5033 70.8262 35.2392 70.8309 34.972C70.8619 34.3513 70.5272 34.0626 70.0995 33.6632C69.8639 33.4358 69.616 33.2269 69.3743 33.0118C69.1574 32.8213 68.9776 32.5878 68.7481 32.4097C68.5869 32.2807 68.4568 32.2438 68.3019 32.3544C68.24 32.3974 68.2151 32.4588 68.1345 32.5019C68.0134 32.558 67.8833 32.5934 67.7503 32.6064C67.1551 32.6801 66.4671 32.4774 65.9216 32.2623C65.7728 32.2009 65.6985 32.1025 65.5683 32.0288C65.4877 31.9797 65.4196 32.0104 65.3328 31.9551C65.1034 31.8076 65.1159 31.5741 65.2831 31.3898C65.6674 30.9597 66.2253 31.3468 66.6221 31.0028C67.1118 30.5726 66.2935 29.9766 65.965 29.7122C65.6983 29.5033 65.4692 29.4542 65.1467 29.3989C65.0786 29.3865 64.6262 29.2575 64.7873 29.4419C64.4402 29.4357 64.2666 29.4357 63.9814 29.6507C63.9071 29.7061 63.8079 29.7614 63.7892 29.8596C63.7768 29.9088 63.8821 29.921 63.8821 29.921C63.8697 29.9579 63.7581 30.0194 63.7458 30.0316C63.9256 30.05 63.8821 30.4064 63.8327 30.4064L63.8389 30.4126C63.9195 30.4863 63.7398 30.6031 63.6776 30.6215C63.5042 30.6767 63.3429 30.56 63.2314 30.4372C62.9772 30.173 62.7912 29.7243 62.8036 29.3619C62.8284 28.8518 63.1694 28.5507 63.4482 28.1697C63.659 27.881 63.3491 27.7272 63.1322 27.5491C62.8656 27.328 62.5061 27.0576 62.4194 26.7072C62.3388 26.3877 62.5619 26.2771 62.8408 26.3755C63.2252 26.5044 63.5289 26.8424 63.8698 27.0513C64.1673 27.2356 64.5517 27.6166 64.9173 27.6412C64.8492 27.4016 64.5144 27.4261 64.3905 27.254C64.2231 27.0206 64.4834 26.916 64.6881 26.9469C64.843 26.9653 65.2892 27.2909 65.2769 26.9161C65.2707 26.7134 64.9298 26.6457 64.7811 26.5906C64.0347 26.3004 63.2598 26.0884 62.4691 25.9576C62.2087 25.9146 62.1467 25.9454 62.0227 26.1726C61.9793 26.2525 61.8306 26.6089 61.7438 26.3755C61.6323 26.572 61.6012 26.7811 61.3657 26.8609C61.0619 26.9592 60.6776 26.8118 60.3987 26.695C60.1552 26.6033 59.9412 26.4483 59.7789 26.2465C59.7046 26.1414 59.6482 26.0252 59.6115 25.9024C59.5805 25.7979 59.5929 25.626 59.5434 25.5276C59.4505 25.3678 59.2335 25.4047 59.0599 25.3862C58.6817 25.3494 58.3099 25.3187 57.9254 25.3125C57.6033 25.2881 57.3057 25.2695 56.9959 25.3432ZM65.2276 39.4087C65.1035 39.4517 65.3205 39.5931 65.3948 39.5807C65.3638 39.5316 65.3206 39.378 65.2276 39.4087ZM65.339 37.8418C65.3329 37.848 65.3267 37.8541 65.3267 37.8602C65.3329 37.854 65.3329 37.8478 65.339 37.8418ZM67.7627 34.0627C67.8743 34.1548 67.8309 34.3638 67.9052 34.4928C68.1037 34.8431 68.4693 35.181 68.8103 35.3961C69.176 35.6235 69.3495 35.9184 69.4426 36.324C69.4611 36.41 69.5169 36.5267 69.4923 36.6128C69.4675 36.6926 69.3744 36.7233 69.3434 36.797C69.331 36.8278 69.3869 37.0859 69.3807 37.0919C69.3496 37.0981 69.2566 36.9629 69.2566 36.9689C69.2194 37.0612 69.2318 37.1594 69.1326 37.2087L69.1201 37.2147C69.1449 37.2331 69.2565 37.3254 69.2317 37.3438C69.1946 37.3746 69.1016 37.3499 69.0582 37.3684C68.9839 37.393 68.9342 37.4605 68.8598 37.4913C68.6675 37.5712 68.4507 37.5466 68.2523 37.5159C67.8309 37.4545 67.3536 37.307 67.0499 36.9935C66.6779 36.6187 66.7709 36.2316 66.7337 35.8075C66.6965 35.3345 67.0375 34.6216 67.3164 34.2531C67.4033 34.1304 67.5955 33.9213 67.7627 34.0627ZM37.3959 30.3882C37.3711 30.4435 37.3959 30.5295 37.3834 30.5909C37.3471 30.7132 37.2882 30.8278 37.2098 30.9289C37.0797 31.1256 36.9495 31.3038 36.8566 31.525C36.6397 32.0657 36.4352 32.6495 36.3297 33.2208C36.1064 34.4499 36.8566 35.4699 36.8998 36.6681C37.2469 36.3055 37.7739 36.2871 38.2388 36.2871C38.8649 36.2871 39.4785 36.3116 40.1045 36.3669C41.2947 36.4714 42.5097 36.5144 43.6378 36.9445C43.748 36.9866 43.8622 37.0174 43.9788 37.0367C44.1152 37.0675 44.0407 36.9998 44.1462 37.0797C44.1708 37.1042 44.1833 37.1779 44.2143 37.2087C44.3568 37.3499 44.4498 37.2517 44.5675 37.1041C44.9085 36.6863 45.2431 36.3114 45.6833 35.9858C46.613 35.2977 47.6544 34.978 48.8012 34.8737C49.452 34.8111 50.1059 34.7824 50.7598 34.7877C51.3921 34.7938 52.0553 34.806 52.6505 35.0273C52.5017 34.6033 52.2476 34.2285 52.0431 33.8353C51.9499 33.6384 51.8443 33.4475 51.7269 33.2638C51.6153 33.1102 51.448 32.9812 51.3737 32.8029C51.363 32.8392 51.3484 32.8742 51.3302 32.9075C50.1214 32.5634 48.8694 32.379 47.6297 32.1824C46.3837 31.9857 45.1502 31.7093 43.9043 31.5004C43.2781 31.3958 42.652 31.3283 42.0199 31.2607C41.4125 31.1931 40.8297 31.0579 40.2347 30.9473C39.6273 30.8305 39.0383 30.6953 38.4433 30.5356C38.1953 30.4679 37.9598 30.3758 37.7117 30.2958C37.5136 30.2346 37.4702 30.2222 37.3959 30.3882ZM64.1924 32.5696C64.2296 32.717 64.1118 32.9076 64.0747 33.0488C64.0312 33.2087 63.9445 33.2701 63.8949 33.4176C63.8515 33.5406 63.9259 34.2042 63.6035 34.0075C63.6159 34.0568 63.6654 34.1181 63.6717 34.1612C63.6779 34.2164 63.6282 34.2964 63.6408 34.3394C63.6532 34.3823 63.7957 34.4993 63.833 34.5668C63.9662 34.8451 64.0659 35.138 64.1305 35.4394C64.1986 35.7466 64.2854 36.1707 64.0312 36.3795C63.9693 36.4287 63.9135 36.441 63.8516 36.5025C63.8464 36.5588 63.8171 36.6102 63.7709 36.6439C63.7503 36.6514 63.7271 36.6437 63.7153 36.6255C63.6346 36.6684 63.6656 36.4903 63.5727 36.6623C63.5479 36.7052 63.5912 36.8466 63.5727 36.8282C63.5354 36.8036 63.4302 36.6868 63.393 36.6868C63.3124 36.7913 63.3186 36.6868 63.2317 36.6992C63.2312 36.7396 63.1981 36.7724 63.1573 36.7729C63.1201 36.7667 63.0892 36.7545 63.052 36.7483C62.8412 36.7483 62.525 36.6623 62.3267 36.607C61.9439 36.5191 61.6497 36.2154 61.5768 35.8327C61.4031 34.997 62.1098 33.9525 62.618 33.3502C62.7914 33.1533 64.0064 31.8076 64.1924 32.5696ZM67.5706 35.261C67.5645 35.3287 67.5891 35.4331 67.5087 35.4453C67.5148 35.3654 67.4777 35.261 67.5706 35.261ZM62.054 35.1442C62.0911 35.3469 62.0973 35.2303 62.0166 35.3716C61.9906 35.2943 62.0046 35.2093 62.054 35.1442ZM67.9301 34.88C67.9611 34.9169 68.0852 35.0214 67.9798 35.0521C67.8868 35.0767 67.9239 34.9291 67.9301 34.88ZM63.5601 33.479C63.5167 33.694 63.6408 33.6448 63.8143 33.6018C63.7275 33.565 63.647 33.5219 63.5601 33.479ZM31.8357 24.7104C31.0175 25.4049 30.9927 26.6276 31.0175 27.6108C31.0546 28.9442 31.1352 30.2837 31.2653 31.611C31.321 32.2132 31.4947 32.5143 32.0959 32.7171C32.7405 32.9322 33.4411 32.8954 34.1105 32.8523C33.9805 31.863 33.7324 30.5604 34.7303 29.9029C34.8127 29.8396 34.9118 29.8013 35.0155 29.7922C35.0899 29.7862 35.1952 29.8537 35.2635 29.823C35.406 29.7553 35.3254 29.5588 35.2758 29.4482C35.1333 29.1164 34.8667 28.8459 34.6497 28.5633C34.377 28.2069 34.1415 28.2192 33.7324 28.2622C33.5712 28.2806 32.9265 28.3544 33.0567 28.0102C33.1496 27.7582 33.6519 27.8197 33.8564 27.7644C34.0113 27.7213 34.0424 27.7029 34.0361 27.5433C34.0237 27.2974 33.8812 27.2298 33.6642 27.236C33.379 27.2422 32.8893 27.3958 32.6538 27.1745C32.3191 26.8612 32.8151 26.6399 33.0692 26.597C33.3357 26.5539 33.689 26.5908 33.7509 26.2713C33.8067 25.964 33.6457 25.5892 33.5154 25.3128C33.3914 25.0486 33.2179 24.7105 32.9575 24.5569C32.5982 24.3233 32.1456 24.4462 31.8357 24.7104ZM35.0217 30.5357C34.687 30.6094 34.4948 31.0395 34.4577 31.3407C34.4206 31.6294 34.4452 32.0472 34.6622 32.2686C34.9474 32.5635 35.4371 32.545 35.7407 32.8154C35.8814 32.1527 36.1218 31.5148 36.4535 30.9229C36.1932 30.8552 35.9452 30.7631 35.691 30.6771C35.499 30.6216 35.2201 30.4864 35.0217 30.5357ZM56.3945 31.9613C56.4689 32.0227 56.4937 32.0412 56.5123 32.1456C56.3326 32.1517 56.3882 32.0964 56.3945 31.9613ZM58.155 27.2482C58.4338 27.2544 58.5641 27.3466 58.781 27.4756C58.9423 27.5679 59.1344 27.4695 59.1344 27.7091C59.5868 27.359 60.4297 28.2683 60.7461 28.5079C61.0808 28.7599 61.4092 29.0548 61.4465 29.5033C61.4589 29.6385 61.4279 29.7737 61.4527 29.9027C61.4652 30.001 61.5333 30.0994 61.5208 30.2038C61.5085 30.3206 61.403 30.3943 61.3846 30.505C61.3721 30.5479 61.4092 30.64 61.3846 30.6769C61.18 31.0456 60.9197 31.3467 60.4795 31.3836C60.0772 31.4158 59.6794 31.2799 59.3823 31.0088C59.1345 30.7692 58.9794 30.4129 58.9175 30.0809C58.9051 30.0257 58.93 29.8904 58.9113 29.8412C58.8865 29.7675 58.8431 29.7675 58.806 29.7122C58.7131 29.5587 58.5828 29.2698 58.7006 29.1038C58.4092 29.1715 58.1861 28.5447 58.0745 28.3665C57.9938 28.2313 57.7955 28.1268 57.7398 27.9917C57.6654 27.8134 57.9319 27.7335 57.8389 27.6045C57.7892 27.5369 57.5166 27.58 57.5476 27.414C57.566 27.2666 58.0496 27.2482 58.155 27.2482ZM63.8267 30.4005C63.8267 30.4039 63.8294 30.4067 63.833 30.4067L63.8267 30.4005ZM63.0518 29.0425C63.0766 29.0179 63.213 28.8827 63.2317 28.9873C63.244 29.0732 63.0953 29.0425 63.0518 29.0425ZM50.3508 18.3998C50.0533 18.4182 49.7929 18.7316 49.5697 18.8975C49.2328 19.1398 48.8608 19.3305 48.4664 19.4629C48.0138 19.6226 47.5551 19.764 47.0903 19.8868C46.6192 20.0097 46.1295 20.0342 45.6646 20.1633C45.894 20.581 46.1295 21.0051 46.3589 21.4229C46.4579 21.2817 46.427 21.128 46.5944 21.0297C46.7123 20.962 46.8796 20.9498 47.0097 20.9252C47.3755 20.8515 47.7722 20.7901 48.1442 20.8639C48.3859 20.913 48.6462 21.0912 48.423 21.3493C48.2806 21.5091 47.9706 21.4661 47.9458 21.7242C47.921 21.97 48.1752 22.1789 48.1131 22.437C48.0325 22.7995 47.6667 22.689 47.5057 22.4554C47.3631 22.2465 47.4189 21.8777 47.1958 21.7242C47.0657 21.6321 46.7061 21.6012 46.5635 21.6812C46.8238 22.1605 47.3384 22.7565 47.0408 23.3341C46.9478 23.5123 46.7495 23.5799 46.8796 23.7519C47.0345 23.9546 47.487 24.1206 47.7226 24.0591C47.9458 24.0038 48.2061 23.7519 48.4541 23.8748C48.6897 23.9916 48.5222 24.1882 48.547 24.3725C48.6089 24.9256 49.7558 24.6122 50.0656 24.5384C50.3755 24.4646 50.704 24.2864 51.0265 24.2804C51.3302 24.2742 51.6091 24.4156 51.8508 24.5876C52.0305 24.7166 52.3282 25.0852 52.5574 25.0976C52.7869 25.1099 53.1092 24.7719 53.3138 24.6736C53.6794 24.4893 54.0761 24.4401 54.4604 24.3172C54.5223 24.2988 54.7889 24.2435 54.7951 24.1574C54.8013 24.0714 54.4852 23.887 54.4294 23.8441C53.9397 23.4754 53.5802 22.9653 53.0719 22.6152C52.8474 22.4627 52.5979 22.3503 52.3343 22.2833C52.1854 22.2465 51.7888 22.1911 51.7763 21.9822C52.483 21.8655 52.5015 20.9928 52.204 20.4951C52.0117 20.1818 51.7204 20.0281 51.3486 20.0957C50.8094 20.194 50.7102 20.5812 50.5924 21.0482C50.1523 20.8086 49.6751 20.2309 49.6503 19.7209C49.6133 19.1556 50.2331 18.9159 50.3508 18.3998ZM63.4672 22.2218C64.2051 22.356 64.9322 22.5428 65.6429 22.781C66.083 22.9284 66.7214 23.0575 67.0996 23.3339C67.2111 23.4139 67.3475 23.592 67.2484 23.7395C67.1614 23.8625 66.9445 23.8317 66.8207 23.8132C66.2442 23.7272 65.6863 23.4875 65.1161 23.3585C63.6096 23.0206 62.0602 22.8547 60.5229 22.7501C60.0952 22.7194 59.6736 22.6949 59.2458 22.6642C58.8926 22.6396 58.5021 22.6518 58.155 22.5719C57.8822 22.5105 57.814 22.3077 58.0186 22.0865C58.217 21.8654 58.5516 21.9022 58.8183 21.8654C60.3864 21.7609 61.9423 21.9391 63.4672 22.2218ZM60.8885 20.4398C61.3906 20.6119 60.8017 20.6918 60.5848 20.6734C60.5104 20.6672 59.5248 20.5689 59.5248 20.5997C59.3264 20.5997 58.8058 20.7472 58.6632 20.5506C58.5145 20.3417 59.159 20.2618 59.2955 20.2556C59.7976 20.2247 60.4051 20.274 60.8885 20.4398Z" fill="black"/>
<path fill-rule="evenodd" clip-rule="evenodd" d="M38.3964 16.7646C38.2393 16.9216 38.0836 17.0676 37.9385 17.2235C37.5057 17.6879 37.0652 18.1458 36.6521 18.627C36.4542 18.8574 36.302 19.129 36.1484 19.393C36.0812 19.5088 35.9817 19.5144 35.8841 19.5239C35.7923 19.533 35.7355 19.4051 35.7958 19.3158C36.0295 18.9683 36.2406 18.5994 36.516 18.2868C36.969 17.772 37.4657 17.2952 37.9433 16.8019C38.0465 16.6954 38.1416 16.5878 38.2943 16.5359C38.35 16.517 38.3808 16.4031 38.4078 16.3275C38.5597 15.9001 38.708 15.4714 38.8562 15.0429C38.9973 14.6347 39.1362 14.2258 39.2773 13.8176C39.3468 13.6167 39.4189 13.417 39.4899 13.2168C39.4806 13.2108 39.4714 13.2047 39.462 13.1988C39.4404 13.2138 39.4157 13.2262 39.3973 13.2443C38.8311 13.805 38.1971 14.2685 37.4541 14.5748C37.3454 14.6196 37.2305 14.6524 37.1163 14.6821C37.0189 14.7072 36.9458 14.6675 36.895 14.5605C37.0335 14.4927 37.166 14.4187 37.3057 14.3613C37.9086 14.1141 38.4308 13.7421 38.8989 13.3029C39.2108 13.0103 39.4791 12.6723 39.7676 12.3553C39.8134 12.3049 39.8627 12.2578 39.9198 12.1993C39.8047 12.1488 39.7041 12.1075 39.6057 12.0609C38.8837 11.7203 38.4274 10.8764 38.576 10.0993C38.6163 9.88878 38.7206 9.67119 38.8532 9.50085C39.2113 9.0406 39.6924 8.75498 40.2847 8.71391C40.5067 8.69854 40.7349 8.77073 40.9603 8.80412C41.0601 8.81899 41.1626 8.82617 41.2586 8.85439C42.0628 9.09289 42.4607 9.76656 42.2724 10.5802C42.1636 11.0505 41.9342 11.4613 41.5836 11.7967C41.2306 12.1344 40.8036 12.2933 40.2877 12.2583C40.3136 12.4546 40.3327 12.6442 40.3645 12.8317C40.4888 13.5672 40.7782 14.2464 41.1007 14.913C41.2263 15.1728 41.3547 15.432 41.4983 15.6821C41.5745 15.8153 41.5795 15.9329 41.5116 16.0626C41.247 16.0952 41.2241 16.0861 41.1099 15.8503C40.8754 15.3671 40.6367 14.8857 40.4145 14.397C40.221 13.9705 40.0835 13.5242 39.9982 13.0631C39.9928 13.0341 39.9819 13.0062 39.9622 12.9383C39.9345 13.0028 39.9189 13.0335 39.9076 13.0658C39.5338 14.1338 39.1663 15.2042 38.7815 16.2682C38.7079 16.4717 38.7093 16.6206 38.8166 16.8197C39.0767 17.3025 39.179 17.8363 39.2206 18.3812C39.2656 18.9684 39.3155 19.5549 39.3635 20.142C39.3772 20.31 39.3059 20.3991 39.1475 20.41C39.0465 20.4172 38.9664 20.3218 38.955 20.1708C38.9086 19.5625 38.8689 18.9533 38.8171 18.3453C38.781 17.9213 38.6717 17.5129 38.5143 17.1165C38.4714 17.0076 38.4397 16.8946 38.3964 16.7646ZM40.1597 9.02536C39.8331 9.02586 39.5879 9.16685 39.3732 9.38393C39.1051 9.65531 38.9082 9.95769 38.9364 10.3552C38.9817 10.9935 39.4364 11.7967 40.3976 11.9311C40.6499 11.9664 40.9004 11.9679 41.1169 11.8016C41.5864 11.4405 41.8442 10.9571 41.9246 10.3817C41.9549 10.1643 41.9232 9.94308 41.8043 9.7493C41.4963 9.24698 40.9289 9.01213 40.346 9.14619C40.2324 9.17227 40.148 9.18222 40.1597 9.02536Z" fill="black"/>
<path fill-rule="evenodd" clip-rule="evenodd" d="M40.1602 9.02771C40.1485 9.18457 40.2329 9.17462 40.3466 9.14854C40.9295 9.01461 41.4968 9.24933 41.8049 9.75165C41.9239 9.9453 41.9557 10.1667 41.9252 10.384C41.8447 10.9593 41.587 11.4427 41.1175 11.8039C40.901 11.9702 40.6505 11.9688 40.3982 11.9334C39.437 11.7991 38.9823 10.9959 38.937 10.3575C38.9087 9.96004 39.1056 9.65766 39.3739 9.38628C39.5884 9.1692 39.8336 9.02821 40.1602 9.02771Z" fill="white"/>
<path fill-rule="evenodd" clip-rule="evenodd" d="M33.7709 15.2004C33.6138 15.3574 33.4581 15.5034 33.313 15.6593C32.8802 16.1237 32.4397 16.5816 32.0266 17.0628C31.8287 17.2932 31.6765 17.5647 31.523 17.8288C31.4557 17.9446 31.3562 17.9502 31.2586 17.9597C31.1668 17.9688 31.11 17.8409 31.1703 17.7516C31.404 17.4041 31.6151 17.0352 31.8905 16.7226C32.3435 16.2078 32.8402 15.731 33.3178 15.2377C33.421 15.1312 33.5161 15.0236 33.6688 14.9717C33.7245 14.9528 33.7553 14.8389 33.7823 14.7633C33.9342 14.3359 34.0825 13.9072 34.2307 13.4787C34.3718 13.0705 34.5107 12.6616 34.6518 12.2533C34.7213 12.0525 34.7934 11.8528 34.8644 11.6526C34.8551 11.6466 34.8459 11.6405 34.8364 11.6346C34.8148 11.6496 34.7902 11.6619 34.7718 11.6801C34.2055 12.2407 33.5716 12.7043 32.8286 13.0106C32.7199 13.0554 32.605 13.0882 32.4908 13.1179C32.3934 13.143 32.3204 13.1033 32.2695 12.9963C32.408 12.9285 32.5405 12.8544 32.6802 12.7971C33.2831 12.5499 33.8053 12.1779 34.2734 11.7387C34.5853 11.4461 34.8536 11.1081 35.1421 10.7911C35.1879 10.7407 35.2372 10.6936 35.2942 10.6351C35.1792 10.5846 35.0786 10.5433 34.9802 10.4967C34.2582 10.1561 33.8019 9.31221 33.9505 8.5351C33.9908 8.32457 34.0951 8.10698 34.2277 7.93664C34.5858 7.4764 35.0669 7.19077 35.6591 7.1497C35.8812 7.13433 36.1094 7.20652 36.3348 7.23991C36.4345 7.25478 36.5371 7.26196 36.6331 7.29018C37.4373 7.52868 37.8351 8.20236 37.6469 9.01601C37.5381 9.48633 37.3087 9.89706 36.958 10.2325C36.6051 10.5702 36.1781 10.7291 35.6622 10.6941C35.6881 10.8904 35.7072 11.08 35.7389 11.2675C35.8632 12.003 36.1526 12.6822 36.4752 13.3488C36.6008 13.6086 36.7291 13.8678 36.8728 14.1179C36.949 14.2511 36.954 14.3687 36.8861 14.4984C36.6215 14.531 36.5986 14.5219 36.4844 14.2861C36.2499 13.8029 36.0112 13.3215 35.789 12.8328C35.5955 12.4063 35.4579 11.96 35.3727 11.4989C35.3673 11.4699 35.3564 11.442 35.3367 11.3741C35.309 11.4386 35.2934 11.4693 35.282 11.5016C34.9083 12.5696 34.5408 13.64 34.156 14.704C34.0824 14.9075 34.0838 15.0564 34.1911 15.2555C34.4512 15.7383 34.5535 16.2721 34.5951 16.817C34.6401 17.4042 34.69 17.9907 34.738 18.5778C34.7517 18.7458 34.6804 18.8349 34.522 18.8458C34.421 18.853 34.3409 18.7576 34.3295 18.6066C34.2831 17.9983 34.2434 17.3891 34.1916 16.7811C34.1555 16.3571 34.0462 15.9487 33.8888 15.5523C33.8459 15.4434 33.8142 15.3306 33.7709 15.2004ZM35.5342 7.46128C35.2076 7.46178 34.9624 7.60277 34.7477 7.81985C34.4796 8.09123 34.2827 8.39361 34.3109 8.79111C34.3562 9.42938 34.8109 10.2326 35.7721 10.367C36.0244 10.4023 36.2749 10.4038 36.4913 10.2375C36.9608 9.8764 37.2187 9.39297 37.299 8.81757C37.3294 8.60024 37.2976 8.379 37.1788 8.18522C36.8707 7.6829 36.3034 7.44805 35.7205 7.5821C35.607 7.60818 35.5226 7.61814 35.5342 7.46128Z" fill="black"/>
<path fill-rule="evenodd" clip-rule="evenodd" d="M35.5347 7.46423C35.523 7.62109 35.6074 7.61114 35.7212 7.58506C36.304 7.45113 36.8714 7.68585 37.1795 8.18818C37.2984 8.38182 37.3302 8.60319 37.2997 8.82052C37.2193 9.3958 36.9615 9.87922 36.492 10.2404C36.2756 10.4067 36.0251 10.4054 35.7728 10.37C34.8116 10.2357 34.3568 9.43246 34.3116 8.79407C34.2832 8.39656 34.4801 8.09419 34.7484 7.8228C34.9629 7.60572 35.2081 7.46474 35.5347 7.46423Z" fill="white"/>
</svg>
