<svg width="1094" height="520" viewBox="0 0 1094 520" fill="none" xmlns="http://www.w3.org/2000/svg">
<g filter="url(#filter0_i_0_5474)">
<path fill-rule="evenodd" clip-rule="evenodd" d="M1600.38 -22.3205C1637.12 60.6306 1398.23 141.119 1269.69 219.127C1166.82 281.557 1094.9 377.714 951.823 414.937C813.193 451.003 645.57 397.288 499.631 408.862C302.773 424.474 73.8905 583.678 -56.1196 489.666C-190.11 437.989 -72.1239 289.93 -70.0588 198.87C-68.1985 116.847 -173.279 33.7377 -63.6932 -41.2693C46.7591 -116.869 272.86 -101.791 437.038 -148.216C598.238 -193.799 714.828 -314.702 879.792 -308.062C1046.85 -301.338 999.592 -168.176 1119.16 -120.761C1253.77 -67.3842 1562.04 -108.906 1600.38 -22.3205Z" fill="#FFDF9F"/>
</g>
<defs>
<filter id="filter0_i_0_5474" x="-120.026" y="-309.325" width="1725.2" height="828.512" filterUnits="userSpaceOnUse" color-interpolation-filters="sRGB">
<feFlood flood-opacity="0" result="BackgroundImageFix"/>
<feBlend mode="normal" in="SourceGraphic" in2="BackgroundImageFix" result="shape"/>
<feColorMatrix in="SourceAlpha" type="matrix" values="0 0 0 0 0 0 0 0 0 0 0 0 0 0 0 0 0 0 127 0" result="hardAlpha"/>
<feOffset dx="7" dy="-6"/>
<feGaussianBlur stdDeviation="0.5"/>
<feComposite in2="hardAlpha" operator="arithmetic" k2="-1" k3="1"/>
<feColorMatrix type="matrix" values="0 0 0 0 0 0 0 0 0 0 0 0 0 0 0 0 0 0 0.2 0"/>
<feBlend mode="normal" in2="shape" result="effect1_innerShadow_0_5474"/>
</filter>
</defs>
</svg>
